<svg width="48" height="24" viewBox="0 0 48 24" fill="none" xmlns="http://www.w3.org/2000/svg">
<path fill-rule="evenodd" clip-rule="evenodd" d="M18.7745 9.11388C18.0165 5.91688 15.1406 3.53125 11.7155 3.53125C8.2911 3.53125 5.41452 5.91688 4.65722 9.11388C4.01222 9.22967 3.52344 9.79123 3.52344 10.4693V12.9716C3.52344 13.7324 4.14036 14.3503 4.90126 14.3503C5.35261 14.3503 5.7507 14.1329 6.00265 13.798C6.59942 15.2861 7.79007 16.4789 9.28667 17.0942C9.38961 17.1367 9.4688 16.997 9.37953 16.9301C8.3746 16.1714 7.3963 14.9469 7.46325 13.0702C7.46325 12.6641 7.86925 12.0056 8.69781 11.8874C9.52566 11.7687 13.297 11.8371 13.7707 9.84153C13.8722 9.30042 13.824 8.89713 14.1702 9.17655C14.3221 9.30898 15.4948 10.6363 15.6531 12.8004C15.7475 14.1018 15.5682 15.5199 14.5942 16.5616C14.5201 16.6415 14.618 16.7639 14.7108 16.7084C15.9058 16.0022 16.8301 14.9001 17.298 13.587C17.4528 13.8952 17.7184 14.137 18.0431 14.2608C17.8739 14.9498 17.5032 15.8849 16.6905 16.6768C15.6899 17.6535 14.2523 18.1913 12.413 18.2792C12.2374 17.8812 11.84 17.6018 11.3764 17.6018C10.7516 17.6018 10.2434 18.1086 10.2434 18.7347C10.2434 19.3604 10.7509 19.8679 11.3764 19.8679C11.8508 19.8679 12.2568 19.5756 12.4253 19.1624C14.5014 19.0667 16.1412 18.4461 17.3067 17.3088C18.339 16.3016 18.7666 15.1138 18.9437 14.2876C19.5023 14.1118 19.9076 13.5899 19.9076 12.9722V10.4693C19.9083 9.79184 19.4188 9.22967 18.7745 9.11388ZM11.6113 5.6938C9.01407 5.6938 6.79977 7.31127 5.95321 9.57805C5.83659 9.44073 5.69406 9.32763 5.53354 9.24415C6.22533 6.47334 8.73477 4.41463 11.7165 4.41463C14.6989 4.41463 17.2083 6.47334 17.8994 9.24415C17.6654 9.36582 17.4711 9.55161 17.3386 9.77976C16.5511 7.40772 14.2857 5.6938 11.6114 5.6938H11.6113Z" fill="#4E5058"/>
<path fill-rule="evenodd" clip-rule="evenodd" d="M42.7745 9.11388C42.0165 5.91688 39.1406 3.53125 35.7155 3.53125C32.2911 3.53125 29.4145 5.91688 28.6572 9.11388C28.0122 9.22967 27.5234 9.79123 27.5234 10.4693V12.9716C27.5234 13.7324 28.1404 14.3503 28.9013 14.3503C29.3526 14.3503 29.7507 14.1329 30.0026 13.798C30.5994 15.2861 31.7901 16.4789 33.2867 17.0942C33.3896 17.1367 33.4688 16.997 33.3795 16.9301C32.3746 16.1714 31.3963 14.9469 31.4633 13.0702C31.4633 12.6641 31.8693 12.0056 32.6978 11.8874C33.5257 11.7687 37.297 11.8371 37.7707 9.84153C37.8722 9.30042 37.824 8.89713 38.1702 9.17655C38.3221 9.30898 39.4948 10.6363 39.6531 12.8004C39.7475 14.1018 39.5682 15.5199 38.5942 16.5616C38.5201 16.6415 38.618 16.7639 38.7108 16.7084C39.9058 16.0022 40.8301 14.9001 41.298 13.587C41.4528 13.8952 41.7184 14.137 42.0431 14.2608C41.8739 14.9498 41.5032 15.8849 40.6905 16.6768C39.6899 17.6535 38.2523 18.1913 36.413 18.2792C36.2374 17.8812 35.84 17.6018 35.3764 17.6018C34.7516 17.6018 34.2434 18.1086 34.2434 18.7347C34.2434 19.3604 34.7509 19.8679 35.3764 19.8679C35.8508 19.8679 36.2568 19.5756 36.4253 19.1624C38.5014 19.0667 40.1412 18.4461 41.3067 17.3088C42.339 16.3016 42.7666 15.1138 42.9437 14.2876C43.5023 14.1118 43.9076 13.5899 43.9076 12.9722V10.4693C43.9083 9.79184 43.4188 9.22967 42.7745 9.11388ZM35.6113 5.6938C33.0141 5.6938 30.7998 7.31127 29.9532 9.57805C29.8366 9.44073 29.6941 9.32763 29.5335 9.24415C30.2253 6.47334 32.7348 4.41463 35.7165 4.41463C38.6989 4.41463 41.2083 6.47334 41.8994 9.24415C41.6654 9.36582 41.4711 9.55161 41.3386 9.77976C40.5511 7.40772 38.2857 5.6938 35.6114 5.6938H35.6113Z" fill="#313338"/>
</svg>
