<svg width="48" height="24" viewBox="0 0 48 24" fill="none" xmlns="http://www.w3.org/2000/svg">
<path fill-rule="evenodd" clip-rule="evenodd" d="M4.17397 19.877C3.4435 19.1465 5.50893 15.085 6.10366 14.4844C6.70815 13.8867 7.77554 13.9512 8.50503 14.6856C9.23941 15.419 9.33999 16.4825 8.73843 17.0821C8.20523 17.6133 5.58706 19.9942 4.5021 19.9942C4.36636 19.9942 4.25503 19.9561 4.17398 19.877L4.17397 19.877ZM11.5696 19.7754C11.3704 19.6162 11.305 19.3457 11.4065 19.1123C11.7337 18.2764 11.8694 17.4121 11.8694 16.5127C11.8011 16.5127 11.6995 16.5479 11.6351 16.5479C10.9046 15.919 10.2054 15.25 9.50419 14.5537C8.8079 13.8574 8.14286 13.1377 7.50321 12.3916C7.50321 12.3203 7.53837 12.2207 7.53837 12.1563C6.67314 12.1563 5.77567 12.3203 4.93778 12.6221C4.40751 12.8213 3.94169 12.2578 4.20731 11.793C4.53836 11.2217 4.93778 10.7227 5.40165 10.2578C6.37333 9.26271 7.6038 8.56545 8.93388 8.22951C9.06767 8.19338 9.18974 8.11135 9.26982 7.99611C11.5696 4.83595 15.5003 3.37306 19.2981 4.26662C19.5218 4.29885 19.7015 4.47756 19.7317 4.70314C20.597 8.49611 19.1595 12.4571 16.0306 14.75C15.8948 14.8194 15.8313 14.9502 15.8001 15.085C15.431 16.4502 14.7298 17.6768 13.7649 18.6475C13.3001 19.1123 12.8001 19.5117 12.2347 19.8408C12.1517 19.8985 12.053 19.9258 11.9573 19.9258C11.8245 19.9258 11.6849 19.8731 11.5696 19.7754V19.7754ZM13.6358 7.79589C12.9005 8.09569 12.4366 8.83007 12.4366 9.62792C12.4366 10.4297 12.9005 11.1572 13.6358 11.4561C14.3663 11.7578 15.213 11.5879 15.7677 11.0225C16.5323 10.2578 16.5323 8.99512 15.7677 8.22949C15.3946 7.84961 14.8898 7.65039 14.3771 7.65039C14.128 7.65039 13.8761 7.69629 13.6359 7.7959L13.6358 7.79589Z" fill="#4E5058"/>
<path fill-rule="evenodd" clip-rule="evenodd" d="M28.174 19.877C27.4435 19.1465 29.5089 15.085 30.1037 14.4844C30.7082 13.8867 31.7755 13.9512 32.505 14.6856C33.2394 15.419 33.34 16.4825 32.7384 17.0821C32.2052 17.6133 29.5871 19.9942 28.5021 19.9942C28.3664 19.9942 28.255 19.9561 28.174 19.877L28.174 19.877ZM35.5696 19.7754C35.3704 19.6162 35.305 19.3457 35.4065 19.1123C35.7337 18.2764 35.8694 17.4121 35.8694 16.5127C35.8011 16.5127 35.6995 16.5479 35.6351 16.5479C34.9046 15.919 34.2054 15.25 33.5042 14.5537C32.8079 13.8574 32.1429 13.1377 31.5032 12.3916C31.5032 12.3203 31.5384 12.2207 31.5384 12.1563C30.6731 12.1563 29.7757 12.3203 28.9378 12.6221C28.4075 12.8213 27.9417 12.2578 28.2073 11.793C28.5384 11.2217 28.9378 10.7227 29.4017 10.2578C30.3733 9.26271 31.6038 8.56545 32.9339 8.22951C33.0677 8.19338 33.1897 8.11135 33.2698 7.99611C35.5696 4.83595 39.5003 3.37306 43.2981 4.26662C43.5218 4.29885 43.7015 4.47756 43.7317 4.70314C44.597 8.49611 43.1595 12.4571 40.0306 14.75C39.8948 14.8194 39.8313 14.9502 39.8001 15.085C39.431 16.4502 38.7298 17.6768 37.7649 18.6475C37.3001 19.1123 36.8001 19.5117 36.2347 19.8408C36.1517 19.8985 36.053 19.9258 35.9573 19.9258C35.8245 19.9258 35.6849 19.8731 35.5696 19.7754V19.7754ZM37.6358 7.79589C36.9005 8.09569 36.4366 8.83007 36.4366 9.62792C36.4366 10.4297 36.9005 11.1572 37.6358 11.4561C38.3663 11.7578 39.213 11.5879 39.7677 11.0225C40.5323 10.2578 40.5323 8.99512 39.7677 8.22949C39.3946 7.84961 38.8898 7.65039 38.3771 7.65039C38.128 7.65039 37.8761 7.69629 37.6359 7.7959L37.6358 7.79589Z" fill="#313338"/>
</svg>
