<svg width="36" height="18" viewBox="0 0 36 18" fill="none" xmlns="http://www.w3.org/2000/svg">
<path fill-rule="evenodd" clip-rule="evenodd" d="M3.41326 12.9596C2.66942 12.9596 2.06643 12.3566 2.06641 11.6128V6.89885C2.06641 6.15501 2.66941 5.55203 3.41326 5.55203H6.10694L8.92858 3.10649C9.32708 2.76108 9.89051 2.67999 10.3702 2.89906C10.8499 3.11812 11.1577 3.597 11.1576 4.12436V14.3873C11.1576 14.9148 10.8498 15.3937 10.3701 15.6127C9.89051 15.8317 9.32708 15.7506 8.92858 15.4052L6.10694 12.9596H3.41326ZM14.6725 4.48464C16.0705 5.60317 16.8835 7.29708 16.8817 9.08745C16.8835 10.8779 16.0705 12.5718 14.6725 13.6903C14.4549 13.8649 14.137 13.8301 13.9624 13.6125C13.7878 13.395 13.8226 13.077 14.0402 12.9024C15.1994 11.9757 15.8736 10.5716 15.8719 9.08746C15.8719 7.58474 15.19 6.19514 14.0402 5.27255C13.8226 5.09793 13.7878 4.78 13.9624 4.56244C14.137 4.34485 14.4549 4.31003 14.6725 4.48465V4.48464ZM12.7819 6.47695C13.7604 7.12006 14.3563 8.1403 14.3563 9.25583C14.3563 10.3713 13.7604 11.3916 12.7819 12.0347C12.5489 12.1881 12.2357 12.1234 12.0825 11.8903C11.9292 11.6573 11.9939 11.3441 12.2269 11.1908C12.9321 10.7272 13.3462 10.0175 13.3462 9.25583C13.3462 8.49417 12.9317 7.78406 12.227 7.32074C11.9939 7.16757 11.9292 6.8544 12.0825 6.62134C12.2357 6.38828 12.5489 6.3236 12.782 6.47685L12.7819 6.47695Z" fill="#4E5058"/>
<path fill-rule="evenodd" clip-rule="evenodd" d="M21.4133 12.9596C20.6694 12.9596 20.0664 12.3566 20.0664 11.6128V6.89885C20.0664 6.15501 20.6694 5.55203 21.4133 5.55203H24.1069L26.9286 3.10649C27.3271 2.76108 27.8905 2.67999 28.3702 2.89906C28.8499 3.11812 29.1577 3.597 29.1576 4.12436V14.3873C29.1576 14.9148 28.8498 15.3937 28.3701 15.6127C27.8905 15.8317 27.3271 15.7506 26.9286 15.4052L24.1069 12.9596H21.4133ZM32.6725 4.48464C34.0705 5.60317 34.8835 7.29708 34.8817 9.08745C34.8835 10.8779 34.0705 12.5718 32.6725 13.6903C32.4549 13.8649 32.137 13.8301 31.9624 13.6125C31.7878 13.395 31.8226 13.077 32.0402 12.9024C33.1994 11.9757 33.8736 10.5716 33.8719 9.08746C33.8719 7.58474 33.19 6.19514 32.0402 5.27255C31.8226 5.09793 31.7878 4.78 31.9624 4.56244C32.137 4.34485 32.4549 4.31003 32.6725 4.48465V4.48464ZM30.7819 6.47695C31.7604 7.12006 32.3563 8.1403 32.3563 9.25583C32.3563 10.3713 31.7604 11.3916 30.7819 12.0347C30.5489 12.1881 30.2357 12.1234 30.0825 11.8903C29.9292 11.6573 29.9939 11.3441 30.2269 11.1908C30.9321 10.7272 31.3462 10.0175 31.3462 9.25583C31.3462 8.49417 30.9317 7.78406 30.227 7.32074C29.9939 7.16757 29.9292 6.8544 30.0825 6.62134C30.2357 6.38828 30.5489 6.3236 30.782 6.47685L30.7819 6.47695Z" fill="#313338"/>
</svg>
