<svg width="48" height="24" viewBox="0 0 48 24" fill="none" xmlns="http://www.w3.org/2000/svg">
<path fill-rule="evenodd" clip-rule="evenodd" d="M19.9132 11.6042C19.8802 11.5255 19.8432 11.4704 19.818 11.437C19.7849 11.3859 19.7402 11.3288 19.7033 11.2895L17.3236 8.88129C17.3158 8.87143 17.3119 8.85961 17.3041 8.85174L17.3061 8.8498L17.2963 8.83996L17.2944 8.838L12.8578 4.362C12.6264 4.12789 12.3212 4 11.9946 4C11.6679 4 11.3607 4.12789 11.1313 4.362L4.2897 11.2855C4.23137 11.3445 4.19249 11.4016 4.16526 11.4449C4.13222 11.4941 4.09526 11.5609 4.07582 11.6062C4.02527 11.7262 4 11.8541 4 11.984C4 12.4837 4.37914 12.9027 4.86323 12.9579C4.89628 12.9618 4.92934 12.9657 4.96433 12.9657H5.37262V18.7343C5.37262 19.2754 5.80617 19.7141 6.34082 19.7141H9.97257C10.5072 19.7141 10.9408 19.2754 10.9408 18.7343V13.3238C10.9408 13.1251 11.1002 12.9657 11.2946 12.9657H12.6964C12.8928 12.9657 13.0502 13.1251 13.0502 13.3238V18.7343C13.0502 19.2754 13.4838 19.7141 14.0185 19.7141H17.6502C18.1848 19.7141 18.6184 19.2754 18.6184 18.7343V12.9657H19.0325C19.5613 12.9599 19.991 12.5191 19.991 11.9859C19.9891 11.8561 19.9637 11.7282 19.9132 11.6042H19.9132Z" fill="#4E5058"/>
<path fill-rule="evenodd" clip-rule="evenodd" d="M43.9132 11.6042C43.8802 11.5255 43.8432 11.4704 43.818 11.437C43.7849 11.3859 43.7402 11.3288 43.7033 11.2895L41.3236 8.88129C41.3158 8.87143 41.3119 8.85961 41.3041 8.85174L41.3061 8.8498L41.2963 8.83996L41.2944 8.838L36.8578 4.362C36.6264 4.12789 36.3212 4 35.9946 4C35.6679 4 35.3607 4.12789 35.1313 4.362L28.2897 11.2855C28.2314 11.3445 28.1925 11.4016 28.1653 11.4449C28.1322 11.4941 28.0953 11.5609 28.0758 11.6062C28.0253 11.7262 28 11.8541 28 11.984C28 12.4837 28.3791 12.9027 28.8632 12.9579C28.8963 12.9618 28.9293 12.9657 28.9643 12.9657H29.3726V18.7343C29.3726 19.2754 29.8062 19.7141 30.3408 19.7141H33.9726C34.5072 19.7141 34.9408 19.2754 34.9408 18.7343V13.3238C34.9408 13.1251 35.1002 12.9657 35.2946 12.9657H36.6964C36.8928 12.9657 37.0502 13.1251 37.0502 13.3238V18.7343C37.0502 19.2754 37.4838 19.7141 38.0185 19.7141H41.6502C42.1848 19.7141 42.6184 19.2754 42.6184 18.7343V12.9657H43.0325C43.5613 12.9599 43.991 12.5191 43.991 11.9859C43.9891 11.8561 43.9637 11.7282 43.9132 11.6042H43.9132Z" fill="#313338"/>
</svg>
