<svg width="48" height="24" viewBox="0 0 48 24" fill="none" xmlns="http://www.w3.org/2000/svg">
<path fill-rule="evenodd" clip-rule="evenodd" d="M14.316 7.48619C13.8073 5.43467 12.0117 3.99941 9.95454 4C7.90063 4.00035 6.10758 5.43202 5.5967 7.47954C5.08582 9.52706 5.98677 11.6708 7.78636 12.6897C5.00536 13.3987 3 15.4122 3 17.5815C3 18.5128 4.20272 19.1832 5.89636 19.5773L6.28091 19.6606C6.48091 19.7007 6.68168 19.7367 6.88309 19.7684L7.30036 19.8291L7.72745 19.8813L8.16272 19.9234C8.23633 19.9294 8.30996 19.935 8.38363 19.9402L8.82872 19.9689C8.9781 19.9769 9.12757 19.9833 9.27708 19.9882L9.72872 19.9983L9.95454 20L10.4095 19.9958L10.8619 19.9823C11.0124 19.9764 11.1622 19.9689 11.3111 19.9596L11.7554 19.9284C11.9018 19.9158 12.0474 19.9023 12.1914 19.8863L12.6194 19.8358L13.0366 19.776L13.2412 19.7423L13.6396 19.6691C15.5321 19.291 16.9091 18.5895 16.9091 17.5815C16.9091 15.488 14.8963 13.4257 12.1112 12.6973C13.917 11.6831 14.8247 9.5377 14.316 7.48619ZM19.1229 9.3405C19.1229 10.7258 18.398 11.9308 17.3295 12.5514C19.46 13.1249 20.9998 14.7536 20.9998 16.4058C20.9998 17.231 19.8683 17.7952 18.3399 18.0858C18.3669 17.9241 18.3817 17.7557 18.3817 17.5805L18.3776 17.3843C18.2974 15.3632 16.9768 13.5039 15.0116 12.3013L14.8242 12.1902L14.9101 12.0639C15.5739 11.0496 15.928 9.85433 15.9271 8.63144C15.9271 7.57712 15.6694 6.58512 15.2153 5.71776C15.3698 5.6956 15.5256 5.68434 15.6817 5.68408C17.5823 5.68408 19.1229 7.32113 19.1229 9.3405Z" fill="#4E5058"/>
<path fill-rule="evenodd" clip-rule="evenodd" d="M38.316 7.48619C37.8073 5.43467 36.0117 3.99941 33.9545 4C31.9006 4.00035 30.1076 5.43202 29.5967 7.47954C29.0858 9.52706 29.9868 11.6708 31.7864 12.6897C29.0054 13.3987 27 15.4122 27 17.5815C27 18.5128 28.2027 19.1832 29.8964 19.5773L30.2809 19.6606C30.4809 19.7007 30.6817 19.7367 30.8831 19.7684L31.3004 19.8291L31.7274 19.8813L32.1627 19.9234C32.2363 19.9294 32.31 19.935 32.3836 19.9402L32.8287 19.9689C32.9781 19.9769 33.1276 19.9833 33.2771 19.9882L33.7287 19.9983L33.9545 20L34.4095 19.9958L34.8619 19.9823C35.0124 19.9764 35.1622 19.9689 35.3111 19.9596L35.7554 19.9284C35.9018 19.9158 36.0474 19.9023 36.1914 19.8863L36.6194 19.8358L37.0366 19.776L37.2412 19.7423L37.6396 19.6691C39.5321 19.291 40.9091 18.5895 40.9091 17.5815C40.9091 15.488 38.8963 13.4257 36.1112 12.6973C37.917 11.6831 38.8247 9.5377 38.316 7.48619ZM43.1229 9.3405C43.1229 10.7258 42.398 11.9308 41.3295 12.5514C43.46 13.1249 44.9998 14.7536 44.9998 16.4058C44.9998 17.231 43.8683 17.7952 42.3399 18.0858C42.3669 17.9241 42.3817 17.7557 42.3817 17.5805L42.3776 17.3843C42.2974 15.3632 40.9768 13.5039 39.0116 12.3013L38.8242 12.1902L38.9101 12.0639C39.5739 11.0496 39.928 9.85433 39.9271 8.63144C39.9271 7.57712 39.6694 6.58512 39.2153 5.71776C39.3698 5.6956 39.5256 5.68434 39.6817 5.68408C41.5823 5.68408 43.1229 7.32113 43.1229 9.3405Z" fill="#313338"/>
</svg>
