<svg width="48" height="24" viewBox="0 0 48 24" fill="none" xmlns="http://www.w3.org/2000/svg">
<path fill-rule="evenodd" clip-rule="evenodd" d="M16.3899 16.5899C16.0778 15.3879 15.8809 14.5984 15.8809 14.5984C15.8045 14.0824 15.348 13.7093 14.8272 13.7372C14.3938 13.7411 13.2031 13.7416 12.001 13.7406C10.799 13.7396 9.60824 13.7406 9.1749 13.7372C8.65386 13.7091 8.1971 14.0822 8.12072 14.5984C8.12072 14.5984 7.92284 15.3899 7.61218 16.5899C7.30152 17.79 7.27777 18.0186 5.73632 17.9943C4.19488 17.9701 3.66853 17.2815 3.51023 13.9939C3.35193 10.7063 5.05365 6.91607 7.0141 6.19236C8.05885 5.73176 9.28169 6.16283 9.80661 7.17676H14.1925C14.7177 6.16222 15.9413 5.73109 16.9865 6.19236C18.9479 6.91607 20.6472 10.7053 20.4899 13.9934C20.3326 17.2815 19.8067 17.9691 18.2638 17.9938C18.1932 17.9938 18.1258 17.9938 18.0615 17.9938C16.7214 17.9958 16.6877 17.7376 16.3899 16.5899H16.3899Z" fill="#4E5058"/>
<path fill-rule="evenodd" clip-rule="evenodd" d="M40.3899 16.5899C40.0778 15.3879 39.8809 14.5984 39.8809 14.5984C39.8045 14.0824 39.348 13.7093 38.8272 13.7372C38.3938 13.7411 37.2031 13.7416 36.001 13.7406C34.799 13.7396 33.6082 13.7406 33.1749 13.7372C32.6539 13.7091 32.1971 14.0822 32.1207 14.5984C32.1207 14.5984 31.9228 15.3899 31.6122 16.5899C31.3015 17.79 31.2778 18.0186 29.7363 17.9943C28.1949 17.9701 27.6685 17.2815 27.5102 13.9939C27.3519 10.7063 29.0537 6.91607 31.0141 6.19236C32.0589 5.73176 33.2817 6.16283 33.8066 7.17676H38.1925C38.7177 6.16222 39.9413 5.73109 40.9865 6.19236C42.9479 6.91607 44.6472 10.7053 44.4899 13.9934C44.3326 17.2815 43.8067 17.9691 42.2638 17.9938C42.1932 17.9938 42.1258 17.9938 42.0615 17.9938C40.7214 17.9958 40.6877 17.7376 40.3899 16.5899H40.3899Z" fill="#313338"/>
</svg>
