<svg width="36" height="18" viewBox="0 0 36 18" fill="none" xmlns="http://www.w3.org/2000/svg">
<path fill-rule="evenodd" clip-rule="evenodd" d="M5.01171 15.5352C4.89062 15.5352 4.77441 15.5039 4.67382 15.4453C4.46581 15.3232 4.33886 15.0967 4.34277 14.8545L4.36523 13.5352C2.4541 12.4199 1.3125 10.5322 1.3125 8.48535C1.3125 5.16601 4.31152 2.46484 7.99805 2.46484C11.6865 2.46484 14.6875 5.16601 14.6875 8.48535C14.6875 11.8027 11.6865 14.501 7.99805 14.501C7.69141 14.501 7.39258 14.4815 7.08399 14.4414L5.34669 15.4453C5.2461 15.5039 5.13087 15.5352 5.01173 15.5352L5.01171 15.5352ZM10.8213 7.81543C10.4521 7.81543 10.1523 8.11621 10.1523 8.48535C10.1523 8.85449 10.4521 9.1543 10.8213 9.1543C11.1904 9.1543 11.4912 8.8545 11.4912 8.48535C11.4912 8.11621 11.1904 7.81543 10.8213 7.81543ZM7.91503 7.81543C7.54589 7.81543 7.24608 8.11621 7.24608 8.48535C7.24608 8.85449 7.54588 9.1543 7.91503 9.1543C8.28417 9.1543 8.58398 8.8545 8.58398 8.48535C8.58398 8.11621 8.28418 7.81543 7.91503 7.81543ZM5.01171 7.81543C4.64257 7.81543 4.34276 8.11621 4.34276 8.48535C4.34276 8.85449 4.64256 9.1543 5.01171 9.1543C5.38085 9.1543 5.68163 8.8545 5.68163 8.48535C5.68163 8.11621 5.38085 7.81543 5.01171 7.81543Z" fill="#4E5058"/>
<path fill-rule="evenodd" clip-rule="evenodd" d="M23.0117 15.5352C22.8906 15.5352 22.7744 15.5039 22.6738 15.4453C22.4658 15.3232 22.3389 15.0967 22.3428 14.8545L22.3652 13.5352C20.4541 12.4199 19.3125 10.5322 19.3125 8.48535C19.3125 5.16601 22.3115 2.46484 25.9981 2.46484C29.6865 2.46484 32.6875 5.16601 32.6875 8.48535C32.6875 11.8027 29.6865 14.501 25.9981 14.501C25.6914 14.501 25.3926 14.4815 25.084 14.4414L23.3467 15.4453C23.2461 15.5039 23.1309 15.5352 23.0117 15.5352L23.0117 15.5352ZM28.8213 7.81543C28.4521 7.81543 28.1523 8.11621 28.1523 8.48535C28.1523 8.85449 28.4521 9.1543 28.8213 9.1543C29.1904 9.1543 29.4912 8.8545 29.4912 8.48535C29.4912 8.11621 29.1904 7.81543 28.8213 7.81543ZM25.915 7.81543C25.5459 7.81543 25.2461 8.11621 25.2461 8.48535C25.2461 8.85449 25.5459 9.1543 25.915 9.1543C26.2842 9.1543 26.584 8.8545 26.584 8.48535C26.584 8.11621 26.2842 7.81543 25.915 7.81543ZM23.0117 7.81543C22.6426 7.81543 22.3428 8.11621 22.3428 8.48535C22.3428 8.85449 22.6426 9.1543 23.0117 9.1543C23.3809 9.1543 23.6816 8.8545 23.6816 8.48535C23.6816 8.11621 23.3809 7.81543 23.0117 7.81543Z" fill="#313338"/>
</svg>
