<svg width="24" height="24" viewBox="0 0 24 24" fill="none" xmlns="http://www.w3.org/2000/svg">
<path fill-rule="evenodd" clip-rule="evenodd" d="M18.1242 9.23368L17.9085 9.72839C17.7506 10.0905 17.2494 10.0905 17.0915 9.72839L16.8757 9.23368C16.4911 8.35164 15.7985 7.64931 14.9342 7.26513L14.2696 6.96963C13.9101 6.80985 13.9101 6.28715 14.2696 6.12738L14.897 5.8484C15.7836 5.45434 16.4887 4.72604 16.8666 3.814L17.0881 3.27941C17.2426 2.90686 17.7574 2.90686 17.9118 3.27941L18.1333 3.814C18.5113 4.72604 19.2164 5.45434 20.103 5.8484L20.7304 6.12738C21.0899 6.28715 21.0899 6.80985 20.7304 6.96963L20.0657 7.26513C19.2015 7.64931 18.5088 8.35164 18.1242 9.23368ZM17.5026 6.054L17.0109 6.54251L17.5026 7.01729L17.984 6.54251L17.5026 6.054ZM18.0771 11.6679C18.0311 11.422 17.9725 11.1805 17.9022 10.944C18.2889 10.8341 18.6358 10.5621 18.8251 10.1281L19.0408 9.63325C19.0904 9.51964 19.1467 9.41024 19.2092 9.30554C19.7173 10.4327 20 11.6833 20 13C20 13.1509 19.9963 13.301 19.9889 13.45L11.45 21.9889C11.301 21.9963 11.1509 22 11 22C6.02943 22 2 17.9705 2 13C2 8.02943 6.02943 4 11 4C12.3331 4 13.5985 4.28985 14.7367 4.80998C14.657 4.85553 14.5749 4.89712 14.4908 4.93454L13.8633 5.21351C13.4489 5.39772 13.1838 5.72893 13.0677 6.10131C12.4128 5.9053 11.7187 5.8 11 5.8C7.02355 5.8 3.8 9.02355 3.8 13C3.8 16.5213 6.32789 19.4523 9.66791 20.0771C9.73595 18.9953 9.99497 17.9655 10.4117 17.0208C9.03012 16.8927 7.77678 16.318 6.79978 15.4436L8.00022 14.1023C8.79695 14.8155 9.84692 15.248 11 15.248C11.1587 15.248 11.3151 15.2398 11.469 15.2239C13.0043 13.1952 15.3795 11.8375 18.0771 11.6679ZM17.321 13.5724C14.4102 14.1156 12.1156 16.4102 11.5724 19.321L17.321 13.5724ZM9.2 11.2C9.2 11.9456 8.59559 12.55 7.85 12.55C7.10441 12.55 6.5 11.9456 6.5 11.2C6.5 10.4544 7.10441 9.85 7.85 9.85C8.59559 9.85 9.2 10.4544 9.2 11.2ZM15.5 11.2C15.5 11.9456 14.8956 12.55 14.15 12.55C13.4044 12.55 12.8 11.9456 12.8 11.2C12.8 10.4544 13.4044 9.85 14.15 9.85C14.8956 9.85 15.5 10.4544 15.5 11.2Z" fill="#4E5058"/>
</svg>
