<svg width="16" height="16" viewBox="0 0 16 16" fill="none" xmlns="http://www.w3.org/2000/svg">
<path d="M7.33203 7.33203V5.06536C7.33203 4.84445 7.51112 4.66536 7.73203 4.66536H8.26536C8.48628 4.66536 8.66536 4.84445 8.66536 5.06536V7.33203H10.932C11.1529 7.33203 11.332 7.51112 11.332 7.73203V8.26536C11.332 8.48628 11.1529 8.66536 10.932 8.66536H8.66536V10.932C8.66536 11.1529 8.48628 11.332 8.26536 11.332H7.73203C7.51112 11.332 7.33203 11.1529 7.33203 10.932V8.66536H5.06536C4.84445 8.66536 4.66536 8.48628 4.66536 8.26536V7.73203C4.66536 7.51112 4.84445 7.33203 5.06536 7.33203H7.33203ZM7.9987 14.6654C4.3168 14.6654 1.33203 11.6806 1.33203 7.9987C1.33203 4.3168 4.3168 1.33203 7.9987 1.33203C11.6806 1.33203 14.6654 4.3168 14.6654 7.9987C14.6654 11.6806 11.6806 14.6654 7.9987 14.6654ZM7.9987 13.332C10.9442 13.332 13.332 10.9442 13.332 7.9987C13.332 5.05318 10.9442 2.66536 7.9987 2.66536C5.05318 2.66536 2.66536 5.05318 2.66536 7.9987C2.66536 10.9442 5.05318 13.332 7.9987 13.332Z" fill="#4E5058"/>
</svg>
