<svg width="24" height="24" viewBox="0 0 24 24" fill="none" xmlns="http://www.w3.org/2000/svg">
<path d="M9.05263 7.66641V9.99247C9.05263 10.4175 8.55602 10.6487 8.23078 10.3751L4.4549 7.19904C4.21737 6.99925 4.21737 6.63357 4.4549 6.43377L8.23078 3.25771C8.55601 2.98413 9.05263 3.21535 9.05263 3.64034V5.96641H13.2632C16.9838 5.96641 20 9.01087 20 12.7664C20 16.522 16.9838 19.5664 13.2632 19.5664H6.53421C6.06477 19.5664 5.68421 19.1858 5.68421 18.7164C5.68421 18.247 6.06477 17.8664 6.53421 17.8664H13.2632C16.0536 17.8664 18.3158 15.5831 18.3158 12.7664C18.3158 9.94975 16.0536 7.66641 13.2632 7.66641H9.05263Z" fill="#4E5058"/>
</svg>
