<svg width="12" height="12" viewBox="0 0 12 12" fill="none" xmlns="http://www.w3.org/2000/svg">
<path d="M3.52407 6.70305L5.29155 8.47105L4.58515 9.1779L5.29245 9.88555L4.58532 10.5927L3.34807 9.355L1.93367 10.7694L1.22656 10.0623L2.64096 8.6479L1.40334 7.41065L2.11045 6.70355L2.81739 7.4101L3.52407 6.70305ZM1.49954 1.5L3.27253 1.50168L9.1812 7.41035L9.8886 6.70355L10.5958 7.41065L9.3583 8.6481L10.7725 10.0623L10.0654 10.7694L8.6512 9.3552L7.41375 10.5927L6.70665 9.88555L7.41345 9.1781L1.50091 3.26559L1.49954 1.5ZM8.72815 1.50005L10.4996 1.50168L10.5005 3.26324L8.47405 5.28905L6.70605 3.52155L8.72815 1.50005Z" fill="#4E5058"/>
</svg>
