<svg width="16" height="16" viewBox="0 0 16 16" fill="none" xmlns="http://www.w3.org/2000/svg">
<path d="M9.0519 11.5156L5.64514 9.6573C5.22338 10.076 4.64255 10.3346 4.0013 10.3346C2.71264 10.3346 1.66797 9.28997 1.66797 8.0013C1.66797 6.71264 2.71264 5.66797 4.0013 5.66797C4.64251 5.66797 5.22331 5.92661 5.64506 6.34526L9.0519 4.487C9.01877 4.33033 9.0013 4.16786 9.0013 4.0013C9.0013 2.71264 10.046 1.66797 11.3346 1.66797C12.6233 1.66797 13.668 2.71264 13.668 4.0013C13.668 5.28997 12.6233 6.33464 11.3346 6.33464C10.6934 6.33464 10.1126 6.07598 9.69084 5.6573L6.284 7.5155C6.31718 7.67224 6.33464 7.8347 6.33464 8.0013C6.33464 8.16784 6.31719 8.3303 6.28402 8.48697L9.69084 10.3453C10.1126 9.92664 10.6934 9.66797 11.3346 9.66797C12.6233 9.66797 13.668 10.7126 13.668 12.0013C13.668 13.29 12.6233 14.3346 11.3346 14.3346C10.046 14.3346 9.0013 13.29 9.0013 12.0013C9.0013 11.8348 9.01877 11.6722 9.0519 11.5156Z" fill="#4E5058"/>
</svg>
