<svg width="16" height="16" viewBox="0 0 16 16" fill="none" xmlns="http://www.w3.org/2000/svg">
<path fill-rule="evenodd" clip-rule="evenodd" d="M13.875 4C13.875 3.51675 13.4832 3.125 13 3.125H3C2.51675 3.125 2.125 3.51675 2.125 4C2.125 4.48325 2.51675 4.875 3 4.875H13C13.4832 4.875 13.875 4.48325 13.875 4ZM13.875 8C13.875 7.51675 13.4832 7.125 13 7.125H3C2.51675 7.125 2.125 7.51675 2.125 8C2.125 8.48325 2.51675 8.875 3 8.875H13C13.4832 8.875 13.875 8.48325 13.875 8ZM13 11.125C13.4832 11.125 13.875 11.5168 13.875 12C13.875 12.4832 13.4832 12.875 13 12.875H3C2.51675 12.875 2.125 12.4832 2.125 12C2.125 11.5168 2.51675 11.125 3 11.125H13Z" fill="#4E5058"/>
</svg>
