<svg width="16" height="16" viewBox="0 0 16 16" fill="none" xmlns="http://www.w3.org/2000/svg">
<g clip-path="url(#clip0_397_43076)">
<path fill-rule="evenodd" clip-rule="evenodd" d="M12.7552 2.19267C12.5599 1.99741 12.2433 1.99741 12.0481 2.19267L8.00066 6.24008L3.95259 2.19201C3.75733 1.99675 3.44075 1.99675 3.24549 2.19201L2.19215 3.24535C1.99688 3.44062 1.99688 3.7572 2.19215 3.95246L6.24021 8.00052L2.1925 12.0482C1.99723 12.2435 1.99723 12.5601 2.1925 12.7553L3.24583 13.8087C3.4411 14.0039 3.75768 14.0039 3.95294 13.8087L8.00065 9.76097L12.0477 13.808C12.243 14.0033 12.5596 14.0033 12.7548 13.808L13.8082 12.7547C14.0034 12.5594 14.0034 12.2428 13.8082 12.0476L9.7611 8.00052L13.8085 3.95312C14.0038 3.75785 14.0038 3.44127 13.8085 3.24601L12.7552 2.19267Z" fill="#4E5058"/>
</g>
<defs>
<clipPath id="clip0_397_43076">
<rect width="16" height="16" fill="white"/>
</clipPath>
</defs>
</svg>
