<svg width="24" height="24" viewBox="0 0 24 24" fill="none" xmlns="http://www.w3.org/2000/svg">
<path d="M17.7277 8.21429C17.7277 7.93814 17.9516 7.71429 18.2277 7.71429H22.0004C22.2766 7.71429 22.5004 7.93814 22.5004 8.21429V9.11905C22.5004 9.39519 22.2766 9.61905 22.0004 9.61905H18.2277C17.9516 9.61905 17.7277 9.39519 17.7277 9.11905V8.21429ZM15.8186 12.9762C15.8186 12.7 16.0425 12.4762 16.3186 12.4762H22.0004C22.2766 12.4762 22.5004 12.7 22.5004 12.9762V13.881C22.5004 14.1571 22.2766 14.381 22.0004 14.381H16.3186C16.0425 14.381 15.8186 14.1571 15.8186 13.881V12.9762ZM18.6823 17.7381C18.6823 17.462 18.9061 17.2381 19.1823 17.2381H22.0004C22.2766 17.2381 22.5004 17.462 22.5004 17.7381V18.6429C22.5004 18.919 22.2766 19.1429 22.0004 19.1429H19.1823C18.9061 19.1429 18.6823 18.919 18.6823 18.6429V17.7381ZM2.00043 22C1.72429 22 1.49873 21.7755 1.51662 21.4999C1.77475 17.5251 5.08776 14.381 9.1368 14.381C13.1859 14.381 16.4988 17.5251 16.757 21.4999C16.7749 21.7755 16.5493 22 16.2732 22H15.3641C15.0879 22 14.8664 21.7754 14.8425 21.5003C14.5887 18.5784 12.1311 16.2857 9.1368 16.2857C6.14247 16.2857 3.68484 18.5784 3.43112 21.5003C3.40723 21.7754 3.18567 22 2.90952 22H2.00043ZM9.1368 13.4286C5.97248 13.4286 3.40952 10.8714 3.40952 7.71429C3.40952 4.55714 5.97248 2 9.1368 2C12.3011 2 14.8641 4.55714 14.8641 7.71429C14.8641 10.8714 12.3011 13.4286 9.1368 13.4286ZM9.1368 11.5238C11.2463 11.5238 12.955 9.81905 12.955 7.71429C12.955 5.60952 11.2463 3.90476 9.1368 3.90476C7.02725 3.90476 5.31862 5.60952 5.31862 7.71429C5.31862 9.81905 7.02725 11.5238 9.1368 11.5238Z" fill="#4E5058"/>
</svg>
