<svg width="24" height="24" viewBox="0 0 24 24" fill="none" xmlns="http://www.w3.org/2000/svg">
<path d="M11 11H13H16.4C16.7314 11 17 11.2686 17 11.6V12.4C17 12.7314 16.7314 13 16.4 13H13H11H7.6C7.26863 13 7 12.7314 7 12.4V11.6C7 11.2686 7.26863 11 7.6 11H11ZM12 22C6.47715 22 2 17.5228 2 12C2 6.47715 6.47715 2 12 2C17.5228 2 22 6.47715 22 12C22 17.5228 17.5228 22 12 22ZM12 20C16.4183 20 20 16.4183 20 12C20 7.58172 16.4183 4 12 4C7.58172 4 4 7.58172 4 12C4 16.4183 7.58172 20 12 20Z" fill="#4E5058"/>
</svg>
