<svg width="16" height="16" viewBox="0 0 16 16" fill="none" xmlns="http://www.w3.org/2000/svg">
<path d="M0 8C0 3.58172 3.58172 0 8 0C12.4183 0 16 3.58172 16 8C16 12.4183 12.4183 16 8 16C3.58172 16 0 12.4183 0 8Z" fill="#CD65F1"/>
<path fill-rule="evenodd" clip-rule="evenodd" d="M10.3151 9.81196H8.76751L8.78187 9.16816C10.0973 8.81995 11.1033 7.62054 11.1033 6.18899C11.1033 4.48661 9.71046 3.09375 8.00805 3.09375C6.30567 3.09375 4.9128 4.48661 4.9128 6.18899C4.9128 7.62054 5.91878 8.81995 7.23424 9.16816L7.21988 9.81196H5.67227C5.24666 9.81196 4.89844 10.1602 4.89844 10.5858C4.89844 11.0114 5.24666 11.3596 5.67227 11.3596H7.21988V12.1334C7.21988 12.559 7.5681 12.9072 7.9937 12.9072C8.4193 12.9072 8.7675 12.559 8.7675 12.1334V11.3596H10.3151C10.7407 11.3596 11.0889 11.0114 11.0889 10.5858C11.0889 10.1602 10.7407 9.81196 10.3151 9.81196H10.3151ZM6.46044 6.18898C6.46044 5.33779 7.15687 4.64136 8.00805 4.64136C8.85925 4.64136 9.55569 5.33779 9.55569 6.18898C9.55569 7.04017 8.85925 7.7366 8.00805 7.7366C7.15687 7.7366 6.46044 7.04017 6.46044 6.18898Z" fill="white"/>
</svg>
