<svg width="16" height="16" viewBox="0 0 16 16" fill="none" xmlns="http://www.w3.org/2000/svg">
<path d="M2.05733 5.5H13.9416C14.3098 5.5 14.6083 5.79848 14.6083 6.16667C14.6083 6.18513 14.6075 6.2036 14.606 6.222L14.0504 12.8887C14.0216 13.2342 13.7328 13.5 13.386 13.5H2.61288C2.26616 13.5 1.97732 13.2342 1.94852 12.8887L1.39296 6.222C1.36239 5.85511 1.63505 5.53288 2.00196 5.5023C2.02038 5.50077 2.03885 5.5 2.05733 5.5ZM3.22631 12.1667H12.7726L13.2171 6.83333H2.78186L3.22631 12.1667ZM8.94228 2.83333H13.3328C13.701 2.83333 13.9995 3.13181 13.9995 3.5V4.16667H1.99946V2.16667C1.99946 1.79848 2.29794 1.5 2.66613 1.5H7.60895L8.94228 2.83333Z" fill="#4E5058"/>
</svg>
