<svg width="16" height="16" viewBox="0 0 16 16" fill="none" xmlns="http://www.w3.org/2000/svg">
<g clip-path="url(#clip0_397_43016)">
<path d="M6.04 7.6C5.04589 7.6 4.24 6.79408 4.24 5.8C4.24 4.80589 5.04589 4 6.04 4C7.03408 4 7.84 4.80589 7.84 5.8C7.84 6.79408 7.03408 7.6 6.04 7.6ZM6.4 14.1984V11.52C6.4 11.1293 6.51536 10.7702 6.72328 10.4499C6.48696 10.417 6.24545 10.4 6 10.4C4.74561 10.4 3.59495 10.8442 2.69673 11.5838C3.55927 12.8577 4.86874 13.8042 6.4 14.1984ZM1.96229 10.128C3.09146 9.29344 4.4881 8.8 6 8.8C6.8348 8.8 7.63448 8.9504 8.37336 9.22568C9.07576 8.95104 9.91392 8.8 10.8 8.8C12.1278 8.8 13.3479 9.13912 14.1648 9.72504C14.3181 9.17624 14.4 8.59768 14.4 8C14.4 4.46538 11.5346 1.6 8 1.6C4.46538 1.6 1.6 4.46538 1.6 8C1.6 8.746 1.72765 9.46224 1.96229 10.128ZM13.5035 11.2687C13.189 10.8421 12.1366 10.4 10.8 10.4C9.19512 10.4 8 11.0374 8 11.52V14.4C10.3404 14.4 12.3874 13.1437 13.5035 11.2687ZM8 16C3.58172 16 0 12.4182 0 8C0 3.58172 3.58172 0 8 0C12.4182 0 16 3.58172 16 8C16 12.4182 12.4182 16 8 16ZM10.8 8.4C9.91632 8.4 9.2 7.68368 9.2 6.8C9.2 5.91634 9.91632 5.2 10.8 5.2C11.6837 5.2 12.4 5.91634 12.4 6.8C12.4 7.68368 11.6837 8.4 10.8 8.4Z" fill="#4E5058"/>
</g>
<defs>
<clipPath id="clip0_397_43016">
<rect width="16" height="16" fill="white"/>
</clipPath>
</defs>
</svg>
