<svg width="20" height="20" viewBox="0 0 20 20" fill="none" xmlns="http://www.w3.org/2000/svg">
<path fill-rule="evenodd" clip-rule="evenodd" d="M1.51754 2.09441C1.32228 2.28968 1.32228 2.60626 1.51754 2.80152L3.50174 4.78572C2.3548 6.21343 1.66854 8.02701 1.66854 10.0009V15.8342C1.66854 16.7547 2.41474 17.5009 3.33521 17.5009H5.83521C6.75569 17.5009 7.50188 16.7547 7.50188 15.8342V11.6675C7.50188 10.747 6.75569 10.0009 5.83521 10.0009H3.33521C3.33521 8.48754 3.83944 7.09199 4.68906 5.97304L12.5019 13.7859V15.8342C12.5019 16.7547 13.248 17.5009 14.1685 17.5009H16.2169L17.3261 18.6101C17.5214 18.8054 17.838 18.8054 18.0332 18.6101L18.5047 18.1387C18.6999 17.9435 18.6999 17.6269 18.5047 17.4316L2.69605 1.62301C2.50079 1.42775 2.18421 1.42775 1.98895 1.62301L1.51754 2.09441ZM14.5502 15.8342L14.1685 15.4525V15.8342H14.5502ZM14.1685 10.0009C13.9429 10.0009 13.7278 10.0457 13.5315 10.1269L15.0721 11.6675H16.6685V13.264L18.3352 14.9306V10.0009C18.3352 5.39849 14.6042 1.66753 10.0019 1.66753C8.57632 1.66753 7.23437 2.02548 6.061 2.65641L7.30624 3.90166C8.13048 3.53684 9.04251 3.3342 10.0019 3.3342C13.6838 3.3342 16.6685 6.31896 16.6685 10.0009H14.1685ZM3.33521 11.6675V15.8342H5.83521V11.6675H3.33521Z" fill="#4E5058"/>
</svg>
