<svg width="20" height="20" viewBox="0 0 20 20" fill="none" xmlns="http://www.w3.org/2000/svg">
<path d="M10.0013 3.33464C6.3194 3.33464 3.33464 6.3194 3.33464 10.0013H5.83464C6.75511 10.0013 7.5013 10.7475 7.5013 11.668V15.8346C7.5013 16.7551 6.75511 17.5013 5.83464 17.5013H3.33464C2.41416 17.5013 1.66797 16.7551 1.66797 15.8346V10.0013C1.66797 5.39893 5.39893 1.66797 10.0013 1.66797C14.6036 1.66797 18.3346 5.39893 18.3346 10.0013V15.8346C18.3346 16.7551 17.5885 17.5013 16.668 17.5013H14.168C13.2475 17.5013 12.5013 16.7551 12.5013 15.8346V11.668C12.5013 10.7475 13.2475 10.0013 14.168 10.0013H16.668C16.668 6.3194 13.6832 3.33464 10.0013 3.33464ZM3.33464 11.668V15.8346H5.83464V11.668H3.33464ZM14.168 11.668V15.8346H16.668V11.668H14.168Z" fill="#4E5058"/>
</svg>
