<svg width="24" height="24" viewBox="0 0 24 24" fill="none" xmlns="http://www.w3.org/2000/svg">
<path d="M20.5 15C20.7761 15 21 15.2239 21 15.5V18H23.5C23.7761 18 24 18.2239 24 18.5V19.5C24 19.7761 23.7761 20 23.5 20H21V22.5C21 22.7761 20.7761 23 20.5 23H19.5C19.2239 23 19 22.7761 19 22.5V20H16.5C16.2239 20 16 19.7761 16 19.5V18.5C16 18.2239 16.2239 18 16.5 18H19V15.5C19 15.2239 19.2239 15 19.5 15H20.5ZM21.0082 3C21.556 3 22 3.44495 22 3.9934V12.5C22 12.7761 21.7761 13 21.5 13H20.5C20.2239 13 20 12.7761 20 12.5V5H4V18.999L13.6464 9.35352C13.8417 9.15827 14.1583 9.15828 14.3535 9.35354L16.8536 11.8536C16.9473 11.9473 17 12.0745 17 12.2071V13.6217C17 14.0672 16.4614 14.2903 16.1464 13.9752L14 11.8284L6.827 19H13.5C13.7761 19 14 19.2239 14 19.5V20.5C14 20.7761 13.7761 21 13.5 21H2.9918C2.44405 21 2 20.5551 2 20.0066V3.9934C2 3.44476 2.45531 3 2.9918 3H21.0082ZM8 7C9.10457 7 10 7.89543 10 9C10 10.1046 9.10457 11 8 11C6.89543 11 6 10.1046 6 9C6 7.89543 6.89543 7 8 7Z" fill="#4E5058"/>
</svg>
