<svg width="16" height="16" viewBox="0 0 16 16" fill="none" xmlns="http://www.w3.org/2000/svg">
<path d="M11.7702 9.88449L10.8273 8.94169L11.7702 7.99889C12.8116 6.95749 12.8116 5.26906 11.7702 4.22766C10.7288 3.18626 9.0403 3.18626 7.9989 4.22766L7.0561 5.17047L6.11328 4.22766L7.0561 3.28486C8.61816 1.72276 11.1508 1.72276 12.713 3.28486C14.275 4.84695 14.275 7.37962 12.713 8.94169L11.7702 9.88449ZM9.8845 11.7702L8.9417 12.713C7.37963 14.275 4.84695 14.275 3.28485 12.713C1.72276 11.1508 1.72276 8.61816 3.28485 7.05609L4.22766 6.11328L5.17047 7.05609L4.22766 7.99889C3.18626 9.04029 3.18626 10.7288 4.22766 11.7702C5.26906 12.8116 6.9575 12.8116 7.9989 11.7702L8.9417 10.8274L9.8845 11.7702ZM9.8845 5.17047L10.8273 6.11328L6.11328 10.8274L5.17047 9.88449L9.8845 5.17047Z" fill="#4E5058"/>
</svg>
