<svg width="12" height="12" viewBox="0 0 12 12" fill="none" xmlns="http://www.w3.org/2000/svg">
<path d="M9.5 4.77344H10C10.2761 4.77344 10.5 4.99729 10.5 5.27344V10.2734C10.5 10.5496 10.2761 10.7734 10 10.7734H2C1.72386 10.7734 1.5 10.5496 1.5 10.2734V5.27344C1.5 4.99729 1.72386 4.77344 2 4.77344H2.5V4.27344C2.5 2.34044 4.06701 0.773438 6 0.773438C7.933 0.773438 9.5 2.34044 9.5 4.27344V4.77344ZM2.5 5.77344V9.77344H9.5V5.77344H2.5ZM5.5 6.77344H6.5V8.77344H5.5V6.77344ZM8.5 4.77344V4.27344C8.5 2.89273 7.3807 1.77344 6 1.77344C4.61929 1.77344 3.5 2.89273 3.5 4.27344V4.77344H8.5Z" fill="#4E5058"/>
</svg>
