<svg width="16" height="16" viewBox="0 0 16 16" fill="none" xmlns="http://www.w3.org/2000/svg">
<path d="M12.6667 6.36458H13.3333C13.7015 6.36458 14 6.66305 14 7.03125V13.6979C14 14.0661 13.7015 14.3646 13.3333 14.3646H2.66667C2.29848 14.3646 2 14.0661 2 13.6979V7.03125C2 6.66305 2.29848 6.36458 2.66667 6.36458H3.33333V5.69792C3.33333 3.12059 5.42267 1.03125 8 1.03125C10.5773 1.03125 12.6667 3.12059 12.6667 5.69792V6.36458ZM3.33333 7.69792V13.0312H12.6667V7.69792H3.33333ZM7.33333 9.03125H8.66667V11.6979H7.33333V9.03125ZM11.3333 6.36458V5.69792C11.3333 3.85697 9.84093 2.36458 8 2.36458C6.15905 2.36458 4.66667 3.85697 4.66667 5.69792V6.36458H11.3333Z" fill="#4E5058"/>
</svg>
