<svg width="16" height="16" viewBox="0 0 16 16" fill="none" xmlns="http://www.w3.org/2000/svg">
<g clip-path="url(#clip0_397_43058)">
<path d="M3.33333 7.33203H8.66667V8.66536H3.33333V10.6654L0 7.9987L3.33333 5.33203V7.33203ZM2.66618 11.9987H4.47223C5.41241 12.8285 6.64741 13.332 8 13.332C10.9455 13.332 13.3333 10.9442 13.3333 7.9987C13.3333 5.05318 10.9455 2.66536 8 2.66536C6.64741 2.66536 5.41241 3.16888 4.47223 3.9987H2.66618C3.88245 2.37944 5.81891 1.33203 8 1.33203C11.6819 1.33203 14.6667 4.3168 14.6667 7.9987C14.6667 11.6806 11.6819 14.6654 8 14.6654C5.81891 14.6654 3.88245 13.618 2.66618 11.9987Z" fill="#4E5058"/>
</g>
<defs>
<clipPath id="clip0_397_43058">
<rect width="16" height="16" fill="white"/>
</clipPath>
</defs>
</svg>
