<svg width="16" height="16" viewBox="0 0 16 16" fill="none" xmlns="http://www.w3.org/2000/svg">
<path d="M0 8C0 3.58172 3.58172 0 8 0C12.4183 0 16 3.58172 16 8C16 12.4183 12.4183 16 8 16C3.58172 16 0 12.4183 0 8Z" fill="#077AEB"/>
<path fill-rule="evenodd" clip-rule="evenodd" d="M11.3244 3.99609H7.68509C7.28477 3.99609 6.95723 4.32363 6.95723 4.72395C6.95723 5.12427 7.28477 5.45181 7.68509 5.45181H9.57753L8.35279 6.57937C7.91607 6.32462 7.40657 6.17905 6.86067 6.17905C5.25937 6.17905 3.94922 7.4892 3.94922 9.0905C3.94922 10.6918 5.25937 12.002 6.86067 12.002C8.46197 12.002 9.77212 10.6918 9.77212 9.0905C9.77212 8.5446 9.62655 8.0351 9.3718 7.59838L10.5965 6.47082V8.36326C10.5965 8.76358 10.9241 9.09112 11.3244 9.09112C11.7247 9.09112 12.0522 8.76358 12.0522 8.36326V4.72395C12.0522 4.32363 11.7247 3.99609 11.3244 3.99609H11.3244ZM6.86068 10.5462C6.06003 10.5462 5.40496 9.89114 5.40496 9.0905C5.40496 8.28985 6.06004 7.63478 6.86068 7.63478C7.66133 7.63478 8.3164 8.28986 8.3164 9.0905C8.3164 9.89115 7.66132 10.5462 6.86068 10.5462Z" fill="white"/>
</svg>
