<svg width="16" height="16" viewBox="0 0 16 16" fill="none" xmlns="http://www.w3.org/2000/svg">
<path d="M0 8C0 3.58172 3.58172 0 8 0C12.4183 0 16 3.58172 16 8C16 12.4183 12.4183 16 8 16C3.58172 16 0 12.4183 0 8Z" fill="url(#paint0_linear_397_43090)"/>
<path d="M8 5.38132C5.79085 5.38132 4 7.0868 4 9.19065C4 11.2945 5.79085 13 8 13C10.2091 13 12 11.2945 12 9.19065C12 7.0868 10.2091 5.38132 8 5.38132ZM8 7.0479L8.66125 8.32388L10.1399 8.52849L9.06994 9.52173L9.32252 10.9242L8 10.262L6.6775 10.9242L6.93005 9.52173L5.8601 8.52849L7.33875 8.32388L8 7.0479ZM7.5 3L5 3.00048V4.42898L5.6817 4.97065C6.23475 4.69454 6.84875 4.51414 7.49945 4.45255L7.5 3ZM8.5 3L8.50015 4.45251C9.1508 4.51404 9.76477 4.69438 10.3178 4.9704L11 4.42898V3.00048L8.5 3Z" fill="white"/>
<defs>
<linearGradient id="paint0_linear_397_43090" x1="0" y1="8" x2="16" y2="8" gradientUnits="userSpaceOnUse">
<stop stop-color="#077AEB"/>
<stop offset="1" stop-color="#6A67EA"/>
</linearGradient>
</defs>
</svg>
