<svg width="12" height="12" viewBox="0 0 12 12" fill="none" xmlns="http://www.w3.org/2000/svg">
<path d="M5.9999 0.5C7.3806 0.5 8.4999 1.61929 8.4999 3V5C8.4999 6.3807 7.3806 7.5 5.9999 7.5C4.61916 7.5 3.49988 6.3807 3.49988 5V3C3.49988 1.61929 4.61916 0.5 5.9999 0.5ZM1.52734 5.5H2.53532C2.77794 7.19615 4.23664 8.5 5.9999 8.5C7.7631 8.5 9.2218 7.19615 9.46445 5.5H10.4724C10.2418 7.5858 8.5857 9.24195 6.4999 9.47255V11.5H5.4999V9.47255C3.41407 9.24195 1.75792 7.5858 1.52734 5.5Z" fill="#4E5058"/>
</svg>
