<svg width="12" height="12" viewBox="0 0 12 12" fill="none" xmlns="http://www.w3.org/2000/svg">
<g clip-path="url(#clip0_397_43099)">
<path d="M8.211 8.9195C7.695 9.2114 7.1156 9.40435 6.4986 9.47255V11.5H5.4986V9.47255C3.41281 9.24195 1.75665 7.5858 1.52608 5.5H2.53406C2.77667 7.19615 4.23538 8.5 5.9986 8.5C6.5237 8.5 7.02175 8.3844 7.4687 8.1772L6.69365 7.4021C6.473 7.46585 6.2398 7.5 5.9986 7.5C4.6179 7.5 3.49861 6.3807 3.49861 5V4.20711L0.695312 1.40381L1.40242 0.6967L11.3019 10.5962L10.5948 11.3033L8.211 8.9195ZM9.6859 7.5802L8.9647 6.85895C9.2189 6.4542 9.39255 5.9937 9.46315 5.5H10.4711C10.3862 6.2683 10.1079 6.97825 9.6859 7.5802ZM8.23145 6.1257L3.84141 1.7357C4.27567 0.99634 5.0792 0.5 5.9986 0.5C7.37935 0.5 8.4986 1.61929 8.4986 3V5C8.4986 5.40495 8.40235 5.7874 8.23145 6.1257Z" fill="#4E5058"/>
</g>
<defs>
<clipPath id="clip0_397_43099">
<rect width="12" height="12" fill="white"/>
</clipPath>
</defs>
</svg>
