<svg width="20" height="20" viewBox="0 0 20 20" fill="none" xmlns="http://www.w3.org/2000/svg">
<path d="M13.536 14.6681L16.9925 18.1246C17.1878 18.3199 17.5043 18.3199 17.6996 18.1246L18.1227 17.7015C18.3179 17.5063 18.3179 17.1897 18.1227 16.9944L3.00717 1.87888C2.81191 1.68362 2.49533 1.68362 2.30007 1.87888L1.87699 2.30196C1.68173 2.49722 1.68173 2.8138 1.87699 3.00907L6.00403 7.1361V8.40341C6.00403 10.6102 7.79302 12.3992 9.99982 12.3992C10.3853 12.3992 10.7581 12.3446 11.1107 12.2428L12.3495 13.4816C11.6352 13.8128 10.8391 13.9976 9.99982 13.9976C7.33136 13.9976 5.09926 12.1291 4.54041 9.62917C4.48613 9.38637 4.27758 9.20257 4.02878 9.20257H3.40959C3.1117 9.20257 2.87849 9.46214 2.93413 9.75479C3.51782 12.8251 6.05319 15.204 9.20066 15.552V18.2925C9.20066 18.5687 9.42452 18.7925 9.70066 18.7925H10.299C10.5751 18.7925 10.799 18.5687 10.799 18.2925V15.552C11.7852 15.443 12.7112 15.1346 13.536 14.6681ZM9.64235 10.7744C8.60448 10.6193 7.784 9.79883 7.62883 8.76088L9.64235 10.7744ZM15.8933 12.5274L14.7406 11.3746C15.0728 10.8457 15.3189 10.2573 15.4593 9.62899C15.5136 9.38618 15.7221 9.20257 15.9709 9.20257H16.5901C16.888 9.20257 17.1212 9.46195 17.0656 9.75461C16.8724 10.7708 16.4655 11.7112 15.8933 12.5274ZM13.5686 10.2026L12.3311 8.96522C12.3745 8.78501 12.3973 8.59689 12.3973 8.40341V5.20676C12.3973 3.88266 11.324 2.80926 9.99982 2.80926C8.96554 2.80926 8.08421 3.46423 7.74798 4.38203L6.55193 3.18598C7.24602 2.00425 8.53032 1.21094 9.99982 1.21094C12.2067 1.21094 13.9956 2.99993 13.9956 5.20676V8.40341C13.9956 9.05065 13.8418 9.66193 13.5686 10.2026Z" fill="#4E5058"/>
</svg>
