<svg width="20" height="20" viewBox="0 0 20 20" fill="none" xmlns="http://www.w3.org/2000/svg">
<path d="M10.0002 2.80926C8.67603 2.80926 7.60265 3.88266 7.60265 5.20676V8.40341C7.60265 9.72754 8.67603 10.8009 10.0002 10.8009C11.3242 10.8009 12.3977 9.72754 12.3977 8.40341V5.20676C12.3977 3.88266 11.3242 2.80926 10.0002 2.80926ZM10.0002 1.21094C12.207 1.21094 13.996 2.99993 13.996 5.20676V8.40341C13.996 10.6102 12.207 12.3992 10.0002 12.3992C7.7933 12.3992 6.00432 10.6102 6.00432 8.40341V5.20676C6.00432 2.99993 7.7933 1.21094 10.0002 1.21094ZM2.93442 9.75479C2.87879 9.46214 3.11199 9.20257 3.40988 9.20257H4.02907C4.27787 9.20257 4.48642 9.38637 4.5407 9.62916C5.09955 12.1291 7.33165 13.9976 10.0002 13.9976C12.6686 13.9976 14.9007 12.1291 15.4596 9.62916C15.5139 9.38636 15.7224 9.20257 15.9712 9.20257H16.5904C16.8883 9.20257 17.1215 9.46213 17.0658 9.75478C16.4822 12.8251 13.9468 15.204 10.7993 15.552V18.2925C10.7993 18.5687 10.5755 18.7925 10.2993 18.7925H9.701C9.42486 18.7925 9.201 18.5687 9.201 18.2925V15.552C6.05348 15.204 3.51811 12.8251 2.93442 9.75479Z" fill="#4E5058"/>
</svg>
