<svg width="32" height="32" viewBox="0 0 32 32" fill="none" xmlns="http://www.w3.org/2000/svg">
<rect width="32" height="32" rx="16" fill="#FF9B27"/>
<path d="M22.668 20.168H23.8346C24.1108 20.168 24.3346 20.3918 24.3346 20.668V21.3346C24.3346 21.6108 24.1108 21.8346 23.8346 21.8346H8.16797C7.89183 21.8346 7.66797 21.6108 7.66797 21.3346V20.668C7.66797 20.3918 7.89183 20.168 8.16797 20.168H9.33464V14.3346C9.33464 10.6527 12.3194 7.66797 16.0013 7.66797C19.6832 7.66797 22.668 10.6527 22.668 14.3346V20.168ZM13.5013 24.0013C13.5013 23.7252 13.7252 23.5013 14.0013 23.5013H18.0013C18.2774 23.5013 18.5013 23.7252 18.5013 24.0013V24.668C18.5013 24.9441 18.2774 25.168 18.0013 25.168H14.0013C13.7252 25.168 13.5013 24.9441 13.5013 24.668V24.0013Z" fill="white"/>
</svg>
