<svg width="32" height="32" viewBox="0 0 32 32" fill="none" xmlns="http://www.w3.org/2000/svg">
<path d="M16.1444 18.8177C16.3672 18.8646 16.5206 19.0651 16.5206 19.2927V20.402C16.5206 20.7478 16.177 20.99 15.8401 20.9118C15.3878 20.8068 14.9168 20.7513 14.4329 20.7513C11.1403 20.7513 8.44106 23.3206 8.18898 26.5847C8.16772 26.86 7.94589 27.0846 7.66975 27.0846H6.58203C6.30589 27.0846 6.08051 26.8603 6.09643 26.5846C6.35233 22.1536 9.98686 18.6402 14.4329 18.6402C15.0195 18.6402 15.592 18.7013 16.1444 18.8177ZM14.4329 17.5846C10.9725 17.5846 8.16975 14.7505 8.16975 11.2513C8.16975 7.75214 10.9725 4.91797 14.4329 4.91797C17.8933 4.91797 20.6961 7.75214 20.6961 11.2513C20.6961 14.7505 17.8933 17.5846 14.4329 17.5846ZM14.4329 15.4735C16.7398 15.4735 18.6083 13.5841 18.6083 11.2513C18.6083 8.91852 16.7398 7.02908 14.4329 7.02908C12.126 7.02908 10.2575 8.91852 10.2575 11.2513C10.2575 13.5841 12.126 15.4735 14.4329 15.4735Z" fill="#4E5058" stroke="#4E5058" stroke-width="0.5"/>
<path d="M14.0077 27.6778H12.8265C12.7267 27.6778 12.6532 27.6568 12.606 27.6148C12.564 27.5676 12.543 27.4941 12.543 27.3943V22.2913C12.543 22.1916 12.564 22.1207 12.606 22.0787C12.6532 22.0314 12.7267 22.0078 12.8265 22.0078H13.6455C13.7452 22.0078 13.8292 22.0236 13.8975 22.0551C13.971 22.0866 14.0418 22.1417 14.1101 22.2204L15.6378 23.9687V22.2913C15.6378 22.1916 15.6588 22.1207 15.7008 22.0787C15.7481 22.0314 15.8216 22.0078 15.9213 22.0078H17.1026C17.2023 22.0078 17.2732 22.0314 17.3152 22.0787C17.3625 22.1207 17.3861 22.1916 17.3861 22.2913V27.3943C17.3861 27.4941 17.3625 27.5676 17.3152 27.6148C17.2732 27.6568 17.2023 27.6778 17.1026 27.6778H15.9213C15.8216 27.6778 15.7481 27.6568 15.7008 27.6148C15.6588 27.5676 15.6378 27.4941 15.6378 27.3943V26.4257L14.2912 24.7956V27.3943C14.2912 27.4941 14.2676 27.5676 14.2203 27.6148C14.1783 27.6568 14.1075 27.6778 14.0077 27.6778Z" fill="#4E5058"/>
<path d="M22.4098 27.6778H18.7558C18.656 27.6778 18.5825 27.6568 18.5353 27.6148C18.4933 27.5676 18.4723 27.4941 18.4723 27.3943V22.2913C18.4723 22.1916 18.4933 22.1207 18.5353 22.0787C18.5825 22.0314 18.656 22.0078 18.7558 22.0078H22.4098C22.5095 22.0078 22.5804 22.0314 22.6224 22.0787C22.6697 22.1207 22.6933 22.1916 22.6933 22.2913V23.2127C22.6933 23.3124 22.6697 23.3859 22.6224 23.4332C22.5804 23.4752 22.5095 23.4962 22.4098 23.4962H20.2363V24.1026H21.7719C21.8717 24.1026 21.9425 24.1262 21.9845 24.1734C22.0318 24.2154 22.0554 24.2863 22.0554 24.3861V25.2287C22.0554 25.3284 22.0318 25.4019 21.9845 25.4492C21.9425 25.4912 21.8717 25.5122 21.7719 25.5122H20.2363V26.1894H22.4098C22.5095 26.1894 22.5804 26.2131 22.6224 26.2603C22.6697 26.3023 22.6933 26.3732 22.6933 26.4729V27.3943C22.6933 27.4941 22.6697 27.5676 22.6224 27.6148C22.5804 27.6568 22.5095 27.6778 22.4098 27.6778Z" fill="#4E5058"/>
<path d="M27.6963 22.0078H28.8696C28.9694 22.0078 29.0403 22.0314 29.0823 22.0787C29.1295 22.1207 29.1531 22.1916 29.1531 22.2913V25.3468C29.1531 25.5148 29.1453 25.6723 29.1295 25.8193C29.119 25.9611 29.0796 26.1291 29.0114 26.3233L28.6176 27.3943C28.5914 27.4731 28.552 27.5413 28.4995 27.5991C28.4523 27.6516 28.3866 27.6778 28.3026 27.6778H27.2553C27.1713 27.6778 27.0951 27.6594 27.0269 27.6227C26.9586 27.5859 26.914 27.5256 26.893 27.4416L26.5308 26.1579C26.515 26.1054 26.494 26.0713 26.4678 26.0556C26.4468 26.0346 26.4205 26.0241 26.389 26.0241H26.3181C26.2866 26.0241 26.2578 26.0346 26.2315 26.0556C26.2105 26.0713 26.1921 26.1054 26.1764 26.1579L25.8063 27.4416C25.7853 27.5203 25.7459 27.5807 25.6881 27.6227C25.6304 27.6594 25.5595 27.6778 25.4755 27.6778H24.436C24.352 27.6778 24.2785 27.6516 24.2155 27.5991C24.1578 27.5466 24.1158 27.4783 24.0895 27.3943L23.6958 26.3076C23.6275 26.1133 23.5855 25.9453 23.5698 25.8036C23.5593 25.6566 23.554 25.4991 23.554 25.3311V22.2913C23.554 22.1916 23.575 22.1207 23.617 22.0787C23.6643 22.0314 23.7378 22.0078 23.8375 22.0078H25.0503C25.15 22.0078 25.2209 22.0314 25.2629 22.0787C25.3101 22.1207 25.3338 22.1916 25.3338 22.2913V25.1893L25.7905 24.1971C25.8325 24.1078 25.8876 24.0448 25.9559 24.0081C26.0241 23.9713 26.1081 23.9529 26.2079 23.9529H26.5386C26.6384 23.9529 26.7224 23.9713 26.7906 24.0081C26.8589 24.0448 26.914 24.1078 26.956 24.1971L27.4128 25.1893V22.2913C27.4128 22.1916 27.4338 22.1207 27.4758 22.0787C27.523 22.0314 27.5965 22.0078 27.6963 22.0078Z" fill="#4E5058"/>
</svg>
