<svg width="24" height="24" viewBox="0 0 24 24" fill="none" xmlns="http://www.w3.org/2000/svg">
<path fill-rule="evenodd" clip-rule="evenodd" d="M2 12C2 17.5228 6.47715 22 12 22C17.5228 22 22 17.5228 22 12C22 6.47715 17.5228 2 12 2C6.47715 2 2 6.47715 2 12ZM20 12C20 16.4183 16.4183 20 12 20C7.58172 20 4 16.4183 4 12C4 7.58172 7.58172 4 12 4C16.4183 4 20 7.58172 20 12ZM14.4748 8.11129C14.67 7.91603 14.9866 7.91603 15.1819 8.11129L15.889 8.8184C16.0842 9.01366 16.0842 9.33024 15.889 9.5255L13.414 12.0004L15.8891 14.4755C16.0843 14.6707 16.0843 14.9873 15.8891 15.1826L15.182 15.8897C14.9867 16.0849 14.6701 16.0849 14.4749 15.8897L11.9998 13.4147L9.52502 15.8895C9.32975 16.0847 9.01317 16.0847 8.81791 15.8895L8.1108 15.1824C7.91554 14.9871 7.91554 14.6705 8.1108 14.4753L10.5856 12.0004L8.1109 9.52572C7.91563 9.33046 7.91563 9.01388 8.1109 8.81862L8.818 8.11151C9.01326 7.91625 9.32985 7.91625 9.52511 8.11151L11.9998 10.5862L14.4748 8.11129Z" fill="#4E5058"/>
</svg>
