<svg width="24" height="24" viewBox="0 0 24 24" fill="none" xmlns="http://www.w3.org/2000/svg">
<path d="M18.2385 19.1566H4.4189C4.15727 19.1566 3.94517 18.9445 3.94517 18.6829C3.94517 18.5804 3.97841 18.4806 4.03991 18.3987L4.4189 17.8933V9.68191C4.4189 8.42191 4.72633 7.23375 5.27025 6.18831L1.94922 2.86728L3.28914 1.52734L22.0481 20.2863L20.7082 21.6263L18.2385 19.1566ZM6.70005 7.61811C6.45069 8.25785 6.31385 8.95389 6.31385 9.68191V17.2617H16.3436L6.70005 7.61811ZM19.5784 15.1638L17.6835 13.2689V9.68191C17.6835 6.54222 15.1383 3.99704 11.9987 3.99704C10.9674 3.99704 10.0003 4.27163 9.16643 4.75171L7.79099 3.37628C8.99476 2.5714 10.442 2.10209 11.9987 2.10209C16.1849 2.10209 19.5784 5.49567 19.5784 9.68191V15.1638ZM9.63 20.1041H14.3673C14.3673 21.4123 13.3068 22.4728 11.9987 22.4728C10.6905 22.4728 9.63 21.4123 9.63 20.1041Z" fill="#4E5058"/>
</svg>
