<svg width="24" height="24" viewBox="0 0 24 24" fill="none" xmlns="http://www.w3.org/2000/svg">
<path d="M17.6837 9.68135C17.6837 6.5417 15.1385 3.99651 11.9988 3.99651C8.85918 3.99651 6.314 6.5417 6.314 9.68135V17.2611H17.6837V9.68135ZM19.5786 17.8928L19.9576 18.3981C20.1146 18.6074 20.0722 18.9043 19.8629 19.0613C19.7809 19.1228 19.6811 19.1561 19.5786 19.1561H4.41905C4.15741 19.1561 3.94531 18.9439 3.94531 18.6823C3.94531 18.5798 3.97856 18.4801 4.04006 18.3981L4.41905 17.8928V9.68135C4.41905 5.49515 7.81263 2.10156 11.9988 2.10156C16.1851 2.10156 19.5786 5.49515 19.5786 9.68135V17.8928ZM9.63015 20.1036H14.3675C14.3675 21.4117 13.307 22.4722 11.9988 22.4722C10.6907 22.4722 9.63015 21.4117 9.63015 20.1036Z" fill="#4E5058"/>
</svg>
