<svg width="16" height="16" viewBox="0 0 16 16" fill="none" xmlns="http://www.w3.org/2000/svg">
<path d="M13.3346 1.33594C14.4392 1.33594 15.3346 2.23137 15.3346 3.33594V4.66927H14.0013V12.6693C14.0013 13.7739 13.1059 14.6693 12.0013 14.6693H2.66797C1.5634 14.6693 0.667969 13.7739 0.667969 12.6693V11.3359H11.3346V12.6693C11.3346 13.0111 11.592 13.2929 11.9236 13.3315L12.0013 13.3359C12.3432 13.3359 12.625 13.0786 12.6635 12.747L12.668 12.6693V2.66927H4.0013C3.65941 2.66927 3.37763 2.92663 3.33912 3.25819L3.33464 3.33594V10.0026H2.0013V3.33594C2.0013 2.23137 2.89674 1.33594 4.0013 1.33594H13.3346Z" fill="#4E5058"/>
<rect x="8.5" y="0.5" width="7" height="7" rx="3.5" fill="#EE4E4B" stroke="#F2F3F5"/>
</svg>
