<svg width="12" height="17" viewBox="0 0 12 17" fill="none" xmlns="http://www.w3.org/2000/svg">
<path d="M9.19735 2.5H2.78939C2.33831 2.5 2 2.8425 2 3.24105V13.759C2 14.1824 2.36484 14.5 2.78939 14.5H9.19071C9.64179 14.5 10 14.1575 10 13.759V3.24105C9.98673 2.83627 9.64179 2.5 9.19735 2.5ZM5.99337 13.7776C5.54229 13.7776 5.20398 13.4351 5.20398 13.0366C5.20398 12.6131 5.56882 12.2955 5.99337 12.2955C6.44444 12.2955 6.80265 12.638 6.80265 13.0366C6.78275 13.4414 6.44444 13.7776 5.99337 13.7776ZM9.19735 11.5171H2.78939V4.00078H9.19071V11.5171H9.19735Z" fill="#23A559"/>
<path d="M9.19071 11.5171H2.78939V4.00078H9.19071V11.5171Z" fill="white"/>
<path d="M11 3.24105V3.22466L10.9995 3.20829C10.9676 2.23632 10.1529 1.5 9.19735 1.5H2.78939C1.82404 1.5 1 2.25296 1 3.24105V13.759C1 14.8143 1.89569 15.5 2.78939 15.5H9.19071C10.1225 15.5 11 14.7787 11 13.759V3.24105ZM5.99337 12.7776C6.05319 12.7776 6.18851 12.8385 6.20276 13.0071L5.99337 12.9968L5.80386 12.9875C5.81077 12.8469 5.92421 12.7776 5.99337 12.7776ZM6.20398 13.0366C6.20398 13.1259 6.16177 13.2017 6.1154 13.2442C6.07374 13.2824 6.02937 13.2955 5.99337 13.2955C5.96334 13.2955 5.92352 13.2836 5.8869 13.2496C5.85137 13.2166 5.80265 13.1446 5.80265 13.0366H5.99337H6.20398Z" stroke="#F2F3F5" stroke-width="2"/>
</svg>
