<svg width="16" height="16" viewBox="0 0 16 16" fill="none" xmlns="http://www.w3.org/2000/svg">
<path fill-rule="evenodd" clip-rule="evenodd" d="M10.7553 11.8611C11.2091 12.4899 11.9871 12.8672 12.8299 12.8672C13.6079 12.8672 14.321 12.5528 14.8397 12.0497C15.3583 11.4838 15.5528 10.7921 15.488 10.0375L14.8397 5.19569C14.5803 3.1835 12.6354 1.67436 10.5608 1.92589L8.22691 2.17741H7.64343L5.37435 1.92589C3.29976 1.67436 1.35483 3.18351 1.16034 5.13281L0.512032 9.97464C0.447201 10.7292 0.641694 11.4209 1.16034 11.9868C1.61416 12.5528 2.3273 12.8672 3.10527 12.8672C3.88324 12.8672 4.66121 12.4899 5.17986 11.8611L5.95783 10.9178C6.15232 10.6034 6.60614 10.4148 6.99512 10.4148H8.61589C9.00488 10.4148 9.2642 10.1633 9.2642 9.78599C9.2642 9.40871 9.00488 9.15718 8.61589 9.15718H7.05995C6.28198 9.15718 5.50401 9.53447 4.98536 10.1633L4.20739 11.1065C3.68875 11.7353 2.65145 11.7353 2.1328 11.1694C1.87348 10.9178 1.74382 10.5406 1.80865 10.1633L2.45696 5.32145C2.65145 3.93807 3.88324 2.99486 5.30952 3.12062L7.5786 3.37215H8.4214L10.6905 3.12062C12.1168 2.99486 13.3485 3.93807 13.543 5.32145L14.1913 10.1633C14.2562 10.5406 14.1265 10.855 13.8672 11.1694C13.3485 11.7982 12.2464 11.7353 11.7926 11.1065L11.4036 10.6034C11.2091 10.3519 10.7553 10.289 10.496 10.4777C10.2367 10.6663 10.1718 11.1065 10.3663 11.358L10.7553 11.8611ZM6.74326 7.26882C6.9874 7.26882 7.18597 7.06942 7.18597 6.82223V6.48605C7.18597 6.23721 6.9874 6.03781 6.74326 6.03781H5.63812V4.91885C5.63812 4.67166 5.43955 4.47061 5.19541 4.47061H4.86338C4.61924 4.47061 4.42067 4.67166 4.42067 4.91885V6.03781H3.31553C3.07139 6.03781 2.87282 6.23886 2.87282 6.48605V6.82223C2.87282 7.06942 3.07139 7.26882 3.31553 7.26882H4.42067V8.38942C4.42067 8.63826 4.61924 8.83766 4.86338 8.83766H5.19541C5.43955 8.83766 5.63812 8.63661 5.63812 8.38942V7.26882H6.74326ZM9.47275 7.54897C9.47275 8.01369 9.84385 8.38942 10.3012 8.38942C10.7586 8.38942 11.1297 8.01369 11.1297 7.54897C11.1297 7.0859 10.7586 6.71017 10.3012 6.71017C9.84385 6.71017 9.47275 7.0859 9.47275 7.54897ZM11.8214 6.52395C11.3689 6.52395 11.0011 6.15151 11.0011 5.69339C11.0011 5.23526 11.3689 4.86447 11.8214 4.86447C12.2739 4.86447 12.6417 5.23691 12.6417 5.69339C12.6401 6.15151 12.2739 6.52395 11.8214 6.52395Z" fill="#4E5058"/>
<path d="M10.7553 11.8611L10.9581 11.7147L10.9531 11.7081L10.7553 11.8611ZM14.8397 12.0497L15.0137 12.2292L15.019 12.224L15.024 12.2186L14.8397 12.0497ZM15.488 10.0375L15.7373 10.0161L15.7358 10.0043L15.488 10.0375ZM14.8397 5.19569L14.5917 5.22765L14.5919 5.22887L14.8397 5.19569ZM10.5608 1.92589L10.5876 2.17447L10.5909 2.17407L10.5608 1.92589ZM8.22691 2.17741V2.42741H8.24034L8.2537 2.42597L8.22691 2.17741ZM7.64343 2.17741L7.61589 2.42589L7.62962 2.42741H7.64343V2.17741ZM5.37435 1.92589L5.34426 2.17408L5.34681 2.17437L5.37435 1.92589ZM1.16034 5.13281L1.40827 5.16601L1.40911 5.15763L1.16034 5.13281ZM0.512032 9.97464L0.263965 9.94142L0.26295 9.95323L0.512032 9.97464ZM1.16034 11.9868L1.35538 11.8304L1.35022 11.824L1.34465 11.8179L1.16034 11.9868ZM5.17986 11.8611L5.37272 12.0201H5.37272L5.17986 11.8611ZM5.95783 10.9178L6.15069 11.0769L6.1615 11.0638L6.17043 11.0494L5.95783 10.9178ZM4.98536 10.1633L4.7925 10.0042H4.7925L4.98536 10.1633ZM4.20739 11.1065L4.40025 11.2656L4.20739 11.1065ZM2.1328 11.1694L2.31711 11.0005L2.31214 10.995L2.30686 10.9899L2.1328 11.1694ZM1.80865 10.1633L2.05521 10.2056L2.05644 10.1965L1.80865 10.1633ZM2.45696 5.32145L2.20939 5.28665L2.20917 5.28827L2.45696 5.32145ZM5.30952 3.12062L5.33707 2.87208L5.33148 2.87159L5.30952 3.12062ZM7.5786 3.37215L7.55106 3.62063L7.56479 3.62215H7.5786V3.37215ZM8.4214 3.37215V3.62215H8.43521L8.44894 3.62063L8.4214 3.37215ZM10.6905 3.12062L10.6685 2.87153L10.6629 2.87215L10.6905 3.12062ZM13.543 5.32145L13.7908 5.28827L13.7906 5.28665L13.543 5.32145ZM14.1913 10.1633L13.9434 10.1965L13.945 10.2056L14.1913 10.1633ZM13.8672 11.1694L13.6743 11.0103L13.8672 11.1694ZM11.7926 11.1065L11.9954 10.9601L11.9904 10.9536L11.7926 11.1065ZM11.4036 10.6034L11.6014 10.4505V10.4505L11.4036 10.6034ZM10.496 10.4777L10.6431 10.6798V10.6798L10.496 10.4777ZM10.3663 11.358L10.5641 11.2051L10.3663 11.358ZM5.63812 6.03781H5.38812V6.28781H5.63812V6.03781ZM4.42067 6.03781V6.28781H4.67067V6.03781H4.42067ZM4.42067 7.26882H4.67067V7.01882H4.42067V7.26882ZM5.63812 7.26882V7.01882H5.38812V7.26882H5.63812ZM12.6417 5.69339L12.8917 5.69427V5.69339H12.6417ZM12.8299 12.6172C12.0593 12.6172 11.3603 12.2721 10.958 11.7148L10.5526 12.0074C11.058 12.7076 11.9149 13.1172 12.8299 13.1172V12.6172ZM14.6656 11.8702C14.1913 12.3303 13.5397 12.6172 12.8299 12.6172V13.1172C13.676 13.1172 14.4507 12.7752 15.0137 12.2292L14.6656 11.8702ZM15.2389 10.0589C15.2986 10.7535 15.1205 11.3732 14.6554 11.8808L15.024 12.2186C15.5961 11.5944 15.807 10.8307 15.7371 10.0161L15.2389 10.0589ZM14.5919 5.22887L15.2402 10.0707L15.7358 10.0043L15.0874 5.16251L14.5919 5.22887ZM10.5909 2.17407C12.532 1.93873 14.3503 3.35453 14.5917 5.22765L15.0876 5.16374C14.8104 3.01248 12.7388 1.41 10.5307 1.67771L10.5909 2.17407ZM8.2537 2.42597L10.5876 2.17445L10.534 1.67733L8.20012 1.92885L8.2537 2.42597ZM7.64343 2.42741H8.22691V1.92741H7.64343V2.42741ZM5.34681 2.17437L7.61589 2.42589L7.67097 1.92893L5.40189 1.67741L5.34681 2.17437ZM1.40911 5.15763C1.58866 3.35803 3.39835 1.93815 5.34426 2.17407L5.40444 1.67771C3.20117 1.41058 1.12101 3.00898 0.911576 5.10799L1.40911 5.15763ZM0.759821 10.0078L1.40813 5.16599L0.912552 5.09963L0.264243 9.94146L0.759821 10.0078ZM1.34465 11.8179C0.879455 11.3103 0.701441 10.6906 0.761114 9.99604L0.26295 9.95323C0.192961 10.7678 0.403933 11.5315 0.976033 12.1557L1.34465 11.8179ZM3.10527 12.6172C2.39365 12.6172 1.75611 12.3301 1.35538 11.8304L0.965305 12.1432C1.47221 12.7754 2.26095 13.1172 3.10527 13.1172V12.6172ZM4.98699 11.702C4.51323 12.2764 3.8046 12.6172 3.10527 12.6172V13.1172C3.96188 13.1172 4.80919 12.7034 5.37272 12.0201L4.98699 11.702ZM5.76497 10.7588L4.98699 11.702L5.37272 12.0201L6.15069 11.0769L5.76497 10.7588ZM6.99512 10.1648C6.76278 10.1648 6.51629 10.2205 6.29834 10.3216C6.08175 10.4221 5.87532 10.576 5.74522 10.7863L6.17043 11.0494C6.23483 10.9453 6.35255 10.8477 6.50874 10.7752C6.66356 10.7034 6.83848 10.6648 6.99512 10.6648V10.1648ZM8.61589 10.1648H6.99512V10.6648H8.61589V10.1648ZM9.0142 9.78599C9.0142 9.91549 8.971 10.0051 8.91186 10.0624C8.85203 10.1205 8.75582 10.1648 8.61589 10.1648V10.6648C8.86495 10.6648 9.09289 10.5834 9.25997 10.4213C9.42774 10.2586 9.5142 10.0338 9.5142 9.78599H9.0142ZM8.61589 9.40718C8.75582 9.40718 8.85203 9.45153 8.91186 9.50956C8.971 9.56693 9.0142 9.6565 9.0142 9.78599H9.5142C9.5142 9.5382 9.42774 9.31337 9.25997 9.15065C9.09289 8.9886 8.86495 8.90718 8.61589 8.90718V9.40718ZM7.05995 9.40718H8.61589V8.90718H7.05995V9.40718ZM5.17822 10.3224C5.65199 9.74796 6.36062 9.40718 7.05995 9.40718V8.90718C6.20334 8.90718 5.35603 9.32098 4.7925 10.0042L5.17822 10.3224ZM4.40025 11.2656L5.17823 10.3224L4.7925 10.0042L4.01453 10.9474L4.40025 11.2656ZM1.9485 11.3383C2.26386 11.6824 2.72622 11.845 3.17515 11.8359C3.62531 11.8268 4.08761 11.6446 4.40025 11.2656L4.01453 10.9474C3.80852 11.1972 3.49285 11.3294 3.16505 11.336C2.83601 11.3427 2.5204 11.2223 2.31711 11.0005L1.9485 11.3383ZM1.56226 10.1209C1.48334 10.5802 1.64065 11.0403 1.95875 11.3488L2.30686 10.9899C2.10631 10.7954 2.0043 10.5009 2.05504 10.2056L1.56226 10.1209ZM2.20917 5.28827L1.56086 10.1301L2.05644 10.1965L2.70475 5.35463L2.20917 5.28827ZM5.33148 2.87159C3.77984 2.73478 2.4234 3.7645 2.20939 5.28665L2.70452 5.35626C2.87951 4.11165 3.98664 3.25495 5.28756 3.36966L5.33148 2.87159ZM7.60614 3.12367L5.33706 2.87215L5.28197 3.3691L7.55106 3.62063L7.60614 3.12367ZM8.4214 3.12215H7.5786V3.62215H8.4214V3.12215ZM10.6629 2.87215L8.39386 3.12367L8.44894 3.62063L10.718 3.3691L10.6629 2.87215ZM13.7906 5.28665C13.5766 3.7645 12.2202 2.73478 10.6685 2.87159L10.7124 3.36966C12.0134 3.25495 13.1205 4.11165 13.2955 5.35626L13.7906 5.28665ZM14.4391 10.1301L13.7908 5.28827L13.2953 5.35463L13.9436 10.1965L14.4391 10.1301ZM14.0601 11.3284C14.3478 10.9796 14.519 10.5937 14.4377 10.1209L13.945 10.2056C13.9934 10.4874 13.9053 10.7303 13.6743 11.0103L14.0601 11.3284ZM11.5899 11.2528C11.8707 11.6419 12.3386 11.8412 12.7957 11.8593C13.2541 11.8775 13.7412 11.715 14.0601 11.3284L13.6743 11.0103C13.4745 11.2526 13.1513 11.373 12.8155 11.3597C12.4784 11.3464 12.1683 11.1999 11.9953 10.9602L11.5899 11.2528ZM11.2059 10.7564L11.5948 11.2594L11.9904 10.9536L11.6014 10.4505L11.2059 10.7564ZM10.6431 10.6798C10.7081 10.6325 10.8169 10.6061 10.9398 10.6231C11.0629 10.6402 11.1584 10.695 11.2059 10.7564L11.6014 10.4505C11.4544 10.2604 11.2256 10.158 11.0084 10.1279C10.791 10.0977 10.5432 10.1342 10.3489 10.2755L10.6431 10.6798ZM10.5641 11.2051C10.5174 11.1448 10.4915 11.0447 10.5083 10.9307C10.5251 10.8169 10.579 10.7264 10.6431 10.6798L10.3489 10.2755C10.1536 10.4176 10.0455 10.6415 10.0136 10.8578C9.98181 11.074 10.0207 11.3198 10.1686 11.5109L10.5641 11.2051ZM10.9531 11.7081L10.5641 11.2051L10.1686 11.5109L10.5575 12.014L10.9531 11.7081ZM6.93597 6.82223C6.93597 6.93308 6.84761 7.01882 6.74326 7.01882V7.51882C7.1272 7.51882 7.43597 7.20576 7.43597 6.82223H6.93597ZM6.93597 6.48605V6.82223H7.43597V6.48605H6.93597ZM6.74326 6.28781C6.84701 6.28781 6.93597 6.37294 6.93597 6.48605H7.43597C7.43597 6.10147 7.12779 5.78781 6.74326 5.78781V6.28781ZM5.63812 6.28781H6.74326V5.78781H5.63812V6.28781ZM5.38812 4.91885V6.03781H5.88812V4.91885H5.38812ZM5.19541 4.72061C5.29856 4.72061 5.38812 4.8068 5.38812 4.91885H5.88812C5.88812 4.53653 5.58054 4.22061 5.19541 4.22061V4.72061ZM4.86338 4.72061H5.19541V4.22061H4.86338V4.72061ZM4.67067 4.91885C4.67067 4.8068 4.76023 4.72061 4.86338 4.72061V4.22061C4.47825 4.22061 4.17067 4.53653 4.17067 4.91885H4.67067ZM4.67067 6.03781V4.91885H4.17067V6.03781H4.67067ZM3.31553 6.28781H4.42067V5.78781H3.31553V6.28781ZM3.12282 6.48605C3.12282 6.37399 3.21238 6.28781 3.31553 6.28781V5.78781C2.9304 5.78781 2.62282 6.10372 2.62282 6.48605H3.12282ZM3.12282 6.82223V6.48605H2.62282V6.82223H3.12282ZM3.31553 7.01882C3.21118 7.01882 3.12282 6.93308 3.12282 6.82223H2.62282C2.62282 7.20576 2.93159 7.51882 3.31553 7.51882V7.01882ZM4.42067 7.01882H3.31553V7.51882H4.42067V7.01882ZM4.67067 8.38942V7.26882H4.17067V8.38942H4.67067ZM4.86338 8.58766C4.75963 8.58766 4.67067 8.50253 4.67067 8.38942H4.17067C4.17067 8.774 4.47884 9.08766 4.86338 9.08766V8.58766ZM5.19541 8.58766H4.86338V9.08766H5.19541V8.58766ZM5.38812 8.38942C5.38812 8.50148 5.29856 8.58766 5.19541 8.58766V9.08766C5.58054 9.08766 5.88812 8.77175 5.88812 8.38942H5.38812ZM5.38812 7.26882V8.38942H5.88812V7.26882H5.38812ZM6.74326 7.01882H5.63812V7.51882H6.74326V7.01882ZM10.3012 8.13942C9.98515 8.13942 9.72275 7.87888 9.72275 7.54897H9.22275C9.22275 8.1485 9.70254 8.63942 10.3012 8.63942V8.13942ZM10.8797 7.54897C10.8797 7.87888 10.6173 8.13942 10.3012 8.13942V8.63942C10.8999 8.63942 11.3797 8.1485 11.3797 7.54897H10.8797ZM10.3012 6.96017C10.6176 6.96017 10.8797 7.22103 10.8797 7.54897H11.3797C11.3797 6.95076 10.8995 6.46017 10.3012 6.46017V6.96017ZM9.72275 7.54897C9.72275 7.22103 9.98484 6.96017 10.3012 6.96017V6.46017C9.70286 6.46017 9.22275 6.95076 9.22275 7.54897H9.72275ZM10.7511 5.69339C10.7511 6.28665 11.2279 6.77395 11.8214 6.77395V6.27395C11.5099 6.27395 11.2511 6.01638 11.2511 5.69339H10.7511ZM11.8214 4.61447C11.2286 4.61447 10.7511 5.09947 10.7511 5.69339H11.2511C11.2511 5.37104 11.5093 5.11447 11.8214 5.11447V4.61447ZM12.8917 5.69339C12.8917 5.10145 12.4145 4.61447 11.8214 4.61447V5.11447C12.1332 5.11447 12.3917 5.37237 12.3917 5.69339H12.8917ZM11.8214 6.77395C12.4156 6.77395 12.8896 6.28603 12.8917 5.69427L12.3917 5.6925C12.3905 6.017 12.1321 6.27395 11.8214 6.27395V6.77395Z" fill="#4E5058"/>
</svg>
