<svg width="16" height="16" viewBox="0 0 16 16" fill="none" xmlns="http://www.w3.org/2000/svg">
<path d="M0 8C0 3.58172 3.58172 0 8 0C12.4183 0 16 3.58172 16 8C16 12.4183 12.4183 16 8 16C3.58172 16 0 12.4183 0 8Z" fill="url(#paint0_linear_397_43088)"/>
<path d="M13.267 7.48408C12.728 5.06221 11.9668 4.46471 11.5039 4.22547C10.7623 3.84145 9.90167 4.06475 9.61683 4.20952C9.2927 4.3727 9.07416 4.68432 8.74512 4.81928C8.36451 4.9751 7.84639 5.01681 7.45719 4.8291C7.14657 4.67942 6.87277 4.3592 6.49708 4.21688C6.0207 4.03653 5.22634 3.78502 4.4418 4.33589C4.25518 4.46717 2.93042 5.55419 2.53385 8.95266C2.28829 11.0482 3.46081 11.7217 3.41784 11.6911C3.71987 11.9033 4.39514 12.2603 5.31105 11.6997C5.92248 11.3255 6.41973 10.5844 6.41973 10.5844C6.41973 10.5844 6.64073 10.1722 6.93539 9.99797C7.14288 9.87405 7.45474 9.96852 7.45474 9.96852H8.55604C8.55604 9.96852 8.90596 9.92558 9.15028 10.0311C9.38847 10.1329 9.52352 10.3844 9.52352 10.3844C9.52352 10.3844 10.2491 11.3034 10.944 11.7708C11.2399 11.9696 12.4296 12.199 13.0448 11.4641C13.4438 10.9844 13.7176 9.50599 13.267 7.48408ZM7.38598 7.26937C7.38598 7.45341 7.23619 7.60186 7.05203 7.60186H6.21837V8.43614C6.21837 8.62018 6.06859 8.76986 5.88442 8.76986H5.63396C5.44979 8.76986 5.3 8.6214 5.3 8.43614V7.60186H4.46635C4.28219 7.60186 4.1324 7.45341 4.1324 7.26937V7.01909C4.1324 6.83506 4.28219 6.68538 4.46635 6.68538H5.3V5.85232C5.3 5.66829 5.44979 5.51861 5.63396 5.51861H5.88442C6.06859 5.51861 6.21837 5.66829 6.21837 5.85232V6.68538H7.05203C7.23619 6.68538 7.38598 6.83383 7.38598 7.01909V7.26937ZM9.73593 8.43614C9.39092 8.43614 9.11099 8.15641 9.11099 7.81043C9.11099 7.46568 9.39092 7.18595 9.73593 7.18595C10.0809 7.18595 10.3609 7.46568 10.3609 7.81043C10.3609 8.15641 10.0809 8.43614 9.73593 8.43614ZM10.8827 7.04731C10.5413 7.04731 10.2639 6.77003 10.2639 6.42896C10.2639 6.08788 10.5413 5.81183 10.8827 5.81183C11.224 5.81183 11.5015 6.08911 11.5015 6.42896C11.5002 6.77003 11.224 7.04731 10.8827 7.04731Z" fill="white"/>
<defs>
<linearGradient id="paint0_linear_397_43088" x1="0" y1="8" x2="16" y2="8" gradientUnits="userSpaceOnUse">
<stop stop-color="#AC6AFF"/>
<stop offset="1" stop-color="#EA4751"/>
</linearGradient>
</defs>
</svg>
