<svg width="16" height="16" viewBox="0 0 16 16" fill="none" xmlns="http://www.w3.org/2000/svg">
<path d="M5.33333 2.66536C5.33333 3.40174 4.73638 3.9987 4 3.9987C3.26362 3.9987 2.66667 3.40174 2.66667 2.66536C2.66667 1.92898 3.26362 1.33203 4 1.33203C4.73638 1.33203 5.33333 1.92898 5.33333 2.66536ZM3.33333 10.6654V14.6654H2V6.66536C2 5.5608 2.89543 4.66536 4 4.66536C4.54706 4.66536 5.04282 4.885 5.4039 5.24092L6.98687 6.73583L8.52873 5.19396L9.47153 6.13677L7.0134 8.5949L6 7.63783V14.6654H4.66667V10.6654H3.33333ZM6.66667 3.33203H12.6667V9.33203H6.66667V10.6654H9.57693L11.4593 14.6654H12.9329L11.0505 10.6654H13.3333C13.7015 10.6654 14 10.3669 14 9.9987V2.66536C14 2.29718 13.7015 1.9987 13.3333 1.9987H6.66667V3.33203Z" fill="#4E5058"/>
</svg>
