<svg width="24" height="24" viewBox="0 0 24 24" fill="none" xmlns="http://www.w3.org/2000/svg">
<path d="M11.9926 14.4068L10.4406 15.9587C10.7959 16.5563 11 17.2543 11 18C11 20.2091 9.20914 22 7 22C4.79086 22 3 20.2091 3 18C3 15.7909 4.79086 14 7 14C7.73792 14 8.42917 14.1998 9.0226 14.5483L10.5783 12.9926L6.74695 9.16116C6.55169 8.9659 6.55169 8.64932 6.74695 8.45406L7.45406 7.74695C7.64932 7.55169 7.9659 7.55169 8.16116 7.74695L11.9926 11.5783L15.8283 7.74259C16.0236 7.54733 16.3402 7.54733 16.5355 7.74259L17.2426 8.4497C17.4378 8.64496 17.4378 8.96154 17.2426 9.1568L13.4068 12.9926L14.968 14.5538C15.5635 14.2019 16.2582 14 17 14C19.2091 14 21 15.7909 21 18C21 20.2091 19.2091 22 17 22C14.7909 22 13 20.2091 13 18C13 17.2582 13.2019 16.5635 13.5538 15.968L11.9926 14.4068ZM7 20C8.10457 20 9 19.1046 9 18C9 16.8954 8.10457 16 7 16C5.89543 16 5 16.8954 5 18C5 19.1046 5.89543 20 7 20ZM17 20C18.1046 20 19 19.1046 19 18C19 16.8954 18.1046 16 17 16C15.8954 16 15 16.8954 15 18C15 19.1046 15.8954 20 17 20ZM19.5 13C19.2239 13 19 12.7761 19 12.5V5.5C19 5.22386 18.7761 5 18.5 5H5.5C5.22386 5 5 5.22386 5 5.5V12.5C5 12.7761 4.77614 13 4.5 13H3.5C3.22386 13 3 12.7761 3 12.5V4C3 3.44772 3.44772 3 4 3H20C20.5523 3 21 3.44772 21 4V12.5C21 12.7761 20.7761 13 20.5 13H19.5Z" fill="#4E5058"/>
</svg>
