<svg width="16" height="16" viewBox="0 0 16 16" fill="none" xmlns="http://www.w3.org/2000/svg">
<path d="M11.9178 10.9711L14.4194 13.4727C14.6146 13.6679 14.6146 13.9845 14.4194 14.1798L14.1837 14.4155C13.9884 14.6107 13.6718 14.6107 13.4766 14.4155L10.975 11.9139C9.9484 12.7352 8.64647 13.2266 7.23047 13.2266C3.91847 13.2266 1.23047 10.5386 1.23047 7.22656C1.23047 3.91456 3.91847 1.22656 7.23047 1.22656C10.5425 1.22656 13.2305 3.91456 13.2305 7.22656C13.2305 8.64256 12.7391 9.9445 11.9178 10.9711ZM10.5803 10.4764C11.3955 9.6363 11.8971 8.4903 11.8971 7.22656C11.8971 4.64823 9.8088 2.5599 7.23047 2.5599C4.65214 2.5599 2.5638 4.64823 2.5638 7.22656C2.5638 9.8049 4.65214 11.8932 7.23047 11.8932C8.4942 11.8932 9.6402 11.3916 10.4803 10.5764L10.5803 10.4764Z" fill="#4E5058"/>
</svg>
