<svg width="24" height="24" viewBox="0 0 24 24" fill="none" xmlns="http://www.w3.org/2000/svg">
<path d="M17.8748 16.4606L21.6271 20.2129C21.92 20.5058 21.92 20.9807 21.6271 21.2736L21.2736 21.6271C20.9807 21.92 20.5058 21.92 20.2129 21.6271L16.4606 17.8748C14.9207 19.1068 12.9678 19.8438 10.8438 19.8438C5.87575 19.8438 1.84375 15.8118 1.84375 10.8438C1.84375 5.87575 5.87575 1.84375 10.8438 1.84375C15.8118 1.84375 19.8438 5.87575 19.8438 10.8438C19.8438 12.9678 19.1068 14.9207 17.8748 16.4606ZM15.8685 15.7186C17.0913 14.4584 17.8438 12.7394 17.8438 10.8438C17.8438 6.97625 14.7113 3.84375 10.8438 3.84375C6.97625 3.84375 3.84375 6.97625 3.84375 10.8438C3.84375 14.7113 6.97625 17.8438 10.8438 17.8438C12.7394 17.8438 14.4584 17.0913 15.7186 15.8685L15.8685 15.7186Z" fill="#4E5058"/>
</svg>
