<svg width="16" height="16" viewBox="0 0 16 16" fill="none" xmlns="http://www.w3.org/2000/svg">
<path d="M8.0013 0.667969L14.3346 4.33464V11.668L8.0013 15.3346L1.66797 11.668V4.33464L8.0013 0.667969ZM8.0013 2.20864L3.0013 5.10338V10.8992L8.0013 13.794L13.0013 10.8992V5.10338L8.0013 2.20864ZM8.0013 10.668C6.52854 10.668 5.33464 9.47404 5.33464 8.0013C5.33464 6.52854 6.52854 5.33464 8.0013 5.33464C9.47404 5.33464 10.668 6.52854 10.668 8.0013C10.668 9.47404 9.47404 10.668 8.0013 10.668ZM8.0013 9.33464C8.7377 9.33464 9.33464 8.7377 9.33464 8.0013C9.33464 7.2649 8.7377 6.66797 8.0013 6.66797C7.2649 6.66797 6.66797 7.2649 6.66797 8.0013C6.66797 8.7377 7.2649 9.33464 8.0013 9.33464Z" fill="#4E5058"/>
</svg>
