<svg width="20" height="20" viewBox="0 0 20 20" fill="none" xmlns="http://www.w3.org/2000/svg">
<path d="M4.82115 3.47322C5.03748 3.30133 5.35057 3.35739 5.50902 3.58376L5.89141 4.13003C6.04967 4.35611 5.99344 4.66627 5.77994 4.84114C4.28722 6.06374 3.33464 7.92128 3.33464 10.0013C3.33464 13.6832 6.3194 16.668 10.0013 16.668C13.6832 16.668 16.668 13.6832 16.668 10.0013C16.668 7.92128 15.7153 6.06373 14.2227 4.84114C14.0092 4.66627 13.9529 4.35612 14.1112 4.13003L14.4936 3.58376C14.652 3.35739 14.9651 3.30132 15.1815 3.47322C17.1028 4.99983 18.3346 7.3567 18.3346 10.0013C18.3346 14.6036 14.6036 18.3346 10.0013 18.3346C5.39893 18.3346 1.66797 14.6036 1.66797 10.0013C1.66797 7.3567 2.89987 4.99983 4.82115 3.47322ZM9.66797 10.0013C9.39183 10.0013 9.16797 9.77744 9.16797 9.5013V2.16797C9.16797 1.89183 9.39183 1.66797 9.66797 1.66797H10.3346C10.6108 1.66797 10.8346 1.89183 10.8346 2.16797V9.5013C10.8346 9.77744 10.6108 10.0013 10.3346 10.0013H9.66797Z" fill="#4E5058"/>
</svg>
