<svg width="20" height="20" viewBox="0 0 20 20" fill="none" xmlns="http://www.w3.org/2000/svg">
<path d="M17.9987 15C17.7226 15 17.4987 15.2239 17.4987 15.5V17C17.4987 17.2761 17.2748 17.5 16.9987 17.5H16.332C16.0559 17.5 15.832 17.2761 15.832 17V15.5C15.832 15.2239 15.6082 15 15.332 15H14.6654C14.3892 15 14.1654 14.7761 14.1654 14.5V13C14.1654 12.7239 14.3892 12.5 14.6654 12.5H18.6654C18.9415 12.5 19.1654 12.7239 19.1654 13V14.5C19.1654 14.7761 18.9415 15 18.6654 15H17.9987ZM4.66536 15C4.38922 15 4.16536 15.2239 4.16536 15.5V17C4.16536 17.2761 3.94151 17.5 3.66536 17.5H2.9987C2.72256 17.5 2.4987 17.2761 2.4987 17V15.5C2.4987 15.2239 2.27484 15 1.9987 15H1.33203C1.05589 15 0.832031 14.7761 0.832031 14.5V13C0.832031 12.7239 1.05589 12.5 1.33203 12.5H5.33203C5.60817 12.5 5.83203 12.7239 5.83203 13V14.5C5.83203 14.7761 5.60817 15 5.33203 15H4.66536ZM8.66537 5C8.94151 5 9.16537 4.77614 9.16537 4.5V3C9.16537 2.72386 9.38922 2.5 9.66537 2.5H10.332C10.6082 2.5 10.832 2.72386 10.832 3V4.5C10.832 4.77614 11.0559 5 11.332 5H11.9987C12.2748 5 12.4987 5.22386 12.4987 5.5V7C12.4987 7.27614 12.2748 7.5 11.9987 7.5H7.9987C7.72256 7.5 7.4987 7.27614 7.4987 7V5.5C7.4987 5.22386 7.72256 5 7.9987 5H8.66537ZM9.16537 9.66667C9.16537 9.39052 9.38922 9.16667 9.66537 9.16667H10.332C10.6082 9.16667 10.832 9.39052 10.832 9.66667V17C10.832 17.2761 10.6082 17.5 10.332 17.5H9.66537C9.38922 17.5 9.16537 17.2761 9.16537 17V9.66667ZM2.9987 10.8333C2.72256 10.8333 2.4987 10.6095 2.4987 10.3333V3C2.4987 2.72386 2.72256 2.5 2.9987 2.5H3.66536C3.94151 2.5 4.16536 2.72386 4.16536 3V10.3333C4.16536 10.6095 3.94151 10.8333 3.66536 10.8333H2.9987ZM16.332 10.8333C16.0559 10.8333 15.832 10.6095 15.832 10.3333V3C15.832 2.72386 16.0559 2.5 16.332 2.5H16.9987C17.2748 2.5 17.4987 2.72386 17.4987 3V10.3333C17.4987 10.6095 17.2748 10.8333 16.9987 10.8333H16.332Z" fill="#4E5058"/>
</svg>
