<svg width="16" height="16" viewBox="0 0 16 16" fill="none" xmlns="http://www.w3.org/2000/svg">
<path d="M8.00138 5.78236C9.34786 5.78236 10.4394 4.6908 10.4394 3.3443C10.4394 1.9978 9.34786 0.90625 8.00138 0.90625C6.65488 0.90625 5.56333 1.9978 5.56333 3.3443C5.56333 4.6908 6.65488 5.78236 8.00138 5.78236ZM4.03955 7.6109C4.88111 7.6109 5.56333 6.92867 5.56333 6.08711C5.56333 5.24555 4.88111 4.56333 4.03955 4.56333C3.19799 4.56333 2.51576 5.24555 2.51576 6.08711C2.51576 6.92867 3.19799 7.6109 4.03955 7.6109ZM13.487 6.08711C13.487 6.92867 12.8048 7.6109 11.9632 7.6109C11.1217 7.6109 10.4394 6.92867 10.4394 6.08711C10.4394 5.24555 11.1217 4.56333 11.9632 4.56333C12.8048 4.56333 13.487 5.24555 13.487 6.08711ZM8.00138 6.39187C9.68449 6.39187 11.049 7.75633 11.049 9.43944V13.0965H4.95382V9.43944C4.95382 7.75633 6.31826 6.39187 8.00138 6.39187ZM3.73479 9.43938C3.73479 9.01705 3.79615 8.60904 3.91044 8.22382L3.8071 8.23284C2.73825 8.34865 1.90625 9.25402 1.90625 10.3536V13.0965H3.73479V9.43938ZM14.0965 13.0965V10.3536C14.0965 9.21867 13.2102 8.29069 12.0923 8.22382C12.2066 8.60904 12.268 9.01705 12.268 9.43938V13.0965H14.0965Z" fill="#4E5058"/>
</svg>
