<svg width="32" height="32" viewBox="0 0 32 32" fill="none" xmlns="http://www.w3.org/2000/svg">
<path d="M16.1444 18.8177C16.3672 18.8646 16.5206 19.0651 16.5206 19.2927V20.402C16.5206 20.7478 16.177 20.99 15.8401 20.9118C15.3878 20.8068 14.9168 20.7513 14.4329 20.7513C11.1403 20.7513 8.44106 23.3206 8.18898 26.5847C8.16772 26.86 7.94589 27.0846 7.66975 27.0846H6.58203C6.30589 27.0846 6.08051 26.8603 6.09643 26.5846C6.35233 22.1536 9.98686 18.6402 14.4329 18.6402C15.0195 18.6402 15.592 18.7013 16.1444 18.8177ZM14.4329 17.5846C10.9725 17.5846 8.16975 14.7505 8.16975 11.2513C8.16975 7.75214 10.9725 4.91797 14.4329 4.91797C17.8933 4.91797 20.6961 7.75214 20.6961 11.2513C20.6961 14.7505 17.8933 17.5846 14.4329 17.5846ZM14.4329 15.4735C16.7398 15.4735 18.6083 13.5841 18.6083 11.2513C18.6083 8.91852 16.7398 7.02908 14.4329 7.02908C12.126 7.02908 10.2575 8.91852 10.2575 11.2513C10.2575 13.5841 12.126 15.4735 14.4329 15.4735ZM20.6961 21.8069V19.1402C20.6961 18.864 20.9199 18.6402 21.1961 18.6402H22.2838C22.5599 18.6402 22.7838 18.864 22.7838 19.1402V21.8069H25.4154C25.6915 21.8069 25.9154 22.0307 25.9154 22.3069V23.418C25.9154 23.6941 25.6915 23.918 25.4154 23.918H22.7838V26.5846C22.7838 26.8608 22.5599 27.0846 22.2838 27.0846H21.1961C20.9199 27.0846 20.6961 26.8608 20.6961 26.5846V23.918H18.0645C17.7883 23.918 17.5645 23.6941 17.5645 23.418V22.3069C17.5645 22.0307 17.7883 21.8069 18.0645 21.8069H20.6961Z" fill="#4E5058"/>
</svg>
