<svg width="16" height="16" viewBox="0 0 16 16" fill="none" xmlns="http://www.w3.org/2000/svg">
<g id="user-received#16">
<path id="Vector" d="M7.92124 9.57938C8.14552 9.61842 8.2989 9.82013 8.2989 10.0478V10.2119C8.2989 10.5577 7.9535 10.8003 7.61117 10.7514C7.44611 10.7278 7.27742 10.7156 7.10591 10.7156C5.29664 10.7156 3.80093 12.0732 3.56067 13.8359C3.52338 14.1095 3.30311 14.3346 3.02697 14.3346H2.83398C2.55784 14.3346 2.33129 14.1101 2.35921 13.8354C2.60625 11.405 4.63715 9.50924 7.10591 9.50924C7.38388 9.50924 7.6563 9.53327 7.92124 9.57938ZM7.10591 8.90606C5.12855 8.90606 3.52697 7.28654 3.52697 5.28702C3.52697 3.28749 5.12855 1.66797 7.10591 1.66797C9.08328 1.66797 10.6849 3.28749 10.6849 5.28702C10.6849 7.28654 9.08328 8.90606 7.10591 8.90606ZM7.10591 7.69971C8.42416 7.69971 9.49188 6.62003 9.49188 5.28702C9.49188 3.954 8.42416 2.87432 7.10591 2.87432C5.78767 2.87432 4.71995 3.954 4.71995 5.28702C4.71995 6.62003 5.78767 7.69971 7.10591 7.69971ZM10.6849 11.3188V10.0092C10.6849 9.7331 10.9087 9.50924 11.1849 9.50924H11.3778C11.654 9.50924 11.8778 9.7331 11.8778 10.0092V11.3188H13.1673C13.4435 11.3188 13.6673 11.5426 13.6673 11.8188V12.0251C13.6673 12.3013 13.4435 12.5251 13.1673 12.5251H11.8778V13.8346C11.8778 14.1108 11.654 14.3346 11.3778 14.3346H11.1849C10.9087 14.3346 10.6849 14.1108 10.6849 13.8346V12.5251H9.39539C9.11925 12.5251 8.89539 12.3013 8.89539 12.0251V11.8188C8.89539 11.5426 9.11925 11.3188 9.39539 11.3188H10.6849Z" fill="white" stroke="white" stroke-width="0.5"/>
</g>
</svg>
