<svg width="24" height="24" viewBox="0 0 24 24" fill="none" xmlns="http://www.w3.org/2000/svg">
<path d="M12.0708 14.4029C12.2939 14.448 12.4474 14.6488 12.4474 14.8764V15.6707C12.4474 16.0165 12.1034 16.2587 11.7651 16.187C11.4078 16.1113 11.0375 16.0714 10.6579 16.0714C7.85957 16.0714 5.56131 18.2365 5.31191 21.0004C5.28709 21.2754 5.06562 21.5 4.78947 21.5H4C3.72386 21.5 3.49822 21.2754 3.51682 20.9999C3.77085 17.2357 6.87093 14.2619 10.6579 14.2619C11.1416 14.2619 11.6141 14.3104 12.0708 14.4029ZM10.6579 13.3571C7.69184 13.3571 5.28947 10.9279 5.28947 7.92857C5.28947 4.92929 7.69184 2.5 10.6579 2.5C13.6239 2.5 16.0263 4.92929 16.0263 7.92857C16.0263 10.9279 13.6239 13.3571 10.6579 13.3571ZM10.6579 11.5476C12.6353 11.5476 14.2368 9.9281 14.2368 7.92857C14.2368 5.92905 12.6353 4.30952 10.6579 4.30952C8.68053 4.30952 7.07895 5.92905 7.07895 7.92857C7.07895 9.9281 8.68053 11.5476 10.6579 11.5476ZM16.0263 16.9762V14.7619C16.0263 14.4858 16.2502 14.2619 16.5263 14.2619H17.3158C17.5919 14.2619 17.8158 14.4858 17.8158 14.7619V16.9762H20C20.2761 16.9762 20.5 17.2 20.5 17.4762V18.2857C20.5 18.5619 20.2761 18.7857 20 18.7857H17.8158V21C17.8158 21.2761 17.5919 21.5 17.3158 21.5H16.5263C16.2502 21.5 16.0263 21.2761 16.0263 21V18.7857H13.8421C13.566 18.7857 13.3421 18.5619 13.3421 18.2857V17.4762C13.3421 17.2 13.566 16.9762 13.8421 16.9762H16.0263Z" fill="#4E5058"/>
</svg>
