<svg width="12" height="12" viewBox="0 0 12 12" fill="none" xmlns="http://www.w3.org/2000/svg">
<path fill-rule="evenodd" clip-rule="evenodd" d="M7.5 3.5C7.5 4.32843 6.82843 5 6 5C5.17157 5 4.5 4.32843 4.5 3.5C4.5 2.67157 5.17157 2 6 2C6.82843 2 7.5 2.67157 7.5 3.5ZM9 3.5C9 5.15685 7.65685 6.5 6 6.5C4.34315 6.5 3 5.15685 3 3.5C3 1.84315 4.34315 0.5 6 0.5C7.65685 0.5 9 1.84315 9 3.5ZM9 6.5C7.6193 6.5 6.5 7.6193 6.5 9C6.5 10.3807 7.6193 11.5 9 11.5C10.3807 11.5 11.5 10.3807 11.5 9C11.5 7.6193 10.3807 6.5 9 6.5ZM9 7.5C8.17155 7.5 7.5 8.17155 7.5 9C7.5 9.23155 7.5525 9.4509 7.6462 9.6467L9.6467 7.6462C9.4509 7.5525 9.23155 7.5 9 7.5ZM8.3533 10.3538L10.3538 8.3533C10.4475 8.5491 10.5 8.76845 10.5 9C10.5 9.82845 9.82845 10.5 9 10.5C8.76845 10.5 8.5491 10.4475 8.3533 10.3538ZM1.75 11C1.75 8.65278 3.65279 6.75 6 6.75C6.04472 6.75 6.08931 6.75069 6.13376 6.75207L6.59476 6.76639L6.33114 7.14485C6.1322 7.43043 5.97805 7.74929 5.87867 8.0913L5.83254 8.25006L5.6684 8.26977C4.30609 8.43332 3.25 9.59351 3.25 11V11.25H1.75V11Z" fill="#4E5058"/>
</svg>
