<svg width="24" height="24" viewBox="0 0 24 24" fill="none" xmlns="http://www.w3.org/2000/svg">
<path d="M14 20L12 22L10 20H4.99509C3.89323 20 3 19.1074 3 18.0049V3.99509C3 2.89323 3.89262 2 4.99509 2H19.0049C20.1068 2 21 2.89262 21 3.99509V18.0049C21 19.1068 20.1074 20 19.0049 20H14ZM18 18C18.5523 18 19 17.5523 19 17V5C19 4.44772 18.5523 4 18 4H6C5.44772 4 5 4.44772 5 5V17C5 17.5523 5.44772 18 6 18H10.8284L12 19.1716L13.1716 18H18ZM8.21876 16.8503C8.06778 17.0362 7.81279 17.1133 7.59714 17.0091C7.26147 16.8469 6.93625 16.6665 6.62275 16.4692C6.39494 16.3257 6.33523 16.0221 6.49664 15.8067C7.77342 14.1026 9.80903 13 12.1022 13C14.3283 13 16.3118 14.0391 17.5939 15.6589C17.7609 15.87 17.7093 16.1751 17.4854 16.3245C17.1772 16.5302 16.8569 16.7191 16.5259 16.8901C16.313 17.0001 16.0561 16.9298 15.9002 16.7479C14.9832 15.6779 13.6218 15 12.1022 15C10.5346 15 9.13551 15.7214 8.21876 16.8503ZM12 12C10.067 12 8.5 10.433 8.5 8.5C8.5 6.567 10.067 5 12 5C13.933 5 15.5 6.567 15.5 8.5C15.5 10.433 13.933 12 12 12ZM12 10C12.8284 10 13.5 9.3284 13.5 8.5C13.5 7.67157 12.8284 7 12 7C11.1716 7 10.5 7.67157 10.5 8.5C10.5 9.3284 11.1716 10 12 10Z" fill="#4E5058"/>
</svg>
