<svg width="12" height="12" viewBox="0 0 12 12" fill="none" xmlns="http://www.w3.org/2000/svg">
<path d="M2.94444 7.99981H1C0.72386 7.99981 0.5 7.77596 0.5 7.49981V4.49979C0.5 4.22365 0.72386 3.99979 1 3.99979H2.94444L5.5917 1.83386C5.69855 1.74643 5.85605 1.76218 5.9435 1.86904C5.98005 1.91371 6 1.96964 6 2.02735V9.97221C6 10.1103 5.88805 10.2222 5.75 10.2222C5.6923 10.2222 5.63635 10.2023 5.5917 10.1657L2.94444 7.99981ZM10.2071 5.99981L11.9748 7.76756L11.2677 8.47466L9.5 6.70691L7.73225 8.47466L7.02515 7.76756L8.7929 5.99981L7.02515 4.23203L7.73225 3.52492L9.5 5.29271L11.2677 3.52492L11.9748 4.23203L10.2071 5.99981Z" fill="#4E5058"/>
</svg>
