<svg width="16" height="16" viewBox="0 0 16 16" fill="none" xmlns="http://www.w3.org/2000/svg">
<path d="M4.40318 6.66771L6.66797 4.81468V11.1874L4.40318 9.33438H2.0013V6.66771H4.40318ZM1.33464 10.6677H3.92723L7.4569 13.5556C7.51644 13.6043 7.59104 13.6309 7.66797 13.6309C7.85204 13.6309 8.0013 13.4817 8.0013 13.2976V2.70444C8.0013 2.62749 7.9747 2.55291 7.92597 2.49336C7.80937 2.35088 7.59937 2.32988 7.4569 2.44645L3.92723 5.33436H1.33464C0.966449 5.33436 0.667969 5.63283 0.667969 6.00102V10.001C0.667969 10.3692 0.966449 10.6677 1.33464 10.6677ZM15.3346 8.00098C15.3346 10.1956 14.3706 12.1652 12.8428 13.5091L11.8976 12.5639C13.1852 11.4634 14.0013 9.82751 14.0013 8.00098C14.0013 6.17442 13.1852 4.5385 11.8976 3.43802L12.8428 2.49284C14.3706 3.83676 15.3346 5.80628 15.3346 8.00098ZM12.0013 8.00098C12.0013 6.72651 11.4053 5.5913 10.4768 4.8588L9.5241 5.81154C10.2155 6.29334 10.668 7.09431 10.668 8.00098C10.668 8.90764 10.2155 9.70858 9.5241 10.1904L10.4768 11.1431C11.4053 10.4106 12.0013 9.27538 12.0013 8.00098Z" fill="#4E5058"/>
</svg>
