<svg width="12" height="12" viewBox="0 0 12 12" fill="none" xmlns="http://www.w3.org/2000/svg">
<path d="M4.44445 7.99981H2.5C2.22386 7.99981 2 7.77596 2 7.49981V4.49979C2 4.22365 2.22386 3.99979 2.5 3.99979H4.44445L7.0917 1.83386C7.19855 1.74643 7.35605 1.76218 7.4435 1.86904C7.48005 1.91371 7.5 1.96964 7.5 2.02735V9.97221C7.5 10.1103 7.38805 10.2222 7.25 10.2222C7.1923 10.2222 7.13635 10.2023 7.0917 10.1657L4.44445 7.99981ZM9.43155 8.29531L8.72055 7.58431C9.1946 7.21856 9.5 6.64486 9.5 5.99981C9.5 5.28461 9.12465 4.65714 8.56015 4.30359L9.27945 3.58429C10.0198 4.13059 10.5 5.00911 10.5 5.99981C10.5 6.92086 10.0849 7.74501 9.43155 8.29531Z" fill="#4E5058"/>
</svg>
