<svg width="12" height="12" viewBox="0 0 12 12" fill="none" xmlns="http://www.w3.org/2000/svg">
<path d="M3.30141 4.99981L5 3.61004V8.38956L3.30141 6.99981H1.5V4.99981H3.30141ZM1 7.99981H2.94444L5.5917 10.1657C5.63635 10.2023 5.6923 10.2222 5.75 10.2222C5.88805 10.2222 6 10.1103 6 9.97221V2.02735C6 1.96964 5.98005 1.91371 5.9435 1.86904C5.85605 1.76218 5.69855 1.74643 5.5917 1.83386L2.94444 3.99979H1C0.72386 3.99979 0.5 4.22365 0.5 4.49979V7.49981C0.5 7.77596 0.72386 7.99981 1 7.99981ZM11.5 5.99976C11.5 7.64576 10.7769 9.12291 9.6311 10.1309L8.92225 9.42196C9.8879 8.59661 10.5 7.36966 10.5 5.99976C10.5 4.62984 9.8879 3.4029 8.92225 2.57754L9.6311 1.86865C10.7769 2.8766 11.5 4.35373 11.5 5.99976ZM9 5.99976C9 5.04391 8.553 4.1925 7.85665 3.64312L7.1421 4.35768C7.66065 4.71903 8 5.31976 8 5.99976C8 6.67976 7.66065 7.28046 7.1421 7.64181L7.85665 8.35636C8.553 7.80701 9 6.95556 9 5.99976Z" fill="#4E5058"/>
</svg>
