<svg width="24" height="24" viewBox="0 0 24 24" fill="none" xmlns="http://www.w3.org/2000/svg">
<path fill-rule="evenodd" clip-rule="evenodd" d="M12 2L4.69606 3.65998C4.28936 3.75242 4 4.12134 4 4.54743V13.6263C4 15.45 4.89121 17.1531 6.37493 18.1647L12 22L17.6251 18.1647C19.1088 17.1531 20 15.45 20 13.6263V4.54743C20 4.12134 19.7107 3.75242 19.3039 3.65998L12 2ZM5.77778 13.6263V5.27667L12 3.86254L18.2222 5.27667V13.6263C18.2222 14.8421 17.6281 15.9775 16.6389 16.6519L12 19.8148L7.36107 16.6519C6.37191 15.9775 5.77778 14.8421 5.77778 13.6263ZM11.0588 6.7619C11.0588 6.49891 11.2695 6.28571 11.5294 6.28571H12.4706C12.7305 6.28571 12.9412 6.49891 12.9412 6.7619V12.4762C12.9412 12.7392 12.7305 12.9524 12.4706 12.9524H11.5294C11.2695 12.9524 11.0588 12.7392 11.0588 12.4762V6.7619ZM11.0588 15.3333C11.0588 15.0703 11.2695 14.8571 11.5294 14.8571H12.4706C12.7305 14.8571 12.9412 15.0703 12.9412 15.3333V16.2857C12.9412 16.5487 12.7305 16.7619 12.4706 16.7619H11.5294C11.2695 16.7619 11.0588 16.5487 11.0588 16.2857V15.3333Z" fill="#4E5058"/>
</svg>
