<svg width="16" height="16" viewBox="0 0 16 16" fill="none" xmlns="http://www.w3.org/2000/svg">
<path d="M4.66522 4.66536V1.9987C4.66522 1.63051 4.9637 1.33203 5.33189 1.33203H13.9986C14.3668 1.33203 14.6652 1.63051 14.6652 1.9987V10.6654C14.6652 11.0336 14.3668 11.332 13.9986 11.332H11.332V13.9937C11.332 14.3646 11.0327 14.6654 10.6604 14.6654H2.00355C1.6326 14.6654 1.33203 14.3661 1.33203 13.9937L1.33387 5.33702C1.33395 4.96608 1.63323 4.66536 2.00553 4.66536H4.66522ZM5.99856 4.66536H10.6605C11.0314 4.66536 11.332 4.96464 11.332 5.33702V9.9987H13.3319V2.66536H5.99856V4.66536ZM2.66706 5.9987L2.6655 13.332H9.9987V5.9987H2.66706Z" fill="#4E5058"/>
</svg>
