<svg width="24" height="24" viewBox="0 0 24 24" fill="none" xmlns="http://www.w3.org/2000/svg">
<path fill-rule="evenodd" clip-rule="evenodd" d="M12 22C6.47715 22 2 17.5228 2 12C2 6.47715 6.47715 2 12 2C17.5228 2 22 6.47715 22 12C22 17.5228 17.5228 22 12 22ZM12 20C16.4183 20 20 16.4183 20 12C20 7.58172 16.4183 4 12 4C7.58172 4 4 7.58172 4 12C4 16.4183 7.58172 20 12 20ZM17.3219 8.07805C16.9314 7.68753 16.2982 7.68752 15.9077 8.07805L10.6156 13.3701L8.09238 10.8469C7.70185 10.4564 7.06869 10.4564 6.67817 10.8469L6.46233 11.0628C6.0718 11.4533 6.0718 12.0865 6.46233 12.477L9.90852 15.9231C10.299 16.3136 10.9322 16.3136 11.3227 15.9231L17.5378 9.7081C17.9283 9.31758 17.9283 8.68442 17.5378 8.29389L17.3219 8.07805Z" fill="#23A559"/>
</svg>
