<svg width="24" height="24" viewBox="0 0 24 24" fill="none" xmlns="http://www.w3.org/2000/svg">
<path d="M10.3923 14.1098C10.6679 14.0913 10.8924 14.3169 10.8924 14.593V15.4535C10.8924 15.7296 10.6678 15.9511 10.3928 15.9758C7.72834 16.2154 5.60646 18.3525 5.37002 21.0352C5.34578 21.3103 5.12425 21.5349 4.84811 21.5349H4C3.72386 21.5349 3.49827 21.3103 3.51643 21.0348C3.76099 17.3243 6.70699 14.3576 10.3923 14.1098ZM10.8924 13.1628C7.82919 13.1628 5.34811 10.6651 5.34811 7.5814C5.34811 4.49767 7.82919 2 10.8924 2C13.9557 2 16.4368 4.49767 16.4368 7.5814C16.4368 10.6651 13.9557 13.1628 10.8924 13.1628ZM10.8924 11.3023C12.9346 11.3023 14.5886 9.63721 14.5886 7.5814C14.5886 5.52558 12.9346 3.86047 10.8924 3.86047C8.85027 3.86047 7.19621 5.52558 7.19621 7.5814C7.19621 9.63721 8.85027 11.3023 10.8924 11.3023ZM13.29 18.5688C13.2328 18.3266 13.2026 18.0739 13.2026 17.814C13.2026 17.5541 13.2328 17.3014 13.2899 17.0592L12.3736 16.5266L13.2976 14.9153L14.2146 15.4483C14.5778 15.1024 15.0207 14.8404 15.5127 14.6929V13.6279H17.3608V14.6929C17.8528 14.8404 18.2956 15.1024 18.6588 15.4483L19.5759 14.9153L20.5 16.5265L19.5836 17.0591C19.6407 17.3014 19.6709 17.5541 19.6709 17.814C19.6709 18.0738 19.6407 18.3265 19.5836 18.5687L20.5 19.1013L19.5759 20.7126L18.6589 20.1795C18.2957 20.5255 17.8529 20.7875 17.3609 20.9349V22H15.5128V20.935C15.0208 20.7876 14.5779 20.5256 14.2147 20.1796L13.2977 20.7127L12.3736 19.1014L13.29 18.5688ZM16.4368 19.2093C17.2022 19.2093 17.8228 18.5846 17.8228 17.814C17.8228 17.0433 17.2022 16.4186 16.4368 16.4186C15.6713 16.4186 15.0507 17.0433 15.0507 17.814C15.0507 18.5846 15.6713 19.2093 16.4368 19.2093Z" fill="#4E5058"/>
</svg>
