<svg width="24" height="30" viewBox="0 0 24 30" fill="none" xmlns="http://www.w3.org/2000/svg">
<g filter="url(#filter0_d_397_42981)">
<path d="M7 4C7 2.89543 7.89543 2 9 2H15C16.1046 2 17 2.89543 17 4V20C17 21.1046 16.1046 22 15 22H9C7.89543 22 7 21.1046 7 20V4Z" fill="white"/>
<path d="M7.5 4C7.5 3.17157 8.17157 2.5 9 2.5H15C15.8284 2.5 16.5 3.17157 16.5 4V20C16.5 20.8284 15.8284 21.5 15 21.5H9C8.17157 21.5 7.5 20.8284 7.5 20V4Z" stroke="#E0E1E5"/>
</g>
<defs>
<filter id="filter0_d_397_42981" x="3" y="2" width="18" height="28" filterUnits="userSpaceOnUse" color-interpolation-filters="sRGB">
<feFlood flood-opacity="0" result="BackgroundImageFix"/>
<feColorMatrix in="SourceAlpha" type="matrix" values="0 0 0 0 0 0 0 0 0 0 0 0 0 0 0 0 0 0 127 0" result="hardAlpha"/>
<feOffset dy="4"/>
<feGaussianBlur stdDeviation="2"/>
<feComposite in2="hardAlpha" operator="out"/>
<feColorMatrix type="matrix" values="0 0 0 0 0 0 0 0 0 0 0 0 0 0 0 0 0 0 0.08 0"/>
<feBlend mode="normal" in2="BackgroundImageFix" result="effect1_dropShadow_397_42981"/>
<feBlend mode="normal" in="SourceGraphic" in2="effect1_dropShadow_397_42981" result="shape"/>
</filter>
</defs>
</svg>
