<svg xmlns="http://www.w3.org/2000/svg" width="34" height="34" viewBox="0 0 34 34"><defs><style>.a{fill:#02a9f1;}.b{fill:none;}</style></defs><g transform="translate(-4763 -396)"><path class="a" d="M143.9,136.876l-7.077-2.38a12.29,12.29,0,0,0,1.124-2.41,11.261,11.261,0,0,0,.664-2.473l-4.581-.038v-1.565l5.548-.039v-1.106h-5.549v-2.518h-2.717v2.518H126.14v1.106l5.176-.037v1.678h-4.152v.876h8.546a8.218,8.218,0,0,1-.422,1.6c-.328.885-.665,1.66-.665,1.66a26.3,26.3,0,0,0-6.127-1.4c-2.114,0-4.686.849-4.935,3.315s1.2,3.8,3.235,4.29a8.089,8.089,0,0,0,5.556-.807,12.911,12.911,0,0,0,3.245-2.621l8.248,4.005a4.07,4.07,0,0,1-4.015,3.379H125.978a4.07,4.07,0,0,1-4.074-4.066v-13.86a4.07,4.07,0,0,1,4.066-4.074h13.86a4.07,4.07,0,0,1,4.074,4.066v10.906ZM133.59,135.5s-2.575,3.25-5.608,3.25-3.672-1.544-3.672-2.655.631-2.316,3.213-2.491,6.068,1.9,6.068,1.9h0Z" transform="translate(4647.096 280.096)"/><rect class="b" width="34" height="34" transform="translate(4763 396)"/></g></svg>