<svg xmlns="http://www.w3.org/2000/svg" width="50" height="50" viewBox="0 0 50 50"><defs><style>.a{fill:none;}.b{fill:#333;}</style></defs><g transform="translate(-121 -909)"><rect class="a" width="50" height="50" transform="translate(121 909)"/><path class="b" d="M6.5,0h0A6.5,6.5,0,0,1,13,6.5v4.643A1.857,1.857,0,0,1,11.143,13H6.5A6.5,6.5,0,0,1,0,6.5v0A6.5,6.5,0,0,1,6.5,0Z" transform="translate(131 919)"/><path class="b" d="M6.5,0h4.643A1.857,1.857,0,0,1,13,1.857V6.5A6.5,6.5,0,0,1,6.5,13h0A6.5,6.5,0,0,1,0,6.5v0A6.5,6.5,0,0,1,6.5,0Z" transform="translate(131 936)"/><path class="b" d="M6.5,0h0A6.5,6.5,0,0,1,13,6.5v0A6.5,6.5,0,0,1,6.5,13H1.857A1.857,1.857,0,0,1,0,11.143V6.5A6.5,6.5,0,0,1,6.5,0Z" transform="translate(148 919)"/><path class="b" d="M1.857,0H6.5A6.5,6.5,0,0,1,13,6.5v0A6.5,6.5,0,0,1,6.5,13h0A6.5,6.5,0,0,1,0,6.5V1.857A1.857,1.857,0,0,1,1.857,0Z" transform="translate(148 936)"/></g></svg>