<svg width="20" height="20" viewBox="0 0 20 20" fill="none" xmlns="http://www.w3.org/2000/svg">
<path d="M10 0.833008L16.8474 2.35466C17.2287 2.43939 17.5 2.77757 17.5 3.16815V11.4904C17.5 13.1622 16.6645 14.7233 15.2735 15.6507L10 19.1663L4.7265 15.6507C3.33551 14.7233 2.5 13.1622 2.5 11.4904V3.16815C2.5 2.77757 2.77128 2.43939 3.15256 2.35466L10 0.833008ZM10 5.83301C9.0795 5.83301 8.33333 6.5792 8.33333 7.49967C8.33333 8.11655 8.6685 8.65517 9.16658 8.94334L9.16667 12.4997H10.8333L10.8342 8.94284C11.3319 8.65451 11.6667 8.11621 11.6667 7.49967C11.6667 6.5792 10.9205 5.83301 10 5.83301Z" fill="#BEBEBE"/>
</svg>
