<svg xmlns="http://www.w3.org/2000/svg" width="43.977" height="41.539" viewBox="0 0 43.977 41.539"><defs><style>.a{fill:#f7f7f7;}.b{fill:#e2e2e2;}.c{fill:#ccc;}</style></defs><g transform="translate(-90.772 -109.475)"><path class="a" d="M337.35,358.547m-9.568,0a9.568,9.568,0,1,0,9.568-9.568A9.568,9.568,0,0,0,327.782,358.547Z" transform="translate(-224.701 -227.065)"/><path class="b" d="M133.534,142.954a12.949,12.949,0,0,0-4.239-16.035c-.051-.035-.1-.066-.152-.1a19.04,19.04,0,0,0-19.585-17.335A19.053,19.053,0,0,0,93.075,136.91c-.747,2.776-1.569,5.536-2.149,7.424a3.494,3.494,0,0,0,3.337,4.518,3.4,3.4,0,0,0,.987-.144l8.132-2.391a19.07,19.07,0,0,0,9.983.979,12.928,12.928,0,0,0,12.836,2.361l4.132,1.215a3.465,3.465,0,0,0,.968.141,3.429,3.429,0,0,0,3.281-4.414c-.394-1.3-.745-2.529-1.048-3.646Zm-23.055.888a15.2,15.2,0,0,1-6.276-1.2,1.861,1.861,0,0,0-1.252-.072l-8.345,2.452c.63-2.064,1.492-4.978,2.247-7.845a1.879,1.879,0,0,0-.162-1.362,15.329,15.329,0,0,1,12.982-22.6,15.323,15.323,0,1,1,.806,30.634Zm19.436-1.978a1.853,1.853,0,0,0-.162,1.361c.314,1.191.686,2.508,1.106,3.925l-4.223-1.242a1.861,1.861,0,0,0-1.252.072,9.192,9.192,0,0,1-7.4-.1,19.17,19.17,0,0,0,10.969-14.2,9.2,9.2,0,0,1,.963,10.187Z" transform="translate(0 0)"/><path class="c" d="M297.183,404.811a1.86,1.86,0,0,1-1.861-1.861v-2.189a1.861,1.861,0,1,1,3.723,0v2.189A1.86,1.86,0,0,1,297.183,404.811Zm12.392,0a1.86,1.86,0,0,1-1.861-1.861v-2.189a1.861,1.861,0,1,1,3.723,0v2.189A1.86,1.86,0,0,1,309.575,404.811Z" transform="translate(-193.926 -274.392)"/></g></svg>