<svg width="17" height="17" viewBox="0 0 17 17" fill="none" xmlns="http://www.w3.org/2000/svg">
<path fill-rule="evenodd" clip-rule="evenodd" d="M15.2104 5.56775C14.4544 2.37927 11.5862 0 8.17022 0C4.75495 0 1.88604 2.37927 1.13076 5.56775C0.48748 5.68323 0 6.24329 0 6.91956V9.41517C0 10.174 0.61528 10.7902 1.37415 10.7902C1.8243 10.7902 2.22132 10.5734 2.4726 10.2394C3.06778 11.7235 4.25526 12.9131 5.74787 13.5267C5.85053 13.5692 5.92951 13.4298 5.84048 13.3632C4.83823 12.6065 3.86254 11.3853 3.92931 9.51356C3.92931 9.10853 4.33423 8.45179 5.16058 8.33387C5.98622 8.21546 9.74754 8.2837 10.2199 6.29346C10.3212 5.75379 10.2731 5.35157 10.6184 5.63025C10.7699 5.76233 11.9394 7.08606 12.0974 9.24439C12.1914 10.5424 12.0127 11.9567 11.0413 12.9956C10.9673 13.0753 11.065 13.1974 11.1576 13.142C12.3494 12.4377 13.2712 11.3385 13.7379 10.0289C13.8922 10.3363 14.1572 10.5775 14.481 10.7009C14.3122 11.3881 13.9425 12.3207 13.1319 13.1105C12.134 14.0846 10.7002 14.621 8.8659 14.7086C8.69072 14.3117 8.29442 14.0331 7.83206 14.0331C7.20888 14.0331 6.70201 14.5385 6.70201 15.163C6.70201 15.787 7.20816 16.2931 7.83206 16.2931C8.30519 16.2931 8.71011 16.0016 8.87811 15.5895C10.9487 15.494 12.5841 14.8751 13.7465 13.7409C14.776 12.7363 15.2025 11.5516 15.3791 10.7277C15.9362 10.5524 16.3404 10.0319 16.3404 9.41578V6.91956C16.3412 6.2439 15.853 5.68323 15.2104 5.56775ZM8.0654 2.15674C5.47505 2.15674 3.26665 3.7699 2.42235 6.03064C2.30604 5.89368 2.16389 5.78088 2.00379 5.69763C2.69374 2.9342 5.19649 0.88098 8.17023 0.88098C11.1447 0.88098 13.6474 2.9342 14.3367 5.69763C14.1033 5.81897 13.9095 6.00427 13.7774 6.23181C12.992 3.86609 10.7326 2.15674 8.06541 2.15674H8.0654Z" fill="#999999"/>
</svg>
