<svg width="20" height="21" viewBox="0 0 20 21" fill="none" xmlns="http://www.w3.org/2000/svg">
<path d="M18.7084 5.61132L10.008 14.3018C9.92937 14.3736 9.82675 14.4134 9.72029 14.4134C9.61382 14.4134 9.5112 14.3736 9.43259 14.3018L5.06752 10.7204C5.03586 10.6925 5.01049 10.6582 4.99312 10.6197C4.97575 10.5812 4.96676 10.5394 4.96676 10.4972C4.96676 10.455 4.97575 10.4132 4.99312 10.3748C5.01049 10.3363 5.03586 10.3019 5.06752 10.274L6.55561 8.84543C6.61125 8.7909 6.68604 8.76036 6.76395 8.76036C6.84185 8.76036 6.91665 8.7909 6.97228 8.84543L9.75005 11.6232L17.6865 4.10338C16.0382 2.12271 13.689 0.854758 11.1287 0.563927C8.56831 0.273096 5.99453 0.981836 3.94399 2.54236C1.89345 4.10288 0.524457 6.39472 0.122469 8.93998C-0.279519 11.4852 0.316531 14.0874 1.78633 16.2039C3.25613 18.3205 5.48622 19.7879 8.01157 20.3003C10.5369 20.8127 13.1626 20.3304 15.3411 18.9541C17.5195 17.5779 19.0827 15.4137 19.7045 12.9131C20.3263 10.4124 19.9588 7.76826 18.6786 5.53195L18.7084 5.61132Z" fill="url(#paint0_linear_2176_21944)"/>
<defs>
<linearGradient id="paint0_linear_2176_21944" x1="7" y1="1" x2="16" y2="21" gradientUnits="userSpaceOnUse">
<stop stop-color="#EEA267"/>
<stop offset="1" stop-color="#EEA064"/>
</linearGradient>
</defs>
</svg>
