<svg xmlns="http://www.w3.org/2000/svg" xmlns:xlink="http://www.w3.org/1999/xlink" width="30" height="30" viewBox="0 0 30 30"><defs><style>.a{fill:none;opacity:0;}.b{fill:url(#a);}</style><linearGradient id="a" x1="0.235" y1="0.061" x2="0.816" y2="1" gradientUnits="objectBoundingBox"><stop offset="0" stop-color="#fd854b"/><stop offset="1" stop-color="#fc5a40"/></linearGradient></defs><rect class="a" width="30" height="30" rx="6"/><path class="b" d="M9.154,17.247V9.435h6.538v5.812a2,2,0,0,1-2,2Zm-1.309,0H3.308a2,2,0,0,1-2-2V9.435H7.846v7.811h0ZM1.307,8.785H1a1,1,0,0,1-1-1V5.227a1,1,0,0,1,1-1H7.846V8.133H1.308v.651h0Zm14.386,0V8.133H9.154V4.228H16a1,1,0,0,1,1,1V7.784a1,1,0,0,1-1,1ZM4.392,3.5S2.633.957,4.9,1.07A6.183,6.183,0,0,1,8.587,2.521c0-.157,2.046-2.39,2.861-2.494a1.345,1.345,0,0,1,1.747,1.246A2.7,2.7,0,0,1,12.223,3.5Z" transform="translate(7 6.754)"/></svg>