<svg width="300" height="110" viewBox="0 0 300 110" fill="none" xmlns="http://www.w3.org/2000/svg">
<g clip-path="url(#clip0_509_12585)">
<rect width="300" height="110" fill="#4E5058"/>
<g opacity="0.1">
<path d="M223.399 -29.4545C228.616 -26.4421 230.412 -19.7834 227.409 -14.582L223.784 -8.30329C220.781 -3.10187 214.116 -1.32735 208.899 -4.33981L193.153 -13.4307C187.935 -16.4432 186.14 -23.1019 189.143 -28.3033L192.768 -34.582C195.771 -39.7834 202.435 -41.5579 207.653 -38.5455L223.399 -29.4545ZM207.845 -27.9698L204.696 -29.788L202.883 -26.6487L199.734 -28.4668L197.922 -25.3275L201.069 -23.5102L199.258 -20.37L202.408 -18.5518L204.219 -21.6921L207.369 -19.873L209.182 -23.0123L206.033 -24.8305L207.845 -27.9698ZM216.817 -14.4184L213.668 -16.2366L211.855 -13.0973L215.004 -11.2791L216.817 -14.4184ZM217.293 -22.5153L214.144 -24.3335L212.331 -21.1941L215.48 -19.3759L217.293 -22.5153Z" fill="#060607"/>
<path d="M266.701 -4.45455C271.919 -1.44209 273.714 5.21659 270.711 10.418L267.086 16.6967C264.083 21.8981 257.419 23.6726 252.201 20.6602L236.455 11.5693C231.238 8.55682 229.442 1.89813 232.445 -3.30329L236.07 -9.58197C239.073 -14.7834 245.738 -16.5579 250.955 -13.5455L266.701 -4.45455ZM251.148 -2.96983L247.999 -4.78801L246.186 -1.64867L243.037 -3.46685L241.225 -0.327506L244.372 1.48977L242.561 4.63002L245.71 6.4482L247.521 3.30795L250.672 5.12704L252.485 1.9877L249.335 0.169515L251.148 -2.96983ZM260.12 10.5816L256.97 8.7634L255.158 11.9027L258.307 13.7209L260.12 10.5816ZM260.595 2.48472L257.446 0.666537L255.634 3.80588L258.783 5.62406L260.595 2.48472Z" fill="#060607"/>
<path d="M310.002 20.5455C315.22 23.5579 317.015 30.2166 314.012 35.418L310.387 41.6967C307.384 46.8981 300.72 48.6726 295.502 45.6602L279.756 36.5693C274.538 33.5568 272.743 26.8981 275.746 21.6967L279.371 15.418C282.374 10.2166 289.038 8.44208 294.256 11.4545L310.002 20.5455ZM294.449 22.0302L291.299 20.212L289.487 23.3513L286.338 21.5332L284.525 24.6725L287.673 26.4898L285.862 29.63L289.011 31.4482L290.822 28.3079L293.973 30.127L295.785 26.9877L292.636 25.1695L294.449 22.0302ZM303.42 35.5816L300.271 33.7634L298.459 36.9027L301.608 38.7209L303.42 35.5816ZM303.896 27.4847L300.747 25.6665L298.935 28.8059L302.084 30.6241L303.896 27.4847Z" fill="#060607"/>
<path d="M160.598 -20.6811C165.815 -17.6687 167.611 -11.01 164.608 -5.80854L160.983 0.470148C157.98 5.67157 151.315 7.44608 146.098 4.43363L130.352 -4.65728C125.134 -7.66974 123.339 -14.3284 126.342 -19.5299L129.967 -25.8085C132.97 -31.01 139.634 -32.7845 144.852 -29.772L160.598 -20.6811ZM145.044 -19.1964L141.895 -21.0146L140.083 -17.8752L136.934 -19.6934L135.121 -16.5541L138.269 -14.7368L136.458 -11.5965L139.607 -9.77836L141.418 -12.9186L144.569 -11.0995L146.381 -14.2389L143.232 -16.057L145.044 -19.1964ZM154.016 -5.64498L150.867 -7.46316L149.054 -4.32382L152.204 -2.50564L154.016 -5.64498ZM154.492 -13.7418L151.343 -15.56L149.53 -12.4207L152.679 -10.6025L154.492 -13.7418Z" fill="#060607"/>
<path d="M203.899 4.31889C209.116 7.33135 210.912 13.99 207.909 19.1915L204.284 25.4701C201.281 30.6716 194.616 32.4461 189.399 29.4336L173.653 20.3427C168.435 17.3303 166.64 10.6716 169.643 5.47015L173.268 -0.808536C176.271 -6.00997 182.935 -7.78448 188.153 -4.77202L203.899 4.31889ZM188.345 5.80361L185.196 3.98543L183.383 7.12477L180.234 5.30659L178.422 8.44593L181.569 10.2632L179.758 13.4035L182.908 15.2216L184.719 12.0814L187.869 13.9005L189.682 10.7611L186.533 8.94295L188.345 5.80361ZM197.317 19.355L194.168 17.5368L192.355 20.6762L195.504 22.4944L197.317 19.355ZM197.793 11.2582L194.644 9.43997L192.831 12.5793L195.98 14.3975L197.793 11.2582Z" fill="#060607"/>
<path d="M247.201 29.3189C252.419 32.3313 254.214 38.99 251.211 44.1915L247.586 50.4701C244.583 55.6716 237.919 57.4461 232.701 54.4336L216.955 45.3427C211.738 42.3303 209.942 35.6716 212.945 30.4701L216.57 24.1915C219.573 18.99 226.238 17.2155 231.455 20.228L247.201 29.3189ZM231.648 30.8036L228.499 28.9854L226.686 32.1248L223.537 30.3066L221.725 33.4459L224.872 35.2632L223.061 38.4035L226.21 40.2216L228.021 37.0814L231.172 38.9005L232.985 35.7611L229.835 33.943L231.648 30.8036ZM240.62 44.355L237.47 42.5368L235.658 45.6762L238.807 47.4944L240.62 44.355ZM241.095 36.2582L237.946 34.44L236.134 37.5793L239.283 39.3975L241.095 36.2582Z" fill="#060607"/>
<path d="M290.502 54.3189C295.72 57.3313 297.515 63.99 294.512 69.1915L290.887 75.4701C287.884 80.6716 281.22 82.4461 276.002 79.4336L260.256 70.3427C255.038 67.3303 253.243 60.6716 256.246 55.4701L259.871 49.1915C262.874 43.99 269.538 42.2155 274.756 45.228L290.502 54.3189ZM274.949 55.8036L271.799 53.9854L269.987 57.1248L266.838 55.3066L265.025 58.4459L268.173 60.2632L266.362 63.4035L269.511 65.2216L271.322 62.0814L274.473 63.9005L276.285 60.7611L273.136 58.943L274.949 55.8036ZM283.92 69.355L280.771 67.5368L278.959 70.6762L282.108 72.4944L283.92 69.355ZM284.396 61.2582L281.247 59.44L279.435 62.5793L282.584 64.3975L284.396 61.2582Z" fill="#060607"/>
<path d="M333.803 79.3189C339.021 82.3313 340.816 88.99 337.813 94.1915L334.188 100.47C331.185 105.672 324.521 107.446 319.303 104.434L303.557 95.3427C298.339 92.3303 296.544 85.6716 299.547 80.4701L303.172 74.1915C306.175 68.99 312.839 67.2155 318.057 70.228L333.803 79.3189ZM318.249 80.8036L315.1 78.9854L313.288 82.1248L310.139 80.3066L308.326 83.4459L311.474 85.2632L309.663 88.4035L312.812 90.2216L314.623 87.0814L317.774 88.9005L319.586 85.7611L316.437 83.943L318.249 80.8036ZM327.221 94.355L324.072 92.5368L322.259 95.6762L325.409 97.4944L327.221 94.355ZM327.697 86.2582L324.548 84.44L322.735 87.5793L325.884 89.3975L327.697 86.2582Z" fill="#060607"/>
<path d="M97.795 -11.9038C103.013 -8.89131 104.808 -2.23263 101.805 2.96881L98.1801 9.24749C95.177 14.4489 88.5128 16.2234 83.295 13.211L67.5491 4.12006C62.3314 1.1076 60.536 -5.55109 63.5391 -10.7525L67.1641 -17.0312C70.1671 -22.2326 76.8314 -24.0071 82.0491 -20.9947L97.795 -11.9038ZM82.2416 -10.419L79.0925 -12.2372L77.28 -9.09789L74.1308 -10.9161L72.3183 -7.77673L75.4659 -5.95945L73.655 -2.8192L76.8041 -1.00102L78.6151 -4.14127L81.7658 -2.32218L83.5783 -5.46152L80.4291 -7.2797L82.2416 -10.419ZM91.2134 3.13237L88.0642 1.31418L86.2517 4.45353L89.4009 6.27171L91.2134 3.13237ZM91.6892 -4.9645L88.54 -6.78268L86.7275 -3.64334L89.8767 -1.82516L91.6892 -4.9645Z" fill="#060607"/>
<path d="M141.098 13.0962C146.315 16.1087 148.111 22.7674 145.108 27.9688L141.483 34.2475C138.48 39.4489 131.815 41.2234 126.598 38.211L110.852 29.1201C105.634 26.1076 103.839 19.4489 106.842 14.2475L110.467 7.96881C113.47 2.76737 120.134 0.992863 125.352 4.00533L141.098 13.0962ZM125.544 14.581L122.395 12.7628L120.583 15.9021L117.434 14.0839L115.621 17.2233L118.769 19.0405L116.958 22.1808L120.107 23.999L121.918 20.8587L125.069 22.6778L126.881 19.5385L123.732 17.7203L125.544 14.581ZM134.516 28.1324L131.367 26.3142L129.554 29.4535L132.704 31.2717L134.516 28.1324ZM134.992 20.0355L131.843 18.2173L130.03 21.3567L133.179 23.1748L134.992 20.0355Z" fill="#060607"/>
<path d="M184.399 38.0962C189.616 41.1087 191.412 47.7674 188.409 52.9688L184.784 59.2475C181.781 64.4489 175.116 66.2234 169.899 63.211L154.153 54.1201C148.935 51.1076 147.14 44.4489 150.143 39.2475L153.768 32.9688C156.771 27.7674 163.435 25.9929 168.653 29.0053L184.399 38.0962ZM168.845 39.581L165.696 37.7628L163.883 40.9021L160.734 39.0839L158.922 42.2233L162.069 44.0405L160.258 47.1808L163.408 48.999L165.219 45.8587L168.369 47.6778L170.182 44.5385L167.033 42.7203L168.845 39.581ZM177.817 53.1324L174.668 51.3142L172.855 54.4535L176.004 56.2717L177.817 53.1324ZM178.293 45.0355L175.144 43.2173L173.331 46.3567L176.48 48.1748L178.293 45.0355Z" fill="#060607"/>
<path d="M227.699 63.0962C232.917 66.1087 234.712 72.7674 231.709 77.9688L228.084 84.2475C225.081 89.4489 218.417 91.2234 213.199 88.211L197.453 79.1201C192.236 76.1076 190.44 69.4489 193.443 64.2475L197.068 57.9688C200.071 52.7674 206.736 50.9929 211.953 54.0053L227.699 63.0962ZM212.146 64.581L208.997 62.7628L207.184 65.9021L204.035 64.0839L202.223 67.2233L205.37 69.0405L203.559 72.1808L206.708 73.999L208.519 70.8587L211.67 72.6778L213.483 69.5385L210.333 67.7203L212.146 64.581ZM221.118 78.1324L217.968 76.3142L216.156 79.4535L219.305 81.2717L221.118 78.1324ZM221.593 70.0355L218.444 68.2173L216.632 71.3567L219.781 73.1748L221.593 70.0355Z" fill="#060607"/>
<path d="M271.002 88.0962C276.22 91.1087 278.015 97.7674 275.012 102.969L271.387 109.247C268.384 114.449 261.72 116.223 256.502 113.211L240.756 104.12C235.538 101.108 233.743 94.4489 236.746 89.2475L240.371 82.9688C243.374 77.7674 250.038 75.9929 255.256 79.0053L271.002 88.0962ZM255.449 89.581L252.299 87.7628L250.487 90.9021L247.338 89.0839L245.525 92.2233L248.673 94.0405L246.862 97.1808L250.011 98.999L251.822 95.8587L254.973 97.6778L256.785 94.5385L253.636 92.7203L255.449 89.581ZM264.42 103.132L261.271 101.314L259.459 104.454L262.608 106.272L264.42 103.132ZM264.896 95.0355L261.747 93.2173L259.935 96.3567L263.084 98.1748L264.896 95.0355Z" fill="#060607"/>
<path d="M314.303 113.096C319.521 116.109 321.316 122.767 318.313 127.969L314.688 134.247C311.685 139.449 305.021 141.223 299.803 138.211L284.057 129.12C278.839 126.108 277.044 119.449 280.047 114.247L283.672 107.969C286.675 102.767 293.339 100.993 298.557 104.005L314.303 113.096ZM298.749 114.581L295.6 112.763L293.788 115.902L290.639 114.084L288.826 117.223L291.974 119.041L290.163 122.181L293.312 123.999L295.123 120.859L298.274 122.678L300.086 119.538L296.937 117.72L298.749 114.581ZM307.721 128.132L304.572 126.314L302.759 129.454L305.909 131.272L307.721 128.132ZM308.197 120.036L305.048 118.217L303.235 121.357L306.384 123.175L308.197 120.036Z" fill="#060607"/>
<path d="M-8.30653 -28.1303C-3.08881 -25.1179 -1.29343 -18.4592 -4.29648 -13.2578L-7.92148 -6.97907C-10.9245 -1.77765 -17.5888 -0.00313598 -22.8065 -3.01559L-38.5525 -12.1065C-43.7702 -15.119 -45.5655 -21.7777 -42.5625 -26.9791L-38.9375 -33.2578C-35.9345 -38.4592 -29.2702 -40.2337 -24.0525 -37.2212L-8.30653 -28.1303ZM-23.8599 -26.6456L-27.0091 -28.4638L-28.8216 -25.3244L-31.9708 -27.1426L-33.7833 -24.0033L-30.6357 -22.186L-32.4466 -19.0458L-29.2974 -17.2276L-27.4865 -20.3678L-24.3357 -18.5487L-22.5232 -21.6881L-25.6724 -23.5063L-23.8599 -26.6456ZM-14.8882 -13.0942L-18.0374 -14.9124L-19.8499 -11.773L-16.7007 -9.95485L-14.8882 -13.0942ZM-14.4124 -21.1911L-17.5616 -23.0092L-19.3741 -19.8699L-16.2249 -18.0517L-14.4124 -21.1911Z" fill="#060607"/>
<path d="M34.9942 -3.13033C40.212 -0.117872 42.0073 6.54081 39.0043 11.7422L35.3793 18.0209C32.3763 23.2223 25.712 24.9969 20.4942 21.9844L4.74833 12.8935C-0.469409 9.88104 -2.26476 3.22235 0.738281 -1.97907L4.36328 -8.25776C7.36633 -13.4592 14.0306 -15.2337 19.2483 -12.2212L34.9942 -3.13033ZM19.4409 -1.64561L16.2917 -3.46379L14.4792 -0.324448L11.33 -2.14263L9.51749 0.996712L12.6651 2.81399L10.8542 5.95424L14.0034 7.77242L15.8143 4.63217L18.965 6.45126L20.7775 3.31192L17.6284 1.49373L19.4409 -1.64561ZM28.4126 11.9058L25.2634 10.0876L23.4509 13.227L26.6001 15.0451L28.4126 11.9058ZM28.8884 3.80894L25.7392 1.99076L23.9267 5.1301L27.0759 6.94828L28.8884 3.80894Z" fill="#060607"/>
<path d="M78.295 21.8697C83.5128 24.8821 85.3081 31.5408 82.3051 36.7422L78.6801 43.0209C75.677 48.2223 69.0128 49.9969 63.795 46.9844L48.0491 37.8935C42.8314 34.881 41.036 28.2223 44.0391 23.0209L47.6641 16.7422C50.6671 11.5408 57.3314 9.7663 62.5491 12.7788L78.295 21.8697ZM62.7416 23.3544L59.5925 21.5362L57.78 24.6756L54.6308 22.8574L52.8183 25.9967L55.9659 27.814L54.155 30.9542L57.3041 32.7724L59.1151 29.6322L62.2658 31.4513L64.0783 28.3119L60.9291 26.4937L62.7416 23.3544ZM71.7134 36.9058L68.5642 35.0876L66.7517 38.227L69.9009 40.0451L71.7134 36.9058ZM72.1892 28.8089L69.04 26.9908L67.2275 30.1301L70.3767 31.9483L72.1892 28.8089Z" fill="#060607"/>
<path d="M121.598 46.8697C126.815 49.8821 128.611 56.5408 125.608 61.7422L121.983 68.0209C118.98 73.2223 112.315 74.9969 107.098 71.9844L91.3518 62.8935C86.1341 59.881 84.3388 53.2223 87.3418 48.0209L90.9668 41.7422C93.9698 36.5408 100.634 34.7663 105.852 37.7788L121.598 46.8697ZM106.044 48.3544L102.895 46.5362L101.083 49.6756L97.9335 47.8574L96.121 50.9967L99.2686 52.814L97.4577 55.9542L100.607 57.7724L102.418 54.6322L105.569 56.4513L107.381 53.3119L104.232 51.4937L106.044 48.3544ZM115.016 61.9058L111.867 60.0876L110.054 63.227L113.204 65.0451L115.016 61.9058ZM115.492 53.8089L112.343 51.9908L110.53 55.1301L113.679 56.9483L115.492 53.8089Z" fill="#060607"/>
<path d="M164.899 71.8697C170.116 74.8821 171.912 81.5408 168.909 86.7422L165.284 93.0209C162.281 98.2223 155.616 99.9969 150.399 96.9844L134.653 87.8935C129.435 84.881 127.64 78.2223 130.643 73.0209L134.268 66.7422C137.271 61.5408 143.935 59.7663 149.153 62.7788L164.899 71.8697ZM149.345 73.3544L146.196 71.5362L144.383 74.6756L141.234 72.8574L139.422 75.9967L142.569 77.814L140.758 80.9542L143.908 82.7724L145.719 79.6322L148.869 81.4513L150.682 78.3119L147.533 76.4937L149.345 73.3544ZM158.317 86.9058L155.168 85.0876L153.355 88.227L156.504 90.0451L158.317 86.9058ZM158.793 78.8089L155.644 76.9908L153.831 80.1301L156.98 81.9483L158.793 78.8089Z" fill="#060607"/>
<path d="M208.199 96.8697C213.417 99.8821 215.212 106.541 212.209 111.742L208.584 118.021C205.581 123.222 198.917 124.997 193.699 121.984L177.953 112.894C172.736 109.881 170.94 103.222 173.943 98.0209L177.568 91.7422C180.571 86.5408 187.236 84.7663 192.453 87.7788L208.199 96.8697ZM192.646 98.3544L189.497 96.5362L187.684 99.6756L184.535 97.8574L182.723 100.997L185.87 102.814L184.059 105.954L187.208 107.772L189.019 104.632L192.17 106.451L193.983 103.312L190.833 101.494L192.646 98.3544ZM201.618 111.906L198.468 110.088L196.656 113.227L199.805 115.045L201.618 111.906ZM202.093 103.809L198.944 101.991L197.132 105.13L200.281 106.948L202.093 103.809Z" fill="#060607"/>
<path d="M251.502 121.87C256.72 124.882 258.515 131.541 255.512 136.742L251.887 143.021C248.884 148.222 242.22 149.997 237.002 146.984L221.256 137.894C216.038 134.881 214.243 128.222 217.246 123.021L220.871 116.742C223.874 111.541 230.538 109.766 235.756 112.779L251.502 121.87ZM235.949 123.354L232.799 121.536L230.987 124.676L227.838 122.857L226.025 125.997L229.173 127.814L227.362 130.954L230.511 132.772L232.322 129.632L235.473 131.451L237.285 128.312L234.136 126.494L235.949 123.354ZM244.92 136.906L241.771 135.088L239.959 138.227L243.108 140.045L244.92 136.906ZM245.396 128.809L242.247 126.991L240.435 130.13L243.584 131.948L245.396 128.809Z" fill="#060607"/>
<path d="M15.4942 30.647C20.712 33.6595 22.5073 40.3182 19.5043 45.5196L15.8793 51.7983C12.8763 56.9997 6.21197 58.7742 0.994248 55.7618L-14.7517 46.6708C-19.9694 43.6584 -21.7648 36.9997 -18.7617 31.7983L-15.1367 25.5196C-12.1337 20.3182 -5.46941 18.5436 -0.251669 21.5561L15.4942 30.647ZM-0.0591445 32.1317L-3.20833 30.3136L-5.02083 33.4529L-8.17001 31.6347L-9.98251 34.7741L-6.8349 36.5913L-8.64583 39.7316L-5.49664 41.5498L-3.68572 38.4095L-0.534961 40.2286L1.27754 37.0893L-1.87164 35.2711L-0.0591445 32.1317ZM8.91259 45.6831L5.76341 43.865L3.95091 47.0043L7.10009 48.8225L8.91259 45.6831ZM9.38841 37.5863L6.23922 35.7681L4.42672 38.9074L7.57591 40.7256L9.38841 37.5863Z" fill="#060607"/>
<path d="M58.795 55.647C64.0128 58.6595 65.8081 65.3182 62.8051 70.5196L59.1801 76.7983C56.177 81.9997 49.5128 83.7742 44.295 80.7618L28.5491 71.6708C23.3314 68.6584 21.536 61.9997 24.5391 56.7983L28.1641 50.5196C31.1671 45.3182 37.8314 43.5436 43.0491 46.5561L58.795 55.647ZM43.2416 57.1317L40.0925 55.3136L38.28 58.4529L35.1308 56.6347L33.3183 59.7741L36.4659 61.5913L34.655 64.7316L37.8041 66.5498L39.6151 63.4095L42.7658 65.2286L44.5783 62.0893L41.4291 60.2711L43.2416 57.1317ZM52.2134 70.6831L49.0642 68.865L47.2517 72.0043L50.4009 73.8225L52.2134 70.6831ZM52.6892 62.5863L49.54 60.7681L47.7275 63.9074L50.8767 65.7256L52.6892 62.5863Z" fill="#060607"/>
<path d="M102.098 80.647C107.315 83.6595 109.111 90.3182 106.108 95.5196L102.483 101.798C99.4798 107 92.8155 108.774 87.5978 105.762L71.8518 96.6708C66.6341 93.6584 64.8388 86.9997 67.8418 81.7983L71.4668 75.5196C74.4698 70.3182 81.1341 68.5436 86.3518 71.5561L102.098 80.647ZM86.5444 82.1317L83.3952 80.3136L81.5827 83.4529L78.4335 81.6347L76.621 84.7741L79.7686 86.5913L77.9577 89.7316L81.1069 91.5498L82.9178 88.4095L86.0686 90.2286L87.8811 87.0893L84.7319 85.2711L86.5444 82.1317ZM95.5161 95.6831L92.3669 93.865L90.5544 97.0043L93.7036 98.8225L95.5161 95.6831ZM95.9919 87.5863L92.8427 85.7681L91.0302 88.9074L94.1794 90.7256L95.9919 87.5863Z" fill="#060607"/>
<path d="M145.399 105.647C150.616 108.659 152.412 115.318 149.409 120.52L145.784 126.798C142.781 132 136.116 133.774 130.899 130.762L115.153 121.671C109.935 118.658 108.14 112 111.143 106.798L114.768 100.52C117.771 95.3182 124.435 93.5436 129.653 96.5561L145.399 105.647ZM129.845 107.132L126.696 105.314L124.883 108.453L121.734 106.635L119.922 109.774L123.069 111.591L121.258 114.732L124.408 116.55L126.219 113.41L129.369 115.229L131.182 112.089L128.033 110.271L129.845 107.132ZM138.817 120.683L135.668 118.865L133.855 122.004L137.004 123.822L138.817 120.683ZM139.293 112.586L136.144 110.768L134.331 113.907L137.48 115.726L139.293 112.586Z" fill="#060607"/>
<path d="M-4.00575 64.4205C1.21197 67.4329 3.00735 74.0916 0.00429678 79.293L-3.6207 85.5717C-6.62374 90.7731 -13.288 92.5476 -18.5058 89.5352L-34.2517 80.4443C-39.4694 77.4318 -41.2648 70.7731 -38.2617 65.5717L-34.6367 59.293C-31.6337 54.0916 -24.9694 52.3171 -19.7517 55.3295L-4.00575 64.4205ZM-19.5591 65.9052L-22.7083 64.087L-24.5208 67.2263L-27.67 65.4082L-29.4825 68.5475L-26.3349 70.3648L-28.1458 73.505L-24.9966 75.3232L-23.1857 72.1829L-20.035 74.002L-18.2225 70.8627L-21.3716 69.0445L-19.5591 65.9052ZM-10.5874 79.4566L-13.7366 77.6384L-15.5491 80.7777L-12.3999 82.5959L-10.5874 79.4566ZM-10.1116 71.3597L-13.2608 69.5415L-15.0733 72.6809L-11.9241 74.4991L-10.1116 71.3597Z" fill="#060607"/>
<path d="M39.295 89.4205C44.5128 92.4329 46.3081 99.0916 43.3051 104.293L39.6801 110.572C36.677 115.773 30.0128 117.548 24.795 114.535L9.04911 105.444C3.83137 102.432 2.03602 95.7731 5.03906 90.5717L8.66406 84.293C11.6671 79.0916 18.3314 77.3171 23.5491 80.3295L39.295 89.4205ZM23.7416 90.9052L20.5925 89.087L18.78 92.2263L15.6308 90.4082L13.8183 93.5475L16.9659 95.3648L15.155 98.505L18.3041 100.323L20.1151 97.1829L23.2658 99.002L25.0783 95.8627L21.9291 94.0445L23.7416 90.9052ZM32.7134 104.457L29.5642 102.638L27.7517 105.778L30.9009 107.596L32.7134 104.457ZM33.1892 96.3597L30.04 94.5415L28.2275 97.6809L31.3767 99.4991L33.1892 96.3597Z" fill="#060607"/>
<path d="M82.5978 114.42C87.8155 117.433 89.6109 124.092 86.6078 129.293L82.9828 135.572C79.9798 140.773 73.3155 142.548 68.0978 139.535L52.3518 130.444C47.1341 127.432 45.3388 120.773 48.3418 115.572L51.9668 109.293C54.9698 104.092 61.6341 102.317 66.8518 105.33L82.5978 114.42ZM67.0444 115.905L63.8952 114.087L62.0827 117.226L58.9335 115.408L57.121 118.547L60.2686 120.365L58.4577 123.505L61.6069 125.323L63.4178 122.183L66.5686 124.002L68.3811 120.863L65.2319 119.045L67.0444 115.905ZM76.0161 129.457L72.8669 127.638L71.0544 130.778L74.2036 132.596L76.0161 129.457ZM76.4919 121.36L73.3427 119.542L71.5302 122.681L74.6794 124.499L76.4919 121.36Z" fill="#060607"/>
</g>
</g>
<defs>
<clipPath id="clip0_509_12585">
<rect width="300" height="110" fill="white"/>
</clipPath>
</defs>
</svg>
