<svg width="18" height="18" viewBox="0 0 18 18" fill="none" xmlns="http://www.w3.org/2000/svg">
<g id="&#229;&#142;&#134;&#229;&#143;&#178;&#232;&#174;&#176;&#229;&#189;&#149;-fill 1" clip-path="url(#clip0_11481_18245)">
<path id="Vector" d="M11.25 5.625H5.0625C4.75312 5.625 4.5 5.37187 4.5 5.0625C4.5 4.75312 4.75312 4.5 5.0625 4.5H11.25C11.5594 4.5 11.8125 4.75312 11.8125 5.0625C11.8125 5.37187 11.5594 5.625 11.25 5.625ZM7.875 9H5.0625C4.75312 9 4.5 8.74687 4.5 8.4375C4.5 8.12812 4.75312 7.875 5.0625 7.875H7.875C8.18438 7.875 8.4375 8.12812 8.4375 8.4375C8.4375 8.74687 8.18438 9 7.875 9Z" fill="#FF9B27"/>
<path id="Vector_2" d="M12.375 7.875C9.88972 7.875 7.875 9.88972 7.875 12.375C7.875 14.8603 9.88972 16.875 12.375 16.875C14.8603 16.875 16.875 14.8603 16.875 12.375C16.875 9.88972 14.8603 7.875 12.375 7.875ZM14.3125 13.4375C14.3125 13.7469 14.0594 14 13.75 14H12.9062H12.0625C11.7531 14 11.5 13.7469 11.5 13.4375V11.1875C11.5 10.8781 11.7531 10.625 12.0625 10.625C12.3719 10.625 12.625 10.8781 12.625 11.1875V12.875H13.75C14.0594 12.875 14.3125 13.1281 14.3125 13.4375Z" fill="url(#paint0_linear_11481_18245)"/>
<path id="Vector_3" d="M7.50271 15.1875H3.9375C3.31875 15.1875 2.8125 14.6812 2.8125 14.0625V3.375C2.8125 2.75625 3.31875 2.25 3.9375 2.25H12.375C12.9937 2.25 13.5 2.75625 13.5 3.375V6.86262C13.8865 6.94116 14.2636 7.06046 14.625 7.21851V3.375C14.625 2.1375 13.6125 1.125 12.375 1.125H3.9375C2.7 1.125 1.6875 2.1375 1.6875 3.375V14.0625C1.6875 15.3 2.7 16.3125 3.9375 16.3125H8.35849C8.02849 15.9759 7.7403 15.5982 7.50271 15.1875Z" fill="#FF9B27"/>
</g>
<defs>
<linearGradient id="paint0_linear_11481_18245" x1="9.5" y1="9" x2="14.5" y2="16.5" gradientUnits="userSpaceOnUse">
<stop stop-color="#FFD19B"/>
<stop offset="1" stop-color="#FF9B27"/>
</linearGradient>
<clipPath id="clip0_11481_18245">
<rect width="18" height="18" fill="white"/>
</clipPath>
</defs>
</svg>
