<svg xmlns="http://www.w3.org/2000/svg" xmlns:xlink="http://www.w3.org/1999/xlink" width="16" height="16" viewBox="0 0 16 16">
  <defs>
    <clipPath id="clip-path">
      <rect id="矩形_31897" data-name="矩形 31897" width="16" height="16" transform="translate(-0.388 -0.388)" fill="#fff" stroke="#707070" stroke-width="1"/>
    </clipPath>
  </defs>
  <g id="12f" data-name="蒙版组 1386" transform="translate(0.388 0.388)" clip-path="url(#clip-path)" fill="#bbb">
    <path id="左" d="M3.029,13.215,8.8,7.445l-5.77-5.77a1.012,1.012,0,0,1,0-1.4,1.012,1.012,0,0,1,1.4,0L10.847,6.7a.961.961,0,0,1,.372.745,1.238,1.238,0,0,1-.279.745L4.518,14.611a1.012,1.012,0,0,1-1.4,0A.937.937,0,0,1,3.029,13.215Z" transform="translate(0.628 0.167)" />
  </g>
</svg>
