<?xml version="1.0" standalone="no"?><!DOCTYPE svg PUBLIC "-//W3C//DTD SVG 1.1//EN" "http://www.w3.org/Graphics/SVG/1.1/DTD/svg11.dtd"><svg t="1688822118119" class="icon" viewBox="0 0 1024 1024" version="1.1" xmlns="http://www.w3.org/2000/svg" p-id="34221" xmlns:xlink="http://www.w3.org/1999/xlink" width="200" height="200"><path d="M102.057733 273.529426V152.870673a50.924903 50.924903 0 0 1 50.956892-50.956891h120.626764a50.956891 50.956891 0 0 0 0-101.913782H109.990758A110.070723 110.070723 0 0 0 0.015999 110.006747v163.522679a51.180807 51.180807 0 0 0 102.041734 0z m648.108959-171.615644h120.626765a50.924903 50.924903 0 0 1 50.956892 50.956891v120.658753a50.956891 50.956891 0 1 0 101.913782 0V110.006747A110.070723 110.070723 0 0 0 913.689371 0h-163.490691a50.956891 50.956891 0 0 0 0 101.913782z m-476.621267 819.852556H152.918661a50.924903 50.924903 0 0 1-50.956892-50.956892v-120.658753a50.956891 50.956891 0 1 0-101.881794 0v163.522679a110.070723 110.070723 0 0 0 109.974759 110.006748h163.490691a50.956891 50.956891 0 0 0 0-101.913782z m648.10896-171.615645v120.658753a50.924903 50.924903 0 0 1-50.956892 50.956892h-120.626765a50.956891 50.956891 0 0 0 0 101.913782h163.490691a110.070723 110.070723 0 0 0 109.97476-110.006748v-163.522679a50.956891 50.956891 0 1 0-101.913782 0z" fill="#2BC24E" p-id="34222"></path><path d="M824.826695 564.044483H198.981387a52.236411 52.236411 0 0 1 0-104.440834h625.845308a52.236411 52.236411 0 0 1 0 104.440834z" fill="#02A9F1" p-id="34223"></path></svg>