<svg width="28" height="28" viewBox="0 0 28 28" fill="none" xmlns="http://www.w3.org/2000/svg">
<path fill-rule="evenodd" clip-rule="evenodd" d="M14 28C21.732 28 28 21.732 28 14C28 6.26801 21.732 0 14 0C6.26801 0 0 6.26801 0 14C0 21.732 6.26801 28 14 28Z" fill="#FFF0DA"/>
<mask id="mask0_14007_21657" style="mask-type:luminance" maskUnits="userSpaceOnUse" x="0" y="0" width="28" height="28">
<path fill-rule="evenodd" clip-rule="evenodd" d="M14 28C21.732 28 28 21.732 28 14C28 6.26801 21.732 0 14 0C6.26801 0 0 6.26801 0 14C0 21.732 6.26801 28 14 28Z" fill="white"/>
</mask>
<g mask="url(#mask0_14007_21657)">
<path d="M27.5 14C27.5 21.4558 21.4558 27.5 14 27.5C6.54416 27.5 0.5 21.4558 0.5 14C0.5 6.54416 6.54416 0.5 14 0.5C21.4558 0.5 27.5 6.54416 27.5 14Z" stroke="white"/>
<path d="M14 20C13.5032 20 13.1 19.6104 13.1 19.1304C13.1 18.6503 13.5032 18.2608 14 18.2608C14.4968 18.2608 14.9 18.6503 14.9 19.1304C14.9 19.6104 14.4968 20 14 20ZM15.6608 14.0727C15.1388 14.5765 14.6 15.0971 14.6 15.565V16.5453C14.6 16.8654 14.3312 17.1251 14 17.1251C13.6688 17.1251 13.4 16.8654 13.4 16.5453V15.565C13.4 14.6165 14.15 13.8918 14.8124 13.2524C15.2978 12.7834 15.8 12.2987 15.8 11.912C15.8 10.9456 14.9924 10.1595 14 10.1595C12.9908 10.1595 12.2 10.912 12.2 11.8726C12.2 12.1926 11.9312 12.4523 11.6 12.4523C11.2688 12.4523 11 12.1926 11 11.8726C11 10.2888 12.3458 9 14 9C15.6542 9 17 10.3061 17 11.912C17 12.7793 16.319 13.4367 15.6608 14.0727Z" fill="#ECCD9D"/>
</g>
</svg>
