<svg width="16" height="17" viewBox="0 0 16 17" fill="none" xmlns="http://www.w3.org/2000/svg">
<path d="M8 1.5C4.134 1.5 1 4.634 1 8.5C1 12.366 4.134 15.5 8 15.5C11.866 15.5 15 12.366 15 8.5C15 4.634 11.866 1.5 8 1.5ZM8.75 12.25C8.75 12.6625 8.4125 13 8 13C7.5875 13 7.25 12.6625 7.25 12.25C7.25 11.8375 7.5875 11.5 8 11.5C8.4125 11.5 8.75 11.8375 8.75 12.25ZM8.84375 9.5C8.67188 9.67188 8.5 9.875 8.5 10.5C8.5 10.7761 8.27614 11 8 11C7.72386 11 7.5 10.7761 7.5 10.5C7.5 9.85938 7.62095 9.3942 8 9C8.39062 8.59375 9.5 7.90625 9.5 7C9.5 6 8.59375 5.5 8 5.5C7.375 5.5 6.5 5.875 6.5 7C6.5 7.27614 6.27614 7.5 6 7.5C5.72386 7.5 5.5 7.27614 5.5 7C5.5 6.99477 5.50023 6.98958 5.50039 6.98438H5.5C5.5 5.29688 6.78125 4.5 8 4.5C9.25 4.5 10.5 5.34375 10.5 7C10.5 8.3125 9.28153 9.06222 8.84375 9.5Z" fill="#EEA368"/>
</svg>
