<svg width="870" height="550" viewBox="0 0 870 550" fill="none" xmlns="http://www.w3.org/2000/svg">
<g clip-path="url(#clip0_645_16462)">
<rect width="870" height="550" rx="10" fill="black"/>
<rect width="870" height="550" fill="url(#paint0_linear_645_16462)"/>
<path d="M321 44.381C319.297 44.381 312.72 37.2842 309.645 33.7358C308.226 35.8649 304.819 40.2649 302.548 40.8326C304.914 43.1982 309.645 48.2133 309.645 49.3487C310.828 48.1659 313.477 45.6584 314.613 45.0907C313.667 44.1444 311.645 42.2358 310 39.7358C309.645 40.8326 308.394 42.4107 308.5 43.2358C309.894 43.4107 310.5 44.2358 311 45.2358L309.645 45.7358C308.226 44.0799 307 42.7358 306 41.7358C307.419 40.553 310 38.8036 310 38.2358C312.855 41.7842 314.613 42.7358 316.5 44.7358C314.5 46.7358 311 49.7358 309.645 51.2358C306.93 48.2358 302.5 42.2358 300.5 42.2358L296 43.7358L294 42.7358H230L240 45.0907H294L296 47.0907L299.5 44.7358C302.339 45.3036 307 52.2358 309.645 55.7358C309.645 54.0326 317.215 47.4563 321 44.381Z" fill="url(#paint1_linear_645_16462)"/>
<path d="M547 44.381C548.703 44.381 555.28 37.2842 558.355 33.7358C559.774 35.8649 563.181 40.2649 565.452 40.8326C563.086 43.1982 558.355 48.2133 558.355 49.3487C557.172 48.1659 554.523 45.6584 553.387 45.0907C554.333 44.1444 556.355 42.2358 558 39.7358C558.355 40.8326 559.606 42.4107 559.5 43.2358C558.106 43.4107 557.5 44.2358 557 45.2358L558.355 45.7358C559.774 44.0799 561 42.7358 562 41.7358C560.581 40.553 558 38.8036 558 38.2358C555.145 41.7842 553.387 42.7358 551.5 44.7358C553.5 46.7358 557 49.7358 558.355 51.2358C561.07 48.2358 565.5 42.2358 567.5 42.2358L572 43.7358L574 42.7358H638L628 45.0907H574L572 47.0907L568.5 44.7358C565.661 45.3036 561 52.2358 558.355 55.7358C558.355 54.0326 550.785 47.4563 547 44.381Z" fill="url(#paint2_linear_645_16462)"/>
<path d="M339.992 56.536C341.144 50.776 341.72 44.5893 341.72 37.976H345.272C345.272 45.0373 344.771 51.224 343.768 56.536H339.992ZM340.632 32.696H346.616V29.24H350.648V32.696H352.76V36.664H350.648V40.728L352.888 42.136V46.968L350.648 45.56V58.2H346.616V36.664H340.632V32.696ZM353.144 53.496C355.427 52.0453 357.389 50.1893 359.032 47.928C356.963 44.3227 355.565 40.0453 354.84 35.096H353.496V31H368.472C368.024 37.6133 366.488 43.256 363.864 47.928C365.549 50.2107 367.512 52.0667 369.752 53.496V58.584C366.488 56.7707 363.715 54.424 361.432 51.544C359.192 54.424 356.429 56.7707 353.144 58.584V53.496ZM358.808 35.096C359.363 38.4027 360.248 41.3147 361.464 43.832C362.659 41.272 363.533 38.36 364.088 35.096H358.808ZM371.96 53.752H374.36V45.048C374.04 45.1547 373.56 45.2933 372.92 45.464V41.08C376.035 40.2693 378.307 39.064 379.736 37.464H373.304V33.432H379.128L377.272 29.016H381.88L383.736 33.432H390.264L392.12 29.016H396.728L394.872 33.432H400.696V37.464H394.264C395.693 39.064 397.965 40.2693 401.08 41.08V45.464C400.44 45.2933 399.96 45.1547 399.64 45.048V53.752H402.04V57.816H371.96V53.752ZM398.04 44.504C393.752 42.8827 390.787 40.536 389.144 37.464H384.856C383.213 40.536 380.248 42.8827 375.96 44.504H398.04ZM381.496 53.752V48.536H378.456V53.752H381.496ZM388.504 53.752V48.536H385.496V53.752H388.504ZM395.544 53.752V48.536H392.504V53.752H395.544ZM418.04 40.312H421.976L424.376 50.104H420.44L418.04 40.312ZM404.888 31.448H417.336L417.112 34.904C416.984 37.592 416.643 40.0453 416.088 42.264C415.533 44.4613 414.733 46.52 413.688 48.44C414.755 49.9333 416.131 51.3413 417.816 52.664V58.008C415.235 56.088 413.091 54.0507 411.384 51.896C409.635 54.072 407.48 56.1093 404.92 58.008V52.664C406.605 51.3413 407.981 49.9333 409.048 48.44C408.003 46.5627 407.203 44.536 406.648 42.36C406.115 40.184 405.773 37.784 405.624 35.16H404.888V31.448ZM409.56 35.16C409.709 38.6373 410.317 41.6773 411.384 44.28C412.429 41.656 413.027 38.616 413.176 35.16H409.56ZM417.912 33.112H426.648V29.4H430.744V33.112H433.56V37.208H430.744L430.712 58.2H423.48V54.04H426.648V37.208H417.912V33.112ZM453.272 29.4H457.496V37.208C460.12 36.6747 462.755 35.9493 465.4 35.032V39.384C462.989 40.28 460.355 40.9947 457.496 41.528V53.72H465.72V57.944H453.272V29.4ZM436.28 54.136L438.648 53.72V29.4H442.872V37.752H450.776V41.944H442.872V52.952L451.192 51.448V55.704L436.28 58.392V54.136ZM479.288 33.656H482.264L480.888 29.4H485.016L486.392 33.656H489.656L491 29.4H495.128L493.784 33.656H496.76V47H493.752V54.104H498.04V58.008H489.656V47H486.584C486.477 49.0693 486.136 51 485.56 52.792C484.984 54.5627 484.141 56.3653 483.032 58.2H477.56C479.245 56.344 480.461 54.552 481.208 52.824C481.955 51.0747 482.381 49.1333 482.488 47H479.288V33.656ZM468.12 38.52H475.192V51.992L478.136 50.968V55.736L471.032 58.2V42.776H468.12V38.52ZM474.04 29.4L476.248 36.344H471.896L469.688 29.4H474.04ZM492.632 43.032V37.624H483.416V43.032H492.632ZM512.504 55.448L501.08 55.416V30.04L512.504 30.072V55.448ZM508.472 51.512V44.472L505.112 44.44V51.48L508.472 51.512ZM508.472 40.632V34.008L505.112 33.976V40.6L508.472 40.632ZM512.856 58.2C513.667 56.0667 514.221 53.9333 514.52 51.8C514.84 49.6453 515 47.2667 515 44.664V29.784H528.568V58.2H524.504V50.136H518.872C518.595 52.9307 518.093 55.6187 517.368 58.2H512.856ZM524.504 46.2V42.008H519.096V44.664V46.2H524.504ZM524.504 38.072V33.88H519.096V38.072H524.504Z" fill="url(#paint3_linear_645_16462)"/>
<g clip-path="url(#clip1_645_16462)">
<path d="M79 120C79 111.163 86.1634 104 95 104H359V500H95C86.1634 500 79 492.837 79 484V120Z" fill="#F8F8F8"/>
<rect width="280" height="126" transform="translate(79 104)" fill="url(#paint4_linear_645_16462)"/>
<rect width="280" height="45" transform="translate(79 455)" fill="#ECECEC"/>
</g>
<path d="M95 105H358V499H95C86.7157 499 80 492.284 80 484V120C80 111.716 86.7157 105 95 105Z" stroke="url(#paint5_linear_645_16462)" stroke-width="2"/>
<g clip-path="url(#clip2_645_16462)">
<path d="M510 104H774C782.837 104 790 111.163 790 120V484C790 492.837 782.837 500 774 500H510V104Z" fill="url(#paint6_linear_645_16462)"/>
<path d="M510 104H774C782.837 104 790 111.163 790 120V484C790 492.837 782.837 500 774 500H510V104Z" fill="#FFF4EB"/>
<g clip-path="url(#clip3_645_16462)">
<rect width="280" height="126" transform="translate(510 104)" fill="url(#paint7_linear_645_16462)"/>
<g clip-path="url(#clip4_645_16462)">
<path d="M504.105 172.234L504.213 172.034L504.057 171.868C498.009 165.42 494.305 156.749 494.305 147.211C494.305 127.304 510.443 111.166 530.35 111.166C543.741 111.166 555.427 118.468 561.643 129.309L561.756 129.506L561.978 129.463C567.133 128.469 572.456 127.948 577.901 127.948C583.347 127.948 588.67 128.469 593.825 129.463L594.047 129.506L594.16 129.309C600.375 118.468 612.062 111.166 625.453 111.166C645.36 111.166 661.498 127.304 661.498 147.211C661.498 156.749 657.794 165.42 651.746 171.868L651.59 172.034L651.697 172.234C657.952 183.952 661.498 197.334 661.498 211.545V218.205C661.498 229.8 652.099 239.199 640.504 239.199H515.299C503.704 239.199 494.305 229.8 494.305 218.205V211.545C494.305 197.334 497.851 183.952 504.105 172.234Z" fill="url(#paint8_linear_645_16462)" stroke="url(#paint9_linear_645_16462)" stroke-width="0.634757"/>
<mask id="mask0_645_16462" style="mask-type:alpha" maskUnits="userSpaceOnUse" x="510" y="139" width="143" height="143">
<circle cx="581.463" cy="210.528" r="71.1999" fill="url(#paint10_linear_645_16462)"/>
</mask>
<g mask="url(#mask0_645_16462)">
<circle cx="581.462" cy="210.528" r="14.6224" stroke="#E3AA80" stroke-width="1.26951"/>
<circle cx="581.462" cy="210.528" r="19.7081" stroke="#E3AA80" stroke-width="1.26951"/>
<circle cx="581.463" cy="210.528" r="24.7938" stroke="#E3AA80" stroke-width="1.26951"/>
<circle cx="581.461" cy="210.528" r="29.8795" stroke="#E3AA80" stroke-width="1.26951"/>
<circle cx="581.462" cy="210.528" r="34.9652" stroke="#E3AA80" stroke-width="1.26951"/>
<circle cx="581.463" cy="210.528" r="40.0509" stroke="#E3AA80" stroke-width="1.26951"/>
<circle cx="581.462" cy="210.528" r="45.1366" stroke="#E3AA80" stroke-width="1.26951"/>
<circle cx="581.463" cy="210.528" r="50.2223" stroke="#E3AA80" stroke-width="1.26951"/>
<circle cx="581.461" cy="210.528" r="55.308" stroke="#E3AA80" stroke-width="1.26951"/>
<circle cx="581.463" cy="210.528" r="60.3937" stroke="#E3AA80" stroke-width="1.26951"/>
<circle cx="581.462" cy="210.528" r="65.4794" stroke="#E3AA80" stroke-width="1.26951"/>
<circle cx="581.463" cy="210.528" r="70.5651" stroke="#E3AA80" stroke-width="1.26951"/>
</g>
<mask id="mask1_645_16462" style="mask-type:alpha" maskUnits="userSpaceOnUse" x="501" y="116" width="60" height="59">
<circle cx="530.858" cy="145.685" r="29.2428" fill="url(#paint11_linear_645_16462)"/>
</mask>
<g mask="url(#mask1_645_16462)">
<circle cx="530.857" cy="145.685" r="5.63156" stroke="#E3AA80" stroke-width="1.26951"/>
<circle cx="530.857" cy="145.685" r="7.72033" stroke="#E3AA80" stroke-width="1.26951"/>
<circle cx="530.858" cy="145.685" r="9.8091" stroke="#E3AA80" stroke-width="1.26951"/>
<circle cx="530.858" cy="145.685" r="11.8979" stroke="#E3AA80" stroke-width="1.26951"/>
<circle cx="530.858" cy="145.685" r="13.9867" stroke="#E3AA80" stroke-width="1.26951"/>
<circle cx="530.859" cy="145.685" r="16.0754" stroke="#E3AA80" stroke-width="1.26951"/>
<circle cx="530.859" cy="145.685" r="18.1642" stroke="#E3AA80" stroke-width="1.26951"/>
<circle cx="530.858" cy="145.685" r="20.253" stroke="#E3AA80" stroke-width="1.26951"/>
<circle cx="530.857" cy="145.685" r="22.3417" stroke="#E3AA80" stroke-width="1.26951"/>
<circle cx="530.858" cy="145.685" r="24.4305" stroke="#E3AA80" stroke-width="1.26951"/>
<circle cx="530.858" cy="145.685" r="26.5193" stroke="#E3AA80" stroke-width="1.26951"/>
<circle cx="530.858" cy="145.685" r="28.6081" stroke="#E3AA80" stroke-width="1.26951"/>
</g>
</g>
<path d="M790.215 104H730.215L744.215 150L790.215 164V104Z" fill="#FD742C"/>
<g filter="url(#filter0_d_645_16462)">
<path d="M730.215 104V148C730.215 156.837 737.378 164 746.215 164H790.215L730.215 104Z" fill="white"/>
</g>
<path d="M765.106 127.785L764.285 128.607L759.77 124.093L759.167 124.697L758.266 123.796L763.701 118.361C763.298 118.433 762.945 118.49 762.641 118.529L763.087 117.173C763.951 117.034 764.783 116.823 765.581 116.539C766.387 116.249 767.205 115.873 768.037 115.411L768.789 116.5C768.089 116.856 767.469 117.146 766.928 117.371L768.65 119.093C769.007 118.394 769.287 117.823 769.492 117.381L770.561 117.995C770.145 118.886 769.818 119.562 769.581 120.024L771.135 121.578L770.304 122.41L768.462 120.568L767.284 121.746L768.977 123.439L768.165 124.251L766.472 122.558L765.294 123.736L766.987 125.429L766.166 126.251L764.473 124.558L763.176 125.855L765.106 127.785ZM762.265 118.668L761.849 119.202L761.394 118.965C761.321 118.932 761.087 118.816 760.691 118.618L758.058 121.251C757.781 121.529 757.533 121.704 757.315 121.776C757.098 121.862 756.876 121.852 756.652 121.746C756.434 121.647 756.174 121.446 755.87 121.143L755.207 120.479L755.959 119.371L756.553 119.965C756.758 120.169 756.913 120.278 757.018 120.291C757.137 120.304 757.292 120.215 757.484 120.024L759.483 118.024L758.187 117.401L758.969 116.242C759.338 116.454 759.84 116.718 760.473 117.034L762.463 115.044L761.463 114.045L762.384 113.124L763.384 114.124L765.007 112.5L765.908 113.401L764.285 115.025L765.096 115.836L764.176 116.757L763.364 115.945L761.681 117.628L762.691 118.103L762.265 118.668ZM764.7 119.163L766.383 120.846L767.561 119.668L765.878 117.985L764.7 119.163ZM762.711 121.152L764.394 122.835L765.572 121.657L763.889 119.974L762.711 121.152ZM763.572 123.657L761.889 121.974L760.592 123.271L762.275 124.954L763.572 123.657ZM773.768 128.052C773.042 128.25 772.254 128.386 771.402 128.458L767.175 132.685L766.245 131.755L769.502 128.498C768.809 128.465 768.06 128.396 767.254 128.29L767.908 126.963C769.564 127.26 771.165 127.27 772.709 126.993L770.571 124.855L771.392 124.033L774.026 126.667C774.211 126.614 774.474 126.521 774.818 126.389L774.125 125.696L774.659 125.162L772.402 122.905L773.234 122.073L775.491 124.33L776.233 123.588L777.144 124.499L776.402 125.241L778.738 127.577L779.48 126.835L780.381 127.736L779.639 128.478L781.856 130.696L781.025 131.527L778.807 129.31L778.193 129.923L777.293 129.023L777.906 128.409L775.57 126.073L775.115 126.528L775.689 127.439L775.035 127.676L779.975 132.616L779.154 133.438L773.768 128.052ZM776.649 136.061L775.847 136.863L773.541 134.556L772.521 135.576C772.217 135.88 771.947 136.071 771.709 136.15C771.472 136.243 771.227 136.229 770.977 136.111C770.726 135.992 770.422 135.754 770.066 135.398L768.898 134.23L769.541 133.25L770.571 134.279C770.841 134.55 771.062 134.698 771.234 134.725C771.412 134.744 771.604 134.652 771.808 134.448L772.62 133.636L769.937 130.953L770.739 130.151L773.422 132.834L773.679 132.577L775.827 133.042L772.412 129.626L773.194 128.844L778.094 133.745L777.372 134.467L774.352 133.745L774.342 133.755L776.649 136.061Z" fill="white"/>
</g>
<rect width="280" height="45" transform="translate(510 455)" fill="#FFE7CB"/>
</g>
<path d="M511 105H774C782.284 105 789 111.716 789 120V484C789 492.284 782.284 499 774 499H511V105Z" stroke="url(#paint12_linear_645_16462)" stroke-width="2"/>
<g clip-path="url(#clip5_645_16462)">
<path d="M356 93H514V500H356V93Z" fill="url(#paint13_linear_645_16462)"/>
<g opacity="0.8">
<path d="M435 230L356 172L514 172L435 230Z" fill="url(#paint14_linear_645_16462)"/>
<path d="M420.685 180.52L430.445 158.48C431.939 155.733 434.045 154.36 436.765 154.36H439.445C439.445 154.36 439.445 154.373 439.445 154.4L424.085 189.04H414.885L408.125 154.36H411.885C413.059 154.36 414.085 154.733 414.965 155.48C415.845 156.2 416.405 157.147 416.645 158.32L420.645 180.52H420.685ZM460.1 172.28C460.66 173 461.087 173.853 461.38 174.84C461.647 175.827 461.687 177 461.5 178.36C461.233 180.093 460.673 181.627 459.82 182.96C458.967 184.293 457.913 185.4 456.66 186.28C455.38 187.16 453.953 187.827 452.38 188.28C450.78 188.733 449.113 188.96 447.38 188.96C446.207 188.96 445.14 188.867 444.18 188.68C443.193 188.493 442.327 188.267 441.58 188C440.86 187.733 440.26 187.453 439.78 187.16C439.327 186.867 439.007 186.613 438.82 186.4L439.38 185.08C439.833 184.067 440.527 183.307 441.46 182.8C442.393 182.293 443.38 182.2 444.42 182.52C444.58 182.573 444.713 182.613 444.82 182.64C445.753 182.933 446.86 183.08 448.14 183.08C448.967 183.08 449.727 182.973 450.42 182.76C451.113 182.573 451.727 182.293 452.26 181.92C452.767 181.573 453.18 181.133 453.5 180.6C453.82 180.067 454.033 179.467 454.14 178.8C454.247 178.053 454.127 177.413 453.78 176.88C453.433 176.32 452.953 175.827 452.34 175.4C451.727 175 451.02 174.613 450.22 174.24C449.42 173.867 448.593 173.467 447.74 173.04C446.887 172.64 446.073 172.173 445.3 171.64C444.527 171.133 443.847 170.507 443.26 169.76C442.7 169.04 442.287 168.173 442.02 167.16C441.727 166.173 441.687 164.987 441.9 163.6C442.14 162.133 442.66 160.853 443.46 159.76C444.26 158.56 445.22 157.56 446.34 156.76C447.487 155.96 448.78 155.36 450.22 154.96C451.687 154.56 453.193 154.36 454.74 154.36C455.54 154.36 456.34 154.427 457.14 154.56C457.913 154.667 458.633 154.827 459.3 155.04C459.967 155.253 460.553 155.48 461.06 155.72C461.247 155.827 461.433 155.933 461.62 156.04C461.833 156.147 462.007 156.253 462.14 156.36C462.273 156.44 462.34 156.48 462.34 156.48L461.38 158.56C460.42 160.4 458.833 160.947 456.62 160.2C456.62 160.2 456.607 160.2 456.58 160.2C455.753 159.933 454.927 159.747 454.1 159.64C453.3 159.64 452.58 159.747 451.94 159.96C451.407 160.147 450.953 160.387 450.58 160.68C450.153 161 449.807 161.387 449.54 161.84C449.3 162.267 449.14 162.733 449.06 163.24C448.953 163.987 449.073 164.627 449.42 165.16C449.74 165.72 450.22 166.2 450.86 166.6C451.5 167.027 452.22 167.427 453.02 167.8C453.847 168.173 454.687 168.56 455.54 168.96C456.393 169.387 457.22 169.867 458.02 170.4C458.82 170.907 459.513 171.533 460.1 172.28Z" fill="url(#paint15_linear_645_16462)"/>
</g>
<rect width="158" height="45" transform="translate(356 454)" fill="url(#paint16_linear_645_16462)"/>
<path d="M446.888 118.213C439.823 123.435 430.177 123.435 423.112 118.213L389 93L481 93L446.888 118.213Z" fill="url(#paint17_linear_645_16462)"/>
</g>
<g clip-path="url(#clip6_645_16462)">
<path d="M347.813 94.7812C348.554 93.6684 349.803 93 351.141 93H360V105H341L347.813 94.7812Z" fill="url(#paint18_linear_645_16462)"/>
<path d="M351 93L357 93V105H356V98C356 95.2386 353.761 93 351 93V93Z" fill="#EFE2CF"/>
</g>
<g clip-path="url(#clip7_645_16462)">
<path d="M522.187 94.7812C521.446 93.6684 520.197 93 518.859 93H510V105H529L522.187 94.7812Z" fill="url(#paint19_linear_645_16462)"/>
<path d="M519 93L513 93V105H514V98C514 95.2386 516.239 93 519 93V93Z" fill="#FEEFD7"/>
</g>
</g>
<defs>
<filter id="filter0_d_645_16462" x="722.215" y="99" width="78" height="78" filterUnits="userSpaceOnUse" color-interpolation-filters="sRGB">
<feFlood flood-opacity="0" result="BackgroundImageFix"/>
<feColorMatrix in="SourceAlpha" type="matrix" values="0 0 0 0 0 0 0 0 0 0 0 0 0 0 0 0 0 0 127 0" result="hardAlpha"/>
<feOffset dx="1" dy="4"/>
<feGaussianBlur stdDeviation="4.5"/>
<feComposite in2="hardAlpha" operator="out"/>
<feColorMatrix type="matrix" values="0 0 0 0 0.854167 0 0 0 0 0.538939 0 0 0 0 0.192188 0 0 0 1 0"/>
<feBlend mode="normal" in2="BackgroundImageFix" result="effect1_dropShadow_645_16462"/>
<feBlend mode="normal" in="SourceGraphic" in2="effect1_dropShadow_645_16462" result="shape"/>
</filter>
<linearGradient id="paint0_linear_645_16462" x1="486" y1="550" x2="486" y2="14.5" gradientUnits="userSpaceOnUse">
<stop stop-color="#FFFBF5"/>
<stop offset="1" stop-color="#FFEED3"/>
</linearGradient>
<linearGradient id="paint1_linear_645_16462" x1="275.5" y1="33.7358" x2="275.5" y2="55.7358" gradientUnits="userSpaceOnUse">
<stop stop-color="#8D6E4C"/>
<stop offset="1" stop-color="#EAB881"/>
</linearGradient>
<linearGradient id="paint2_linear_645_16462" x1="592.5" y1="33.7358" x2="592.5" y2="55.7358" gradientUnits="userSpaceOnUse">
<stop stop-color="#8D6E4C"/>
<stop offset="1" stop-color="#EAB881"/>
</linearGradient>
<linearGradient id="paint3_linear_645_16462" x1="435.425" y1="30.2248" x2="435.425" y2="51.3974" gradientUnits="userSpaceOnUse">
<stop stop-color="#9A7141"/>
<stop offset="1" stop-color="#3E3C3C"/>
</linearGradient>
<linearGradient id="paint4_linear_645_16462" x1="265" y1="126" x2="8.00001" y2="5.19906e-06" gradientUnits="userSpaceOnUse">
<stop stop-color="#EEEEEE"/>
<stop offset="0.620775" stop-color="#EBEBEB"/>
<stop offset="1" stop-color="#F9F9F9"/>
</linearGradient>
<linearGradient id="paint5_linear_645_16462" x1="219" y1="104" x2="219" y2="500" gradientUnits="userSpaceOnUse">
<stop stop-color="white"/>
<stop offset="1" stop-color="white"/>
</linearGradient>
<linearGradient id="paint6_linear_645_16462" x1="650" y1="104" x2="650" y2="500" gradientUnits="userSpaceOnUse">
<stop stop-color="white"/>
<stop offset="1" stop-color="#FFF0DA"/>
</linearGradient>
<linearGradient id="paint7_linear_645_16462" x1="11.6904" y1="10.4553" x2="255.67" y2="128.785" gradientUnits="userSpaceOnUse">
<stop stop-color="#FEF6F3"/>
<stop offset="1" stop-color="#FFE3C0"/>
</linearGradient>
<linearGradient id="paint8_linear_645_16462" x1="509.499" y1="127.631" x2="584.513" y2="239.517" gradientUnits="userSpaceOnUse">
<stop stop-color="#FFD7AF"/>
<stop offset="0.563716" stop-color="#FFE0C1" stop-opacity="0"/>
</linearGradient>
<linearGradient id="paint9_linear_645_16462" x1="547.896" y1="110.848" x2="519.162" y2="218.919" gradientUnits="userSpaceOnUse">
<stop stop-color="white"/>
<stop offset="1" stop-color="white" stop-opacity="0"/>
</linearGradient>
<linearGradient id="paint10_linear_645_16462" x1="589.6" y1="123.817" x2="536.708" y2="223.497" gradientUnits="userSpaceOnUse">
<stop stop-color="#D9D9D9"/>
<stop offset="0.812534" stop-color="#D9D9D9" stop-opacity="0"/>
</linearGradient>
<linearGradient id="paint11_linear_645_16462" x1="514.838" y1="121.528" x2="540.521" y2="167.808" gradientUnits="userSpaceOnUse">
<stop stop-color="#D9D9D9"/>
<stop offset="0.650624" stop-color="#D9D9D9" stop-opacity="0"/>
</linearGradient>
<linearGradient id="paint12_linear_645_16462" x1="650" y1="104" x2="650" y2="500" gradientUnits="userSpaceOnUse">
<stop stop-color="white"/>
<stop offset="1" stop-color="white"/>
</linearGradient>
<linearGradient id="paint13_linear_645_16462" x1="362.597" y1="126.772" x2="531.443" y2="141.078" gradientUnits="userSpaceOnUse">
<stop stop-color="#EEE2CE"/>
<stop offset="0.427083" stop-color="#FFFAF3"/>
<stop offset="1" stop-color="#FDEACD"/>
</linearGradient>
<linearGradient id="paint14_linear_645_16462" x1="435" y1="230" x2="435" y2="172" gradientUnits="userSpaceOnUse">
<stop stop-color="#F4D8B7"/>
<stop offset="1" stop-color="#FFEAD2" stop-opacity="0"/>
</linearGradient>
<linearGradient id="paint15_linear_645_16462" x1="435" y1="150" x2="435" y2="202" gradientUnits="userSpaceOnUse">
<stop stop-color="#6F5032"/>
<stop offset="1" stop-color="#B77534"/>
</linearGradient>
<linearGradient id="paint16_linear_645_16462" x1="2.94298e-07" y1="22.5" x2="158" y2="22.5" gradientUnits="userSpaceOnUse">
<stop stop-color="#EECD9E"/>
<stop offset="1" stop-color="#ED9D60"/>
</linearGradient>
<linearGradient id="paint17_linear_645_16462" x1="435" y1="127" x2="435" y2="93" gradientUnits="userSpaceOnUse">
<stop stop-color="#C69D65"/>
<stop offset="1" stop-color="#FFEAD2" stop-opacity="0"/>
</linearGradient>
<linearGradient id="paint18_linear_645_16462" x1="354.5" y1="93" x2="354.5" y2="105" gradientUnits="userSpaceOnUse">
<stop stop-color="#8D602D"/>
<stop offset="1" stop-color="#EBBF97"/>
</linearGradient>
<linearGradient id="paint19_linear_645_16462" x1="515.5" y1="93" x2="515.5" y2="105" gradientUnits="userSpaceOnUse">
<stop stop-color="#8D602D"/>
<stop offset="1" stop-color="#EBBF97"/>
</linearGradient>
<clipPath id="clip0_645_16462">
<rect width="870" height="550" rx="10" fill="white"/>
</clipPath>
<clipPath id="clip1_645_16462">
<path d="M79 120C79 111.163 86.1634 104 95 104H359V500H95C86.1634 500 79 492.837 79 484V120Z" fill="white"/>
</clipPath>
<clipPath id="clip2_645_16462">
<path d="M510 104H774C782.837 104 790 111.163 790 120V484C790 492.837 782.837 500 774 500H510V104Z" fill="white"/>
</clipPath>
<clipPath id="clip3_645_16462">
<rect width="280" height="126" fill="white" transform="translate(510 104)"/>
</clipPath>
<clipPath id="clip4_645_16462">
<rect width="203" height="161.886" fill="white" transform="translate(476 98)"/>
</clipPath>
<clipPath id="clip5_645_16462">
<path d="M356 93H514V500H356V93Z" fill="white"/>
</clipPath>
<clipPath id="clip6_645_16462">
<rect width="14" height="11" fill="white" transform="translate(342 93)"/>
</clipPath>
<clipPath id="clip7_645_16462">
<rect width="14" height="11" fill="white" transform="matrix(-1 0 0 1 528 93)"/>
</clipPath>
</defs>
</svg>
