<svg xmlns="http://www.w3.org/2000/svg" width="34" height="34" viewBox="0 0 34 34"><defs><style>.a{fill:#2bc24e;}.b{fill:none;}</style></defs><g transform="translate(-4883 -435)"><path class="a" d="M94.635,148.159a.816.816,0,0,1-.384.088.841.841,0,0,1-.742-.438l-.06-.116-2.34-5.03a.376.376,0,0,1-.029-.175.4.4,0,0,1,.415-.41.475.475,0,0,1,.266.088l2.755,1.93a1.446,1.446,0,0,0,.71.2,1.184,1.184,0,0,0,.444-.088l12.919-5.672A13.766,13.766,0,0,0,98.132,134.1c-7.051,0-12.8,4.708-12.8,10.524a9.891,9.891,0,0,0,4.413,7.952.86.86,0,0,1,.355.673.8.8,0,0,1-.06.263c-.206.788-.564,2.077-.564,2.134a1.057,1.057,0,0,0-.06.322.4.4,0,0,0,.415.41.338.338,0,0,0,.238-.088l2.784-1.608a1.427,1.427,0,0,1,.682-.2,1.646,1.646,0,0,1,.384.059,15.063,15.063,0,0,0,4.178.585c7.051,0,12.8-4.708,12.8-10.524a9.153,9.153,0,0,0-1.452-4.883L94.724,148.1l-.089.059Z" transform="translate(4801.667 306.904)"/><rect class="b" width="34" height="34" transform="translate(4883 435)"/></g></svg>